<?xml version="1.0" standalone="no"?>
<!DOCTYPE svg PUBLIC "-//W3C//DTD SVG 1.1//EN" "http://www.w3.org/Graphics/SVG/1.1/DTD/svg11.dtd" >
<svg xmlns="http://www.w3.org/2000/svg" xmlns:xlink="http://www.w3.org/1999/xlink" version="1.1">
<metadata>
Created by FontForge 20160407 at Mon Oct 24 11:41:10 2016
 By Jimmy Warting
Spaced and kerned with iKern.
</metadata>
<defs>
<font id="MuseoSansCyrl-900" horiz-adv-x="400" >
  <font-face 
    font-family="Museo Sans Cyrl 900"
    font-weight="700"
    font-stretch="normal"
    units-per-em="1000"
    panose-1="2 0 0 0 0 0 0 0 0 0"
    ascent="750"
    descent="-250"
    x-height="515"
    cap-height="715"
    bbox="-129 -215 1230 918"
    underline-thickness="50"
    underline-position="-100"
    stemh="150"
    stemv="175"
    unicode-range="U+0020-FB04"
  />
<missing-glyph horiz-adv-x="510" 
d="M5 0v700h500v-700h-500zM255 395l170 255h-340zM285 350l170 -255v510zM55 95l170 255l-170 255v-510zM85 50h340l-170 255z" />
    <glyph glyph-name="f_f" unicode="ff" horiz-adv-x="763" 
d="M92 0v380h-63v135h63v12c0 169 153 192 236 192c18 0 34 0 52 -3v-146c-4 1 -15 2 -28 2c-34 0 -87 -6 -87 -50v-7h211v12c0 169 153 192 236 192c18 0 34 0 52 -3v-146c-4 1 -15 2 -28 2c-34 0 -87 -6 -87 -50v-7h95v-135h-95v-380h-173v380h-211v-380h-173z" />
    <glyph glyph-name="fi" unicode="fi" horiz-adv-x="675" 
d="M92 0v380h-63v135h63v12c0 169 153 192 236 192c18 0 34 0 52 -3v-146c-4 1 -15 2 -28 2c-34 0 -87 -6 -87 -50v-7h352v-515h-173v380h-179v-380h-173zM446 580v135h169v-135h-169z" />
    <glyph glyph-name="fl" unicode="fl" horiz-adv-x="705" 
d="M95 0v371h-63v135h63v21c0 169 153 192 236 192c18 0 34 0 52 -3v-146c-4 1 -15 2 -28 2c-34 0 -87 -6 -87 -50v-16h95v-135h-95v-371h-173zM440 190v525h173v-502c0 -49 9 -66 48 -66c5 0 13 0 21 1v-150c-12 -1 -30 -3 -52 -3c-92 0 -190 22 -190 195z" />
    <glyph glyph-name="f_f_i" unicode="ffi" horiz-adv-x="1059" 
d="M92 0v380h-63v135h63v12c0 169 153 192 236 192c18 0 34 0 52 -3v-146c-4 1 -15 2 -28 2c-34 0 -87 -6 -87 -50v-7h211v12c0 169 153 192 236 192c18 0 34 0 52 -3v-146c-4 1 -15 2 -28 2c-34 0 -87 -6 -87 -50v-7h352v-515h-173v380h-179v-380h-173v380h-211v-380h-173z
M830 580v135h169v-135h-169z" />
    <glyph glyph-name="f_f_l" unicode="ffl" horiz-adv-x="1086" 
d="M92 0v380h-63v135h63v12c0 169 153 192 236 192c18 0 34 0 52 -3v-146c-4 1 -15 2 -28 2c-34 0 -87 -6 -87 -50v-7h211v12c0 169 153 192 236 192c18 0 34 0 52 -3v-146c-4 1 -15 2 -28 2c-34 0 -87 -6 -87 -50v-7h95v-135h-95v-380h-173v380h-211v-380h-173zM821 190
v525h173v-502c0 -49 9 -66 48 -66c5 0 13 0 21 1v-150c-12 -1 -30 -3 -52 -3c-92 0 -190 22 -190 195z" />
    <glyph glyph-name="f_j" unicode="fj" horiz-adv-x="675" 
d="M92 0v380h-63v135h63v12c0 169 153 192 236 192c18 0 34 0 52 -3v-146c-4 1 -15 2 -28 2c-34 0 -87 -6 -87 -50v-7h352v-528c0 -173 -162 -195 -242 -195c-15 0 -31 1 -46 3v144c8 -1 14 -1 22 -1c34 0 93 8 93 66v376h-179v-380h-173zM446 580v135h169v-135h-169z" />
    <glyph glyph-name=".notdef" horiz-adv-x="510" 
d="M5 0v700h500v-700h-500zM255 395l170 255h-340zM285 350l170 -255v510zM55 95l170 255l-170 255v-510zM85 50h340l-170 255z" />
    <glyph glyph-name="space" unicode=" " horiz-adv-x="250" 
 />
    <glyph glyph-name="exclam" unicode="!" horiz-adv-x="308" 
d="M80 221l-16 494h180l-16 -494h-148zM75 0v150h158v-150h-158z" />
    <glyph glyph-name="quotedbl" unicode="&#x22;" horiz-adv-x="437" 
d="M253 490v240h122v-240h-122zM62 490v240h122v-240h-122z" />
    <glyph glyph-name="numbersign" unicode="#" horiz-adv-x="706" 
d="M103 0l31 180h-101l20 120h101l17 95h-99l20 120h99l35 200h134l-35 -200h108l35 200h134l-35 -200h105l-20 -120h-105l-17 -95h103l-20 -120h-103l-31 -180h-134l31 180h-108l-31 -180h-134zM288 300h108l17 95h-108z" />
    <glyph glyph-name="dollar" unicode="$" horiz-adv-x="600" 
d="M42 90l92 133c42 -38 110 -74 171 -74c36 0 75 14 75 57c0 80 -325 87 -325 302c0 112 80 192 191 213v94h109v-91c66 -7 131 -32 183 -78l-74 -143c-40 34 -102 63 -158 63c-36 0 -76 -16 -76 -56c0 -85 325 -79 325 -300c0 -106 -72 -198 -200 -218v-91h-109v91
c-73 11 -152 44 -204 98z" />
    <glyph glyph-name="percent" unicode="%" horiz-adv-x="857" 
d="M215 382c-101 0 -181 76 -181 172c0 94 80 173 181 173c100 0 181 -79 181 -173c0 -96 -81 -172 -181 -172zM74 0l552 715h152l-552 -715h-152zM215 502c30 0 55 23 55 53c0 28 -25 52 -55 52s-55 -24 -55 -52c0 -30 25 -53 55 -53zM461 160c0 94 80 173 181 173
c100 0 181 -79 181 -173c0 -96 -81 -172 -181 -172c-101 0 -181 76 -181 172zM587 161c0 -30 25 -53 55 -53s55 23 55 53c0 28 -25 52 -55 52s-55 -24 -55 -52z" />
    <glyph glyph-name="ampersand" unicode="&#x26;" horiz-adv-x="699" 
d="M44 207c0 74 46 143 114 171v2c-52 26 -84 87 -84 154c0 139 117 193 236 193c35 0 69 -5 103 -12l-40 -137c-12 3 -24 4 -39 4c-45 0 -83 -23 -83 -74c0 -36 25 -69 73 -69h87v88h172v-88h89v-150h-89v-69c0 -128 -98 -232 -273 -232c-163 0 -266 97 -266 219zM223 218
c0 -39 38 -71 87 -71c66 0 101 36 101 83v59h-98c-46 0 -90 -17 -90 -71z" />
    <glyph glyph-name="quotesingle" unicode="'" horiz-adv-x="249" 
d="M62 490v240h125v-240h-125z" />
    <glyph glyph-name="parenleft" unicode="(" horiz-adv-x="332" 
d="M164 -95c-77 122 -124 274 -124 442c0 144 45 281 124 403h142c-74 -124 -113 -263 -113 -403c0 -150 39 -301 113 -442h-142z" />
    <glyph glyph-name="parenright" unicode=")" horiz-adv-x="332" 
d="M26 -95c74 141 113 292 113 442c0 140 -39 279 -113 403h142c79 -122 124 -259 124 -403c0 -168 -47 -320 -124 -442h-142z" />
    <glyph glyph-name="asterisk" unicode="*" horiz-adv-x="495" 
d="M191 309l-122 88l75 83v2l-110 23l46 143l102 -45l-11 112h152l-12 -112l103 46l47 -143l-111 -23v-2l76 -83l-122 -89l-56 97h-2z" />
    <glyph glyph-name="plus" unicode="+" horiz-adv-x="600" 
d="M27 222v130h205v223h136v-223h205v-130h-205v-222h-136v222h-205z" />
    <glyph glyph-name="comma" unicode="," horiz-adv-x="298" 
d="M11 -111l75 277h165l-113 -277h-127z" />
    <glyph glyph-name="hyphen" unicode="-" horiz-adv-x="432" 
d="M59 212v150h314v-150h-314z" />
    <glyph glyph-name="period" unicode="." horiz-adv-x="282" 
d="M59 0v164h164v-164h-164z" />
    <glyph glyph-name="slash" unicode="/" horiz-adv-x="452" 
d="M26 -42l256 792h144l-256 -792h-144z" />
    <glyph glyph-name="zero" unicode="0" horiz-adv-x="636" 
d="M318 -12c-203 0 -269 166 -269 371s66 368 269 368s269 -163 269 -368s-66 -371 -269 -371zM318 148c69 0 89 94 89 211c0 116 -20 208 -89 208s-89 -92 -89 -208c0 -117 20 -211 89 -211z" />
    <glyph glyph-name="one" unicode="1" horiz-adv-x="552" 
d="M55 0v150h152v298c0 27 1 55 1 55h-2s-9 -20 -28 -38l-43 -39l-101 108l193 181h151v-565h153v-150h-476z" />
    <glyph glyph-name="two" unicode="2" horiz-adv-x="599" 
d="M55 0c-5 28 -8 53 -8 77c0 264 309 311 309 414c0 50 -40 71 -77 71c-46 0 -85 -36 -106 -76l-130 87c42 81 123 154 252 154c117 0 244 -67 244 -219c0 -223 -289 -266 -298 -358h309v-150h-495z" />
    <glyph glyph-name="three" unicode="3" horiz-adv-x="582" 
d="M30 82l84 135c36 -35 92 -64 147 -64c65 0 102 32 102 71c0 56 -56 79 -133 79h-50l-37 85l94 113c34 41 62 67 62 67v2s-23 -5 -68 -5h-171v150h451v-109l-145 -167c106 -23 173 -107 173 -207c0 -122 -86 -244 -265 -244c-86 0 -180 29 -244 94z" />
    <glyph glyph-name="four" unicode="4" horiz-adv-x="633" 
d="M24 173v106l276 436h214v-397h85v-145h-85v-173h-173v173h-317zM202 318h139v160c0 39 6 80 6 80h-2s-15 -44 -35 -74l-108 -164v-2z" />
    <glyph glyph-name="five" unicode="5" horiz-adv-x="582" 
d="M37 82l84 135c35 -33 91 -64 145 -64c47 0 100 29 100 88c0 56 -49 89 -114 89c-33 0 -66 -9 -96 -24l-93 35l29 374h400v-150h-248l-4 -66c-1 -14 -4 -28 -4 -28h2c8 3 39 7 52 7c170 0 256 -106 256 -235c0 -148 -109 -255 -265 -255c-88 0 -178 31 -244 94z" />
    <glyph glyph-name="six" unicode="6" horiz-adv-x="615" 
d="M45 330c0 194 119 397 341 397c51 0 112 -9 158 -31l-47 -150c-16 9 -66 21 -98 21c-84 0 -132 -52 -154 -118h2c17 12 64 25 98 25c149 0 234 -122 234 -245c0 -121 -89 -241 -244 -241c-144 0 -290 109 -290 342zM335 148c44 0 72 38 72 80c0 51 -31 105 -108 105
c-40 0 -74 -10 -74 -43c0 -85 60 -142 110 -142z" />
    <glyph glyph-name="seven" unicode="7" horiz-adv-x="563" 
d="M63 0l253 501c25 49 42 65 42 65v2s-6 -3 -42 -3h-283v150h513v-122l-300 -593h-183z" />
    <glyph glyph-name="eight" unicode="8" horiz-adv-x="621" 
d="M43 210c0 88 70 152 99 174c-38 34 -65 77 -65 137c0 104 73 206 240 206c133 0 242 -74 242 -207c0 -72 -51 -141 -70 -164c48 -33 84 -78 84 -150c0 -109 -88 -218 -265 -218c-174 0 -265 108 -265 222zM362 419c10 16 26 47 26 88c0 40 -28 66 -75 66
c-45 0 -65 -25 -65 -56c0 -47 52 -72 114 -98zM222 225c0 -46 38 -83 86 -83c53 0 86 26 86 73c0 41 -63 65 -133 98c-17 -18 -39 -49 -39 -88z" />
    <glyph glyph-name="nine" unicode="9" horiz-adv-x="615" 
d="M71 19l47 150c28 -12 63 -21 98 -21c84 0 132 52 154 118h-2c-16 -13 -64 -25 -98 -25c-149 0 -234 122 -234 245c0 121 89 241 244 241c144 0 290 -109 290 -342c0 -194 -119 -397 -341 -397c-53 0 -110 8 -158 31zM316 382c40 0 74 10 74 43c0 85 -60 142 -110 142
c-44 0 -72 -38 -72 -80c0 -51 31 -105 108 -105z" />
    <glyph glyph-name="colon" unicode=":" horiz-adv-x="282" 
d="M59 351v164h164v-164h-164zM59 0v164h164v-164h-164z" />
    <glyph glyph-name="semicolon" unicode=";" horiz-adv-x="306" 
d="M88 351v164h158v-164h-158zM18 -111l65 277h166l-103 -277h-128z" />
    <glyph glyph-name="less" unicode="&#x3c;" horiz-adv-x="600" 
d="M34 234v107l504 223v-145l-330 -131v-2l330 -130v-145z" />
    <glyph glyph-name="equal" unicode="=" horiz-adv-x="600" 
d="M47 337v130h506v-130h-506zM47 107v130h506v-130h-506z" />
    <glyph glyph-name="greater" unicode="&#x3e;" horiz-adv-x="600" 
d="M61 11v145l330 130v2l-330 131v145l504 -223v-107z" />
    <glyph glyph-name="question" unicode="?" horiz-adv-x="509" 
d="M135 221v50c0 135 157 159 157 243c0 34 -33 59 -71 59c-36 0 -69 -20 -95 -43l-96 117c43 43 113 83 209 83c112 0 233 -67 233 -196c0 -164 -171 -188 -171 -277v-36h-166zM139 0v150h158v-150h-158z" />
    <glyph glyph-name="at" unicode="@" horiz-adv-x="845" 
d="M46 239c0 211 168 376 393 376c221 0 298 -110 298 -240v-198h74v-119h-283c-150 0 -227 91 -227 182c0 88 74 176 227 176h49c0 43 -73 64 -135 64c-130 0 -227 -120 -227 -241c0 -127 88 -239 252 -239v-130c-262 0 -421 163 -421 369zM472 244c0 -37 22 -67 66 -67h39
v134h-37c-46 0 -68 -31 -68 -67z" />
    <glyph glyph-name="A" unicode="A" horiz-adv-x="664" 
d="M-3 0l243 715h184l243 -715h-180l-44 150h-223l-43 -150h-180zM261 290h141l-40 139c-13 45 -29 123 -29 123h-2s-16 -78 -29 -123z" />
    <glyph glyph-name="B" unicode="B" horiz-adv-x="647" 
d="M75 0v715h263c143 0 243 -64 243 -187c0 -60 -29 -121 -83 -152v-2c82 -25 112 -98 112 -161c0 -156 -130 -213 -272 -213h-263zM250 438h90c44 0 63 32 63 66c0 33 -19 61 -66 61h-87v-127zM250 150h105c51 0 76 35 76 75s-24 73 -75 73h-106v-148z" />
    <glyph glyph-name="C" unicode="C" horiz-adv-x="714" 
d="M37 359c0 208 154 368 375 368c96 0 198 -32 268 -101l-81 -132c-46 40 -115 73 -179 73c-143 0 -202 -101 -202 -204c0 -106 64 -215 202 -215c71 0 141 39 190 88l90 -128c-63 -65 -157 -120 -288 -120c-230 0 -375 159 -375 371z" />
    <glyph glyph-name="D" unicode="D" horiz-adv-x="737" 
d="M75 0v715h254c225 0 369 -131 369 -356s-144 -359 -369 -359h-254zM250 150h72c121 0 195 72 195 209c0 136 -77 206 -195 206h-72v-415z" />
    <glyph glyph-name="E" unicode="E" horiz-adv-x="574" 
d="M75 0v715h448v-150h-273v-130h218v-150h-218v-135h287v-150h-462z" />
    <glyph glyph-name="F" unicode="F" horiz-adv-x="537" 
d="M75 0v715h438v-150h-263v-150h218v-150h-218v-265h-175z" />
    <glyph glyph-name="G" unicode="G" horiz-adv-x="773" 
d="M37 359c0 208 157 368 375 368c97 0 199 -28 275 -95l-84 -131c-41 37 -113 66 -174 66c-150 0 -211 -96 -211 -202c0 -136 94 -217 205 -217c52 0 104 20 145 52v55h-101v149h256v-404h-146v20c0 15 1 30 1 30h-2c-43 -38 -118 -62 -188 -62c-183 0 -351 137 -351 371z
" />
    <glyph glyph-name="H" unicode="H" horiz-adv-x="760" 
d="M75 0v715h175v-286h260v286h175v-715h-175v280h-260v-280h-175z" />
    <glyph glyph-name="I" unicode="I" horiz-adv-x="325" 
d="M75 0v715h175v-715h-175z" />
    <glyph glyph-name="J" unicode="J" horiz-adv-x="566" 
d="M18 220v52h175v-38c0 -45 16 -86 65 -86c38 0 64 24 64 76v341h-192v150h367v-495c0 -157 -120 -232 -239 -232c-121 0 -240 77 -240 232z" />
    <glyph glyph-name="K" unicode="K" horiz-adv-x="675" 
d="M75 0v715h175v-276h72l148 276h188l-193 -342v-2l204 -371h-196l-151 290h-72v-290h-175z" />
    <glyph glyph-name="L" unicode="L" horiz-adv-x="552" 
d="M75 0v715h175v-565h292v-150h-467z" />
    <glyph glyph-name="M" unicode="M" horiz-adv-x="874" 
d="M47 0l59 715h190l104 -302c16 -46 36 -118 36 -118h2s20 72 36 118l104 302h190l58 -715h-175l-22 322c-4 54 0 120 0 120h-2s-24 -75 -40 -120l-75 -207h-150l-75 207c-16 45 -40 120 -40 120h-2s4 -66 0 -120l-22 -322h-176z" />
    <glyph glyph-name="N" unicode="N" horiz-adv-x="754" 
d="M75 0v715h177l198 -334c28 -47 60 -122 60 -122h2s-8 77 -8 122v334h175v-715h-176l-199 333c-28 47 -60 122 -60 122h-2s8 -77 8 -122v-333h-175z" />
    <glyph glyph-name="O" unicode="O" horiz-adv-x="820" 
d="M36 362c0 205 152 365 374 365s374 -160 374 -365c0 -210 -152 -374 -374 -374s-374 164 -374 374zM217 362c0 -122 80 -214 193 -214s193 92 193 214c0 117 -80 205 -193 205s-193 -88 -193 -205z" />
    <glyph glyph-name="P" unicode="P" horiz-adv-x="629" 
d="M75 0v715h297c139 0 233 -102 233 -246s-94 -248 -233 -248h-122v-221h-175zM250 371h86c61 0 91 41 91 98s-30 96 -88 96h-89v-194z" />
    <glyph glyph-name="Q" unicode="Q" horiz-adv-x="819" 
d="M36 362c0 205 152 365 374 365c221 0 374 -160 374 -365c0 -82 -29 -152 -71 -212l75 -61l-99 -111l-73 69c-58 -38 -128 -59 -206 -59c-222 0 -374 164 -374 374zM217 362c0 -122 80 -214 193 -214c26 0 56 5 78 16l-73 64l98 111l71 -69c12 28 19 59 19 92
c0 117 -83 205 -193 205c-113 0 -193 -88 -193 -205z" />
    <glyph glyph-name="R" unicode="R" horiz-adv-x="658" 
d="M75 0v715h249c73 0 108 -5 139 -17c81 -31 132 -104 132 -208c0 -76 -36 -159 -107 -195v-2s10 -13 27 -43l139 -250h-195l-127 241h-82v-241h-175zM250 391h76c56 0 91 31 91 88c0 36 -9 63 -42 76c-16 7 -37 10 -66 10h-59v-174z" />
    <glyph glyph-name="S" unicode="S" horiz-adv-x="575" 
d="M26 90l92 133c40 -35 108 -74 172 -74c49 0 74 22 74 50c0 101 -316 85 -316 309c0 132 109 219 259 219c80 0 162 -26 224 -81l-74 -143c-40 35 -102 63 -158 63c-53 0 -76 -22 -76 -51c0 -102 316 -78 316 -304c0 -120 -89 -223 -254 -223c-93 0 -191 34 -259 102z" />
    <glyph glyph-name="T" unicode="T" horiz-adv-x="633" 
d="M229 0v565h-217v150h609v-150h-217v-565h-175z" />
    <glyph glyph-name="U" unicode="U" horiz-adv-x="732" 
d="M67 263v452h175v-452c0 -75 49 -115 124 -115s124 40 124 115v452h175v-452c0 -161 -118 -275 -298 -275c-182 0 -300 114 -300 275z" />
    <glyph glyph-name="V" unicode="V" horiz-adv-x="675" 
d="M247 0l-253 715h190l126 -407c14 -45 27 -115 27 -115h2s13 70 27 115l128 407h187l-252 -715h-182z" />
    <glyph glyph-name="W" unicode="W" horiz-adv-x="979" 
d="M187 0l-174 715h184l90 -447c9 -44 9 -75 9 -75h2s1 31 12 75l110 447h141l107 -447c11 -44 12 -75 12 -75h2s0 31 9 75l98 447h181l-181 -715h-195l-90 361c-11 46 -14 84 -14 84h-2s-3 -38 -14 -84l-90 -361h-197z" />
    <glyph glyph-name="X" unicode="X" horiz-adv-x="659" 
d="M8 0l217 355l-218 360h199l78 -147c24 -45 44 -92 44 -92h2s19 46 44 92l79 147h199l-219 -360l218 -355h-195l-82 150c-25 45 -44 89 -44 89h-2s-19 -44 -44 -89l-82 -150h-194z" />
    <glyph glyph-name="Y" unicode="Y" horiz-adv-x="627" 
d="M226 0v293l-236 422h199l81 -172c23 -49 43 -103 43 -103h2s20 54 43 103l80 172h199l-236 -422v-293h-175z" />
    <glyph glyph-name="Z" unicode="Z" horiz-adv-x="635" 
d="M37 0v110l276 391c31 44 55 65 55 65v2s-23 -3 -55 -3h-263v150h540v-108l-277 -393c-31 -44 -55 -65 -55 -65v-2s23 3 55 3h282v-150h-558z" />
    <glyph glyph-name="bracketleft" unicode="[" horiz-adv-x="352" 
d="M70 -95v845h246v-120h-102v-605h102v-120h-246z" />
    <glyph glyph-name="backslash" unicode="\" horiz-adv-x="452" 
d="M282 -42l-256 792h144l256 -792h-144z" />
    <glyph glyph-name="bracketright" unicode="]" horiz-adv-x="352" 
d="M36 25h102v605h-102v120h246v-845h-246v120z" />
    <glyph glyph-name="asciicircum" unicode="^" horiz-adv-x="630" 
d="M58 241l203 474h107l203 -474h-145l-112 300l-111 -300h-145z" />
    <glyph glyph-name="underscore" unicode="_" horiz-adv-x="618" 
d="M11 0h596v-130h-596v130z" />
    <glyph glyph-name="grave" unicode="`" horiz-adv-x="484" 
d="M234 761l-118 150h171l81 -150h-134z" />
    <glyph glyph-name="a" unicode="a" horiz-adv-x="553" 
d="M22 145c0 138 164 176 291 176h15v9c0 43 -35 57 -73 57c-50 0 -101 -22 -142 -49l-60 122c44 34 134 67 218 67c142 0 230 -79 230 -210v-317h-158v31c0 17 2 32 2 32h-2c-34 -48 -94 -75 -153 -75c-99 0 -168 68 -168 157zM193 161c0 -24 17 -44 49 -44
c50 0 88 49 88 91v14h-16c-53 0 -121 -14 -121 -61z" />
    <glyph glyph-name="b" unicode="b" horiz-adv-x="633" 
d="M58 0v715h173v-199c0 -26 -2 -44 -2 -44h2c30 34 87 55 139 55c140 0 232 -110 232 -270c0 -163 -103 -269 -240 -269c-52 0 -109 19 -144 61h-2s1 -13 1 -29v-20h-159zM226 254c0 -62 33 -123 101 -123c54 0 101 44 101 123c0 77 -41 127 -101 127
c-52 0 -101 -38 -101 -127z" />
    <glyph glyph-name="c" unicode="c" horiz-adv-x="552" 
d="M29 258c0 138 102 269 287 269c72 0 154 -23 205 -78l-73 -116c-30 29 -76 50 -121 50c-82 0 -123 -62 -123 -123s42 -128 129 -128c50 0 104 30 141 62l63 -121c-51 -52 -135 -85 -221 -85c-184 0 -287 128 -287 270z" />
    <glyph glyph-name="d" unicode="d" horiz-adv-x="633" 
d="M31 258c0 163 98 269 235 269c46 0 101 -7 135 -41h2s-1 10 -1 23v206h173v-715h-162v34c0 16 1 29 1 29h-2c-32 -49 -88 -75 -149 -75c-140 0 -232 110 -232 270zM205 258c0 -77 41 -127 101 -127c52 0 101 38 101 127c0 62 -33 123 -101 123c-54 0 -101 -44 -101 -123z
" />
    <glyph glyph-name="e" unicode="e" horiz-adv-x="567" 
d="M29 258c0 151 102 269 268 269c152 0 238 -106 238 -249c0 -18 -2 -36 -4 -54h-325c13 -63 65 -92 120 -92c51 0 100 24 142 52l64 -121c-56 -48 -141 -75 -220 -75c-184 0 -283 133 -283 270zM210 323h154c0 42 -27 77 -71 77c-50 0 -74 -36 -83 -77z" />
    <glyph glyph-name="f" unicode="f" horiz-adv-x="382" 
d="M95 0v371h-63v135h63v21c0 169 153 192 236 192c18 0 34 0 52 -3v-146c-4 1 -15 2 -28 2c-34 0 -87 -6 -87 -50v-16h95v-135h-95v-371h-173z" />
    <glyph glyph-name="g" unicode="g" horiz-adv-x="625" 
d="M130 -33c43 -21 93 -33 145 -33c62 0 119 23 119 99v17c0 6 1 19 1 19h-2c-30 -36 -69 -54 -129 -54c-155 0 -232 127 -232 259c0 131 75 253 231 253c49 0 104 -14 140 -50h3s-1 6 -1 12v26h162v-468c0 -188 -150 -257 -291 -257c-69 0 -145 20 -195 46zM206 280
c0 -64 30 -121 99 -121c45 0 93 23 93 113c0 91 -48 111 -100 111c-61 0 -92 -44 -92 -103z" />
    <glyph glyph-name="h" unicode="h" horiz-adv-x="626" 
d="M58 0v715h173v-226c0 -26 -2 -44 -2 -44h2c29 51 89 82 157 82c104 0 185 -48 185 -193v-334h-173v302c0 48 -19 68 -57 68c-75 0 -112 -59 -112 -138v-232h-173z" />
    <glyph glyph-name="i" unicode="i" horiz-adv-x="289" 
d="M60 580v135h169v-135h-169zM58 0v515h173v-515h-173z" />
    <glyph glyph-name="j" unicode="j" horiz-adv-x="289" 
d="M60 580v135h169v-135h-169zM58 4v511h173v-528c0 -173 -162 -195 -242 -195c-15 0 -31 1 -46 3v144c8 -1 14 -1 22 -1c34 0 93 8 93 66z" />
    <glyph glyph-name="k" unicode="k" horiz-adv-x="591" 
d="M58 0v715h173v-370h49l102 170h188l-151 -234v-2l172 -279h-197l-109 200h-54v-200h-173z" />
    <glyph glyph-name="l" unicode="l" horiz-adv-x="323" 
d="M57 190v525h173v-502c0 -49 9 -66 48 -66c5 0 13 0 21 1v-150c-12 -1 -30 -3 -52 -3c-92 0 -190 22 -190 195z" />
    <glyph glyph-name="m" unicode="m" horiz-adv-x="909" 
d="M58 0v515h166v-45c0 -17 -2 -32 -2 -32h2c24 36 72 89 153 89c65 0 117 -29 144 -87h2c27 43 88 87 165 87c94 0 167 -51 167 -193v-334h-173v305c0 38 -7 65 -40 65c-75 0 -99 -75 -99 -152v-218h-173v305c0 38 -7 65 -40 65c-79 0 -99 -81 -99 -152v-218h-173z" />
    <glyph glyph-name="n" unicode="n" horiz-adv-x="626" 
d="M58 0v515h166v-45c0 -17 -2 -32 -2 -32h2c24 40 73 89 164 89c104 0 185 -48 185 -193v-334h-173v302c0 48 -19 68 -57 68c-77 0 -112 -64 -112 -137v-233h-173z" />
    <glyph glyph-name="o" unicode="o" horiz-adv-x="642" 
d="M29 256c0 162 130 271 291 271c163 0 293 -109 293 -271c0 -161 -130 -268 -292 -268s-292 107 -292 268zM204 256c0 -77 54 -124 117 -124s117 47 117 124c0 78 -54 127 -117 127s-117 -49 -117 -127z" />
    <glyph glyph-name="p" unicode="p" horiz-adv-x="633" 
d="M58 -200v715h156v-26c0 -17 -2 -33 -2 -33h2c35 47 94 71 156 71c140 0 232 -110 232 -270c0 -163 -103 -269 -240 -269c-48 0 -94 17 -131 49h-2s2 -18 2 -44v-193h-173zM226 254c0 -62 33 -123 101 -123c54 0 101 44 101 123c0 77 -41 127 -101 127
c-52 0 -101 -38 -101 -127z" />
    <glyph glyph-name="q" unicode="q" horiz-adv-x="633" 
d="M31 258c0 163 98 269 235 269c52 0 111 -15 147 -55h2s-2 11 -2 28v15h162v-715h-173v202c0 26 2 44 2 44h-2c-35 -41 -91 -58 -139 -58c-140 0 -232 110 -232 270zM205 258c0 -77 41 -127 101 -127c52 0 101 38 101 127c0 62 -33 123 -101 123c-54 0 -101 -44 -101 -123
z" />
    <glyph glyph-name="r" unicode="r" horiz-adv-x="426" 
d="M58 0v515h166v-87c0 -17 -2 -32 -2 -32h2c22 70 87 128 164 128c7 0 14 -1 20 -2v-170c-6 2 -23 3 -35 3c-96 0 -142 -61 -142 -155v-200h-173z" />
    <glyph glyph-name="s" unicode="s" horiz-adv-x="471" 
d="M19 64l74 113c38 -32 91 -52 140 -52c35 0 47 11 47 27c0 55 -241 43 -241 212c0 106 95 163 214 163c66 0 132 -17 184 -59l-59 -120c-30 24 -86 42 -130 42c-37 0 -48 -11 -48 -25c0 -54 241 -41 241 -208c0 -96 -80 -169 -212 -169c-74 0 -153 25 -210 76z" />
    <glyph glyph-name="t" unicode="t" horiz-adv-x="411" 
d="M88 190v181h-66v135h71v148h168v-148h108v-135h-108v-158c0 -58 59 -66 92 -66c6 0 12 0 23 1v-150c-13 -1 -27 -3 -47 -3c-82 0 -241 22 -241 195z" />
    <glyph glyph-name="u" unicode="u" horiz-adv-x="621" 
d="M53 181v334h173v-302c0 -48 19 -68 55 -68c74 0 109 65 109 142v228h173v-515h-166v45c0 17 2 32 2 32h-2c-28 -55 -92 -89 -161 -89c-102 0 -183 48 -183 193z" />
    <glyph glyph-name="v" unicode="v" horiz-adv-x="572" 
d="M181 0l-178 515h182l80 -274c10 -33 19 -89 19 -89h2s9 55 19 89l79 274h183l-175 -515h-211z" />
    <glyph glyph-name="w" unicode="w" horiz-adv-x="836" 
d="M155 0l-144 515h182l64 -304c6 -28 6 -54 6 -54h2s2 26 9 54l71 304h148l71 -304c7 -28 8 -54 8 -54h2s1 26 7 54l64 304h180l-144 -515h-193l-58 238c-7 28 -10 55 -10 55h-2s-3 -27 -10 -55l-58 -238h-195z" />
    <glyph glyph-name="x" unicode="x" horiz-adv-x="550" 
d="M11 0l162 255l-166 260h195l56 -115c7 -13 16 -34 16 -34h2s10 21 16 34l56 115h195l-165 -260l162 -255h-190l-62 116c-5 9 -12 26 -12 26h-2s-7 -17 -12 -26l-61 -116h-190z" />
    <glyph glyph-name="y" unicode="y" horiz-adv-x="561" 
d="M63 -47c0 0 28 -19 53 -19c28 0 65 8 83 52l10 24l-219 505h196l76 -237c9 -28 19 -80 19 -80h2s10 49 17 77l65 240h189l-211 -570c-43 -115 -133 -155 -215 -155c-68 0 -120 36 -120 36z" />
    <glyph glyph-name="z" unicode="z" horiz-adv-x="544" 
d="M34 0v86l189 237c26 32 45 47 45 47v2s-13 -2 -45 -2h-181v145h460v-87l-188 -237c-25 -31 -46 -47 -46 -47v-2s13 3 46 3h193v-145h-473z" />
    <glyph glyph-name="braceleft" unicode="{" horiz-adv-x="395" 
d="M117 62v98c0 54 -28 91 -85 96v150c52 5 85 38 85 99v88c0 143 129 162 199 162c25 0 43 -2 43 -2v-124s-11 2 -25 2c-29 0 -73 -8 -73 -54v-117c0 -63 -36 -111 -84 -127v-2c45 -16 84 -53 84 -126v-127c0 -46 44 -54 73 -54c14 0 25 2 25 2v-124s-18 -2 -43 -2
c-70 0 -199 19 -199 162z" />
    <glyph glyph-name="bar" unicode="|" horiz-adv-x="280" 
d="M68 -165v967h144v-967h-144z" />
    <glyph glyph-name="braceright" unicode="}" horiz-adv-x="395" 
d="M36 26c0 0 11 -2 25 -2c29 0 73 8 73 54v127c0 54 28 111 84 126v2c-42 13 -84 60 -84 127v117c0 46 -44 54 -73 54c-14 0 -25 -2 -25 -2v124s18 2 43 2c70 0 199 -19 199 -162v-88c0 -51 27 -95 85 -99v-150c-53 -2 -85 -44 -85 -96v-98c0 -143 -129 -162 -199 -162
c-25 0 -43 2 -43 2v124z" />
    <glyph glyph-name="asciitilde" unicode="~" horiz-adv-x="636" 
d="M53 191c0 134 58 203 174 203c93 0 120 -80 172 -80c32 0 55 25 55 76h133c0 -134 -58 -203 -173 -203c-93 0 -120 80 -173 80c-31 0 -54 -25 -54 -76h-134z" />
    <glyph glyph-name="exclamdown" unicode="&#xa1;" horiz-adv-x="290" 
d="M219 294l16 -494h-180l16 494h148zM224 515v-150h-158v150h158z" />
    <glyph glyph-name="cent" unicode="&#xa2;" horiz-adv-x="600" 
d="M256 -12v87c-118 27 -213 140 -213 283c0 142 95 256 213 283v85h110v-85c90 -20 164 -84 193 -172l-154 -60c-13 39 -44 75 -90 75c-47 0 -98 -50 -98 -126c0 -83 46 -126 98 -126c45 0 77 35 90 75l154 -60c-24 -68 -90 -157 -193 -172v-87h-110z" />
    <glyph glyph-name="sterling" unicode="&#xa3;" horiz-adv-x="600" 
d="M45 0v150h55v149h-43v112h43v100c0 128 103 216 244 216c72 0 145 -32 196 -83l-97 -118c-23 23 -59 44 -94 44c-38 0 -70 -25 -70 -64v-95h165v-112h-165v-149h290v-150h-524z" />
    <glyph glyph-name="yen" unicode="&#xa5;" horiz-adv-x="600" 
d="M47 167v96h163v28l-24 49h-139v96h92l-137 279h201l53 -143c24 -66 43 -133 43 -133h2s19 67 43 133l53 143h201l-138 -279h93v-96h-140l-24 -49v-28h164v-96h-164v-167h-179v167h-163z" />
    <glyph glyph-name="section" unicode="&#xa7;" horiz-adv-x="529" 
d="M143 179l-76 273c-7 26 -10 51 -10 75c0 114 77 200 231 200c73 0 154 -26 207 -77l-74 -108c-34 29 -86 47 -131 47c-55 0 -98 -17 -98 -83c0 -19 3 -41 10 -67l72 -260h-131zM34 15l69 115c33 -31 87 -55 137 -55c53 0 98 23 98 94c0 21 -4 46 -13 77l-68 240h131
l74 -273c7 -26 10 -51 10 -75c0 -114 -77 -200 -231 -200c-72 0 -154 26 -207 77z" />
    <glyph glyph-name="dieresis" unicode="&#xa8;" horiz-adv-x="485" 
d="M284 771v140h126v-140h-126zM75 771v140h126v-140h-126z" />
    <glyph glyph-name="copyright" unicode="&#xa9;" horiz-adv-x="807" 
d="M43 358c0 204 161 368 359 368c202 0 363 -164 363 -368s-161 -370 -363 -370c-198 0 -359 166 -359 370zM156 358c0 -149 107 -267 246 -267c142 0 251 118 251 267c0 148 -109 265 -251 265c-139 0 -246 -117 -246 -265zM232 355c0 106 80 187 172 187
c77 0 138 -44 162 -115l-100 -39c-5 24 -29 49 -58 49c-30 0 -59 -33 -59 -82c0 -54 25 -82 59 -82c28 0 50 23 58 49l100 -39c-16 -56 -74 -115 -162 -115c-92 0 -172 81 -172 187z" />
    <glyph glyph-name="ordfeminine" unicode="&#xaa;" horiz-adv-x="430" 
d="M163 383c-52 0 -105 39 -105 102c0 105 132 109 181 109h5v8c0 27 -21 36 -47 36c-27 0 -57 -12 -80 -27l-38 75c35 26 91 39 138 39c95 0 145 -53 145 -135v-200h-108v39h-2c-14 -27 -48 -46 -89 -46zM198 472c24 0 45 22 45 45v5h-10c-29 0 -58 -7 -58 -30
c0 -14 11 -20 23 -20zM61 268v85h305v-85h-305z" />
    <glyph glyph-name="guillemotleft" unicode="&#xab;" horiz-adv-x="654" 
d="M292 282l164 206h158l-164 -206l164 -205h-158zM196 77l-164 205l164 206h158l-164 -206l164 -205h-158z" />
    <glyph glyph-name="logicalnot" unicode="&#xac;" horiz-adv-x="621" 
d="M47 337v130h506v-335h-135v205h-371z" />
    <glyph glyph-name="registered" unicode="&#xae;" horiz-adv-x="807" 
d="M43 358c0 204 161 368 359 368c202 0 363 -164 363 -368s-161 -370 -363 -370c-198 0 -359 166 -359 370zM156 358c0 -149 107 -267 246 -267c142 0 251 118 251 267c0 148 -109 265 -251 265c-139 0 -246 -117 -246 -265zM272 187v347h163c75 0 122 -45 122 -115
c0 -56 -41 -84 -58 -89v-2s4 -3 13 -20l63 -121h-118l-49 118h-28v-118h-108zM380 377h27c26 0 40 15 40 42c0 28 -14 41 -38 41h-29v-83z" />
    <glyph glyph-name="macron" unicode="&#xaf;" horiz-adv-x="485" 
d="M105 782v112h275v-112h-275z" />
    <glyph glyph-name="degree" unicode="&#xb0;" horiz-adv-x="438" 
d="M219 385c-101 0 -181 76 -181 172c0 94 80 173 181 173c100 0 181 -79 181 -173c0 -96 -81 -172 -181 -172zM219 505c30 0 55 23 55 53c0 28 -25 52 -55 52s-55 -24 -55 -52c0 -30 25 -53 55 -53z" />
    <glyph glyph-name="plusminus" unicode="&#xb1;" horiz-adv-x="600" 
d="M27 222v130h205v223h136v-223h205v-130h-205v-222h-136v222h-205zM37 -70h526v-130h-526v130z" />
    <glyph glyph-name="twosuperior" unicode="&#xb2;" 
d="M37 423c-3 17 -5 34 -5 49c0 179 199 186 199 253c0 23 -22 34 -45 34c-30 0 -54 -24 -71 -45l-83 71c32 53 95 89 163 89c76 0 163 -43 163 -143c0 -139 -175 -158 -185 -200h191v-108h-327z" />
    <glyph glyph-name="threesuperior" unicode="&#xb3;" 
d="M187 413c-58 0 -121 22 -160 68l61 90c21 -26 57 -43 91 -43s54 18 54 42c0 25 -29 36 -62 36h-37l-24 57l62 69c7 9 24 23 24 23v2s-21 -2 -34 -2h-110v109h294v-79l-83 -91c68 -17 97 -66 97 -126c0 -77 -59 -155 -173 -155z" />
    <glyph glyph-name="acute" unicode="&#xb4;" horiz-adv-x="484" 
d="M116 761l81 150h171l-118 -150h-134z" />
    <glyph glyph-name="mu" unicode="&#xb5;" horiz-adv-x="632" 
d="M208 -8c0 0 8 -48 8 -88v-104h-147v715h173v-302c0 -48 19 -68 55 -68c74 0 109 65 109 142v228h173v-515h-166v50c0 10 2 27 2 27h-3s-41 -89 -160 -89c-14 0 -28 1 -42 4h-2z" />
    <glyph glyph-name="mu" unicode="&#x3bc;" horiz-adv-x="632" 
d="M208 -8c0 0 8 -48 8 -88v-104h-147v715h173v-302c0 -48 19 -68 55 -68c74 0 109 65 109 142v228h173v-515h-166v50c0 10 2 27 2 27h-3s-41 -89 -160 -89c-14 0 -28 1 -42 4h-2z" />
    <glyph glyph-name="paragraph" unicode="&#xb6;" horiz-adv-x="671" 
d="M265 -50v291c-129 0 -233 104 -233 238s104 236 233 236h357v-150h-237v-615h-120zM447 -50v565h120v-565h-120z" />
    <glyph glyph-name="periodcentered" unicode="&#xb7;" horiz-adv-x="276" 
d="M59 213v164h158v-164h-158z" />
    <glyph glyph-name="cedilla" unicode="&#xb8;" horiz-adv-x="484" 
d="M164 -82l35 111l72 -17v-7l-10 -41c40 -4 75 -27 75 -80c0 -72 -60 -94 -117 -94c-24 0 -48 3 -71 9v87c11 -6 33 -10 45 -10c22 0 38 7 38 23c0 17 -21 21 -41 21c-13 0 -26 -2 -26 -2z" />
    <glyph glyph-name="onesuperior" unicode="&#xb9;" 
d="M57 423v108h89v143c0 19 3 32 3 32h-2s-5 -10 -11 -15l-24 -22l-72 79l124 116h108v-333h90v-108h-305z" />
    <glyph glyph-name="ordmasculine" unicode="&#xba;" horiz-adv-x="476" 
d="M238 385c-100 0 -182 68 -182 170s82 170 181 170c102 0 184 -68 184 -170s-82 -170 -183 -170zM238 488c34 0 63 25 63 67c0 41 -29 68 -63 68s-63 -27 -63 -68c0 -42 29 -67 63 -67zM69 268v85h338v-85h-338z" />
    <glyph glyph-name="guillemotright" unicode="&#xbb;" horiz-adv-x="654" 
d="M300 77l164 205l-164 206h158l164 -206l-164 -205h-158zM40 77l164 205l-164 206h158l164 -206l-164 -205h-158z" />
    <glyph glyph-name="onequarter" unicode="&#xbc;" horiz-adv-x="1013" 
d="M802 0v87h-197v84l171 270h150v-247h53v-107h-53v-87h-124zM724 194h78v90c0 25 4 50 4 50h-2s-9 -27 -21 -46l-59 -92v-2zM394 0h-119l336 715h119zM53 274v108h89v143c0 19 3 32 3 32h-2s-5 -10 -11 -15l-24 -22l-72 79l124 116h108v-333h90v-108h-305z" />
    <glyph glyph-name="onehalf" unicode="&#xbd;" horiz-adv-x="1004" 
d="M396 0h-119l336 715h119zM51 274v108h89v143c0 19 3 32 3 32h-2s-5 -10 -11 -15l-24 -22l-72 79l124 116h108v-333h90v-108h-305zM640 0c-3 17 -5 34 -5 49c0 179 199 186 199 253c0 23 -22 34 -45 34c-30 0 -54 -24 -71 -45l-83 71c32 53 95 89 163 89
c76 0 163 -43 163 -143c0 -139 -175 -158 -185 -200h191v-108h-327z" />
    <glyph glyph-name="threequarters" unicode="&#xbe;" horiz-adv-x="1020" 
d="M193 264c-58 0 -121 22 -160 68l61 90c21 -26 57 -43 91 -43s54 18 54 42c0 25 -29 36 -62 36h-37l-24 57l62 69c7 9 24 23 24 23v2s-21 -2 -34 -2h-110v109h294v-79l-83 -91c68 -17 97 -66 97 -126c0 -77 -59 -155 -173 -155zM399 0h-119l336 715h119zM807 0v87h-197v84
l171 270h150v-247h53v-107h-53v-87h-124zM729 194h78v90c0 25 4 50 4 50h-2s-9 -27 -21 -46l-59 -92v-2z" />
    <glyph glyph-name="questiondown" unicode="&#xbf;" horiz-adv-x="503" 
d="M371 294v-50c0 -135 -157 -159 -157 -243c0 -34 33 -59 71 -59c36 0 69 20 95 43l96 -117c-43 -43 -113 -83 -209 -83c-112 0 -233 67 -233 196c0 164 171 188 171 277v36h166zM367 515v-150h-158v150h158z" />
    <glyph glyph-name="Agrave" unicode="&#xc0;" horiz-adv-x="664" 
d="M-3 0l243 715h184l243 -715h-180l-44 150h-223l-43 -150h-180zM261 290h141l-40 139c-13 45 -29 123 -29 123h-2s-16 -78 -29 -123zM270 761l-118 150h171l81 -150h-134z" />
    <glyph glyph-name="Aacute" unicode="&#xc1;" horiz-adv-x="664" 
d="M-3 0l243 715h184l243 -715h-180l-44 150h-223l-43 -150h-180zM261 290h141l-40 139c-13 45 -29 123 -29 123h-2s-16 -78 -29 -123zM260 761l81 150h171l-118 -150h-134z" />
    <glyph glyph-name="Acircumflex" unicode="&#xc2;" horiz-adv-x="664" 
d="M-3 0l243 715h184l243 -715h-180l-44 150h-223l-43 -150h-180zM261 290h141l-40 139c-13 45 -29 123 -29 123h-2s-16 -78 -29 -123zM149 761l99 150h168l99 -150h-135l-47 82h-2l-47 -82h-135z" />
    <glyph glyph-name="Atilde" unicode="&#xc3;" horiz-adv-x="664" 
d="M-3 0l243 715h184l243 -715h-180l-44 150h-223l-43 -150h-180zM261 290h141l-40 139c-13 45 -29 123 -29 123h-2s-16 -78 -29 -123zM131 761c0 101 41 153 128 153c67 0 88 -60 126 -60c24 0 37 19 37 57h112c0 -101 -41 -153 -128 -153c-67 0 -88 60 -126 60
c-24 0 -37 -19 -37 -57h-112z" />
    <glyph glyph-name="Adieresis" unicode="&#xc4;" horiz-adv-x="664" 
d="M-3 0l243 715h184l243 -715h-180l-44 150h-223l-43 -150h-180zM261 290h141l-40 139c-13 45 -29 123 -29 123h-2s-16 -78 -29 -123zM374 771v140h126v-140h-126zM165 771v140h126v-140h-126z" />
    <glyph glyph-name="Aring" unicode="&#xc5;" horiz-adv-x="664" 
d="M-3 0l243 715h184l243 -715h-180l-44 150h-223l-43 -150h-180zM261 290h141l-40 139c-13 45 -29 123 -29 123h-2s-16 -78 -29 -123zM332 747c-53 0 -109 26 -109 85s56 86 109 86s110 -27 110 -86s-57 -85 -110 -85zM332 797c21 0 35 14 35 35c0 22 -14 36 -35 36
c-20 0 -34 -14 -34 -36c0 -21 13 -35 34 -35z" />
    <glyph glyph-name="AE" unicode="&#xc6;" horiz-adv-x="949" 
d="M-10 0l299 715h610v-150h-273v-130h218v-150h-218v-135h286v-150h-461v288h-168l-111 -288h-182zM337 428h114v137h-61z" />
    <glyph glyph-name="Ccedilla" unicode="&#xc7;" horiz-adv-x="714" 
d="M334 -82l23 73c-198 23 -320 173 -320 368c0 208 154 368 375 368c96 0 198 -32 268 -101l-81 -132c-46 40 -115 73 -179 73c-143 0 -202 -101 -202 -204c0 -106 64 -215 202 -215c71 0 141 39 190 88l90 -128c-59 -61 -145 -112 -263 -119l-6 -25c40 -4 75 -27 75 -80
c0 -72 -60 -94 -117 -94c-24 0 -48 3 -71 9v87c11 -6 33 -10 45 -10c22 0 38 7 38 23c0 17 -21 21 -41 21c-13 0 -26 -2 -26 -2z" />
    <glyph glyph-name="Egrave" unicode="&#xc8;" horiz-adv-x="574" 
d="M75 0v715h448v-150h-273v-130h218v-150h-218v-135h287v-150h-462zM245 761l-118 150h171l81 -150h-134z" />
    <glyph glyph-name="Eacute" unicode="&#xc9;" horiz-adv-x="574" 
d="M75 0v715h448v-150h-273v-130h218v-150h-218v-135h287v-150h-462zM235 761l81 150h171l-118 -150h-134z" />
    <glyph glyph-name="Ecircumflex" unicode="&#xca;" horiz-adv-x="574" 
d="M75 0v715h448v-150h-273v-130h218v-150h-218v-135h287v-150h-462zM124 761l99 150h168l99 -150h-135l-47 82h-2l-47 -82h-135z" />
    <glyph glyph-name="Edieresis" unicode="&#xcb;" horiz-adv-x="574" 
d="M75 0v715h448v-150h-273v-130h218v-150h-218v-135h287v-150h-462zM349 771v140h126v-140h-126zM140 771v140h126v-140h-126z" />
    <glyph glyph-name="Igrave" unicode="&#xcc;" horiz-adv-x="325" 
d="M75 0v715h175v-715h-175zM101 761l-118 150h171l81 -150h-134z" />
    <glyph glyph-name="Iacute" unicode="&#xcd;" horiz-adv-x="325" 
d="M75 0v715h175v-715h-175zM91 761l81 150h171l-118 -150h-134z" />
    <glyph glyph-name="Icircumflex" unicode="&#xce;" horiz-adv-x="325" 
d="M75 0v715h175v-715h-175zM-20 761l99 150h168l99 -150h-135l-47 82h-2l-47 -82h-135z" />
    <glyph glyph-name="Idieresis" unicode="&#xcf;" horiz-adv-x="325" 
d="M75 0v715h175v-715h-175zM205 771v140h126v-140h-126zM-4 771v140h126v-140h-126z" />
    <glyph glyph-name="Eth" unicode="&#xd0;" horiz-adv-x="742" 
d="M80 0v284h-57v140h57v291h254c225 0 369 -131 369 -356s-144 -359 -369 -359h-254zM255 150h72c121 0 195 72 195 209c0 136 -77 206 -195 206h-72v-141h104v-140h-104v-134z" />
    <glyph glyph-name="Ntilde" unicode="&#xd1;" horiz-adv-x="754" 
d="M75 0v715h177l198 -334c28 -47 60 -122 60 -122h2s-8 77 -8 122v334h175v-715h-176l-199 333c-28 47 -60 122 -60 122h-2s8 -77 8 -122v-333h-175zM176 761c0 101 41 153 128 153c67 0 88 -60 126 -60c24 0 37 19 37 57h112c0 -101 -41 -153 -128 -153
c-67 0 -88 60 -126 60c-24 0 -37 -19 -37 -57h-112z" />
    <glyph glyph-name="Ograve" unicode="&#xd2;" horiz-adv-x="820" 
d="M36 362c0 205 152 365 374 365s374 -160 374 -365c0 -210 -152 -374 -374 -374s-374 164 -374 374zM217 362c0 -122 80 -214 193 -214s193 92 193 214c0 117 -80 205 -193 205s-193 -88 -193 -205zM348 761l-118 150h171l81 -150h-134z" />
    <glyph glyph-name="Oacute" unicode="&#xd3;" horiz-adv-x="820" 
d="M36 362c0 205 152 365 374 365s374 -160 374 -365c0 -210 -152 -374 -374 -374s-374 164 -374 374zM217 362c0 -122 80 -214 193 -214s193 92 193 214c0 117 -80 205 -193 205s-193 -88 -193 -205zM338 761l81 150h171l-118 -150h-134z" />
    <glyph glyph-name="Ocircumflex" unicode="&#xd4;" horiz-adv-x="820" 
d="M36 362c0 205 152 365 374 365s374 -160 374 -365c0 -210 -152 -374 -374 -374s-374 164 -374 374zM217 362c0 -122 80 -214 193 -214s193 92 193 214c0 117 -80 205 -193 205s-193 -88 -193 -205zM227 761l99 150h168l99 -150h-135l-47 82h-2l-47 -82h-135z" />
    <glyph glyph-name="Otilde" unicode="&#xd5;" horiz-adv-x="820" 
d="M36 362c0 205 152 365 374 365s374 -160 374 -365c0 -210 -152 -374 -374 -374s-374 164 -374 374zM217 362c0 -122 80 -214 193 -214s193 92 193 214c0 117 -80 205 -193 205s-193 -88 -193 -205zM209 761c0 101 41 153 128 153c67 0 88 -60 126 -60c24 0 37 19 37 57
h112c0 -101 -41 -153 -128 -153c-67 0 -88 60 -126 60c-24 0 -37 -19 -37 -57h-112z" />
    <glyph glyph-name="Odieresis" unicode="&#xd6;" horiz-adv-x="820" 
d="M36 362c0 205 152 365 374 365s374 -160 374 -365c0 -210 -152 -374 -374 -374s-374 164 -374 374zM217 362c0 -122 80 -214 193 -214s193 92 193 214c0 117 -80 205 -193 205s-193 -88 -193 -205zM452 771v140h126v-140h-126zM243 771v140h126v-140h-126z" />
    <glyph glyph-name="multiply" unicode="&#xd7;" horiz-adv-x="600" 
d="M28 92l182 195l-182 196l92 92l179 -192l180 192l92 -92l-183 -196l183 -195l-92 -92l-180 192l-179 -192z" />
    <glyph glyph-name="Oslash" unicode="&#xd8;" horiz-adv-x="819" 
d="M104 20l48 66c-73 68 -116 165 -116 276c0 205 158 365 374 365c65 0 125 -14 176 -40l41 56l70 -47l-40 -55c79 -67 127 -166 127 -279c0 -210 -158 -374 -374 -374c-71 0 -135 17 -190 48l-46 -64zM256 230l232 320c-24 11 -50 17 -78 17c-107 0 -193 -86 -193 -205
c0 -51 14 -97 39 -132zM318 172c27 -15 59 -24 92 -24c107 0 193 90 193 214c0 54 -18 102 -48 137z" />
    <glyph glyph-name="Ugrave" unicode="&#xd9;" horiz-adv-x="732" 
d="M67 263v452h175v-452c0 -75 49 -115 124 -115s124 40 124 115v452h175v-452c0 -161 -118 -275 -298 -275c-182 0 -300 114 -300 275zM304 761l-118 150h171l81 -150h-134z" />
    <glyph glyph-name="Uacute" unicode="&#xda;" horiz-adv-x="732" 
d="M67 263v452h175v-452c0 -75 49 -115 124 -115s124 40 124 115v452h175v-452c0 -161 -118 -275 -298 -275c-182 0 -300 114 -300 275zM294 761l81 150h171l-118 -150h-134z" />
    <glyph glyph-name="Ucircumflex" unicode="&#xdb;" horiz-adv-x="732" 
d="M67 263v452h175v-452c0 -75 49 -115 124 -115s124 40 124 115v452h175v-452c0 -161 -118 -275 -298 -275c-182 0 -300 114 -300 275zM183 761l99 150h168l99 -150h-135l-47 82h-2l-47 -82h-135z" />
    <glyph glyph-name="Udieresis" unicode="&#xdc;" horiz-adv-x="732" 
d="M67 263v452h175v-452c0 -75 49 -115 124 -115s124 40 124 115v452h175v-452c0 -161 -118 -275 -298 -275c-182 0 -300 114 -300 275zM408 771v140h126v-140h-126zM199 771v140h126v-140h-126z" />
    <glyph glyph-name="Yacute" unicode="&#xdd;" horiz-adv-x="627" 
d="M226 0v293l-236 422h199l81 -172c23 -49 43 -103 43 -103h2s20 54 43 103l80 172h199l-236 -422v-293h-175zM242 761l81 150h171l-118 -150h-134z" />
    <glyph glyph-name="Thorn" unicode="&#xde;" horiz-adv-x="629" 
d="M75 0v715h175v-106h122c139 0 233 -102 233 -246s-94 -248 -233 -248h-122v-115h-175zM250 265h86c61 0 91 41 91 98s-30 96 -88 96h-89v-194z" />
    <glyph glyph-name="germandbls" unicode="&#xdf;" horiz-adv-x="624" 
d="M58 0v527c0 132 125 200 255 200c121 0 231 -77 231 -193c0 -81 -72 -105 -72 -160c0 -49 134 -79 134 -206c0 -117 -92 -175 -194 -175c-40 0 -87 4 -124 21v142c29 -11 61 -19 95 -19c26 0 50 9 50 42c0 46 -135 80 -135 191c0 74 72 108 72 160c0 31 -23 53 -62 53
c-41 0 -77 -16 -77 -68v-515h-173z" />
    <glyph glyph-name="agrave" unicode="&#xe0;" horiz-adv-x="553" 
d="M22 145c0 138 164 176 291 176h15v9c0 43 -35 57 -73 57c-50 0 -101 -22 -142 -49l-60 122c44 34 134 67 218 67c142 0 230 -79 230 -210v-317h-158v31c0 17 2 32 2 32h-2c-34 -48 -94 -75 -153 -75c-99 0 -168 68 -168 157zM193 161c0 -24 17 -44 49 -44
c50 0 88 49 88 91v14h-16c-53 0 -121 -14 -121 -61zM215 565l-118 150h171l81 -150h-134z" />
    <glyph glyph-name="aacute" unicode="&#xe1;" horiz-adv-x="553" 
d="M22 145c0 138 164 176 291 176h15v9c0 43 -35 57 -73 57c-50 0 -101 -22 -142 -49l-60 122c44 34 134 67 218 67c142 0 230 -79 230 -210v-317h-158v31c0 17 2 32 2 32h-2c-34 -48 -94 -75 -153 -75c-99 0 -168 68 -168 157zM193 161c0 -24 17 -44 49 -44
c50 0 88 49 88 91v14h-16c-53 0 -121 -14 -121 -61zM204 565l81 150h171l-118 -150h-134z" />
    <glyph glyph-name="acircumflex" unicode="&#xe2;" horiz-adv-x="553" 
d="M22 145c0 138 164 176 291 176h15v9c0 43 -35 57 -73 57c-50 0 -101 -22 -142 -49l-60 122c44 34 134 67 218 67c142 0 230 -79 230 -210v-317h-158v31c0 17 2 32 2 32h-2c-34 -48 -94 -75 -153 -75c-99 0 -168 68 -168 157zM193 161c0 -24 17 -44 49 -44
c50 0 88 49 88 91v14h-16c-53 0 -121 -14 -121 -61zM93 565l99 150h168l99 -150h-135l-47 82h-2l-47 -82h-135z" />
    <glyph glyph-name="atilde" unicode="&#xe3;" horiz-adv-x="553" 
d="M22 145c0 138 164 176 291 176h15v9c0 43 -35 57 -73 57c-50 0 -101 -22 -142 -49l-60 122c44 34 134 67 218 67c142 0 230 -79 230 -210v-317h-158v31c0 17 2 32 2 32h-2c-34 -48 -94 -75 -153 -75c-99 0 -168 68 -168 157zM193 161c0 -24 17 -44 49 -44
c50 0 88 49 88 91v14h-16c-53 0 -121 -14 -121 -61zM75 565c0 101 41 153 128 153c67 0 88 -60 126 -60c24 0 37 19 37 57h112c0 -101 -41 -153 -128 -153c-67 0 -88 60 -126 60c-24 0 -37 -19 -37 -57h-112z" />
    <glyph glyph-name="adieresis" unicode="&#xe4;" horiz-adv-x="553" 
d="M22 145c0 138 164 176 291 176h15v9c0 43 -35 57 -73 57c-50 0 -101 -22 -142 -49l-60 122c44 34 134 67 218 67c142 0 230 -79 230 -210v-317h-158v31c0 17 2 32 2 32h-2c-34 -48 -94 -75 -153 -75c-99 0 -168 68 -168 157zM193 161c0 -24 17 -44 49 -44
c50 0 88 49 88 91v14h-16c-53 0 -121 -14 -121 -61zM318 575v140h126v-140h-126zM109 575v140h126v-140h-126z" />
    <glyph glyph-name="aring" unicode="&#xe5;" horiz-adv-x="553" 
d="M22 145c0 138 164 176 291 176h15v9c0 43 -35 57 -73 57c-50 0 -101 -22 -142 -49l-60 122c44 34 134 67 218 67c142 0 230 -79 230 -210v-317h-158v31c0 17 2 32 2 32h-2c-34 -48 -94 -75 -153 -75c-99 0 -168 68 -168 157zM193 161c0 -24 17 -44 49 -44
c50 0 88 49 88 91v14h-16c-53 0 -121 -14 -121 -61zM276 551c-53 0 -109 26 -109 85s56 86 109 86s110 -27 110 -86s-57 -85 -110 -85zM276 601c21 0 35 14 35 35c0 22 -14 36 -35 36c-20 0 -34 -14 -34 -36c0 -21 13 -35 34 -35z" />
    <glyph glyph-name="ae" unicode="&#xe6;" horiz-adv-x="853" 
d="M22 154c0 154 219 169 302 169h4v7c0 43 -33 57 -76 57c-46 0 -100 -23 -140 -49l-60 121c47 37 135 68 213 68c80 0 127 -19 163 -51h2c39 32 88 51 154 51c147 0 238 -108 238 -254c0 -16 -2 -31 -4 -49h-325c13 -65 65 -92 120 -92c50 0 102 22 142 51l64 -120
c-51 -46 -142 -75 -220 -75c-99 0 -162 35 -207 90h-2c-13 -23 -71 -89 -193 -89c-96 0 -175 64 -175 165zM497 323h151c0 37 -26 74 -64 74c-50 0 -76 -31 -87 -74zM196 163c0 -24 15 -43 51 -43c47 0 84 50 84 92v12h-17c-55 0 -118 -20 -118 -61z" />
    <glyph glyph-name="ccedilla" unicode="&#xe7;" horiz-adv-x="552" 
d="M235 -82l23 75c-147 23 -229 138 -229 265c0 138 102 269 287 269c72 0 154 -23 205 -78l-73 -116c-30 29 -76 50 -121 50c-82 0 -123 -62 -123 -123s42 -128 129 -128c50 0 104 30 141 62l63 -121c-47 -48 -121 -79 -199 -84l-6 -25c40 -4 75 -27 75 -80
c0 -72 -60 -94 -117 -94c-24 0 -48 3 -71 9v87c11 -6 33 -10 45 -10c22 0 38 7 38 23c0 17 -21 21 -41 21c-13 0 -26 -2 -26 -2z" />
    <glyph glyph-name="egrave" unicode="&#xe8;" horiz-adv-x="567" 
d="M29 258c0 151 102 269 268 269c152 0 238 -106 238 -249c0 -18 -2 -36 -4 -54h-325c13 -63 65 -92 120 -92c51 0 100 24 142 52l64 -121c-56 -48 -141 -75 -220 -75c-184 0 -283 133 -283 270zM210 323h154c0 42 -27 77 -71 77c-50 0 -74 -36 -83 -77zM232 565l-118 150
h171l81 -150h-134z" />
    <glyph glyph-name="eacute" unicode="&#xe9;" horiz-adv-x="567" 
d="M29 258c0 151 102 269 268 269c152 0 238 -106 238 -249c0 -18 -2 -36 -4 -54h-325c13 -63 65 -92 120 -92c51 0 100 24 142 52l64 -121c-56 -48 -141 -75 -220 -75c-184 0 -283 133 -283 270zM210 323h154c0 42 -27 77 -71 77c-50 0 -74 -36 -83 -77zM221 565l81 150
h171l-118 -150h-134z" />
    <glyph glyph-name="ecircumflex" unicode="&#xea;" horiz-adv-x="567" 
d="M29 258c0 151 102 269 268 269c152 0 238 -106 238 -249c0 -18 -2 -36 -4 -54h-325c13 -63 65 -92 120 -92c51 0 100 24 142 52l64 -121c-56 -48 -141 -75 -220 -75c-184 0 -283 133 -283 270zM210 323h154c0 42 -27 77 -71 77c-50 0 -74 -36 -83 -77zM110 565l99 150
h168l99 -150h-135l-47 82h-2l-47 -82h-135z" />
    <glyph glyph-name="edieresis" unicode="&#xeb;" horiz-adv-x="567" 
d="M29 258c0 151 102 269 268 269c152 0 238 -106 238 -249c0 -18 -2 -36 -4 -54h-325c13 -63 65 -92 120 -92c51 0 100 24 142 52l64 -121c-56 -48 -141 -75 -220 -75c-184 0 -283 133 -283 270zM210 323h154c0 42 -27 77 -71 77c-50 0 -74 -36 -83 -77zM335 575v140h126
v-140h-126zM126 575v140h126v-140h-126z" />
    <glyph glyph-name="igrave" unicode="&#xec;" horiz-adv-x="289" 
d="M58 0v515h173v-515h-173zM82 565l-118 150h171l81 -150h-134z" />
    <glyph glyph-name="iacute" unicode="&#xed;" horiz-adv-x="289" 
d="M58 0v515h173v-515h-173zM72 565l81 150h171l-118 -150h-134z" />
    <glyph glyph-name="icircumflex" unicode="&#xee;" horiz-adv-x="289" 
d="M58 0v515h173v-515h-173zM-39 565l99 150h168l99 -150h-135l-47 82h-2l-47 -82h-135z" />
    <glyph glyph-name="idieresis" unicode="&#xef;" horiz-adv-x="289" 
d="M58 0v515h173v-515h-173zM186 575v140h126v-140h-126zM-23 575v140h126v-140h-126z" />
    <glyph glyph-name="eth" unicode="&#xf0;" horiz-adv-x="587" 
d="M30 241c0 116 87 223 231 223c39 0 69 -9 69 -9h2c-14 21 -40 46 -70 63l-192 -79v95l92 39c-33 14 -68 25 -95 30l48 135c86 -18 165 -48 232 -89l161 67v-95l-81 -34c79 -76 127 -177 127 -304c0 -138 -69 -295 -270 -295c-162 0 -254 123 -254 253zM204 236
c0 -53 22 -104 83 -104c69 0 93 61 93 118c0 48 -30 82 -83 82c-63 0 -93 -45 -93 -96z" />
    <glyph glyph-name="ntilde" unicode="&#xf1;" horiz-adv-x="626" 
d="M58 0v515h166v-45c0 -17 -2 -32 -2 -32h2c24 40 73 89 164 89c104 0 185 -48 185 -193v-334h-173v302c0 48 -19 68 -57 68c-77 0 -112 -64 -112 -137v-233h-173zM118 565c0 101 41 153 128 153c67 0 88 -60 126 -60c24 0 37 19 37 57h112c0 -101 -41 -153 -128 -153
c-67 0 -88 60 -126 60c-24 0 -37 -19 -37 -57h-112z" />
    <glyph glyph-name="ograve" unicode="&#xf2;" horiz-adv-x="642" 
d="M29 256c0 162 130 271 291 271c163 0 293 -109 293 -271c0 -161 -130 -268 -292 -268s-292 107 -292 268zM204 256c0 -77 54 -124 117 -124s117 47 117 124c0 78 -54 127 -117 127s-117 -49 -117 -127zM259 565l-118 150h171l81 -150h-134z" />
    <glyph glyph-name="oacute" unicode="&#xf3;" horiz-adv-x="642" 
d="M29 256c0 162 130 271 291 271c163 0 293 -109 293 -271c0 -161 -130 -268 -292 -268s-292 107 -292 268zM204 256c0 -77 54 -124 117 -124s117 47 117 124c0 78 -54 127 -117 127s-117 -49 -117 -127zM249 565l81 150h171l-118 -150h-134z" />
    <glyph glyph-name="ocircumflex" unicode="&#xf4;" horiz-adv-x="642" 
d="M29 256c0 162 130 271 291 271c163 0 293 -109 293 -271c0 -161 -130 -268 -292 -268s-292 107 -292 268zM204 256c0 -77 54 -124 117 -124s117 47 117 124c0 78 -54 127 -117 127s-117 -49 -117 -127zM138 565l99 150h168l99 -150h-135l-47 82h-2l-47 -82h-135z" />
    <glyph glyph-name="otilde" unicode="&#xf5;" horiz-adv-x="642" 
d="M29 256c0 162 130 271 291 271c163 0 293 -109 293 -271c0 -161 -130 -268 -292 -268s-292 107 -292 268zM204 256c0 -77 54 -124 117 -124s117 47 117 124c0 78 -54 127 -117 127s-117 -49 -117 -127zM120 565c0 101 41 153 128 153c67 0 88 -60 126 -60
c24 0 37 19 37 57h112c0 -101 -41 -153 -128 -153c-67 0 -88 60 -126 60c-24 0 -37 -19 -37 -57h-112z" />
    <glyph glyph-name="odieresis" unicode="&#xf6;" horiz-adv-x="642" 
d="M29 256c0 162 130 271 291 271c163 0 293 -109 293 -271c0 -161 -130 -268 -292 -268s-292 107 -292 268zM204 256c0 -77 54 -124 117 -124s117 47 117 124c0 78 -54 127 -117 127s-117 -49 -117 -127zM363 575v140h126v-140h-126zM154 575v140h126v-140h-126z" />
    <glyph glyph-name="divide" unicode="&#xf7;" horiz-adv-x="600" 
d="M227 440v135h146v-135h-146zM27 222v130h546v-130h-546zM227 0v135h146v-135h-146z" />
    <glyph glyph-name="oslash" unicode="&#xf8;" horiz-adv-x="642" 
d="M87 -4l39 55c-60 47 -97 118 -97 205c0 162 130 271 291 271c47 0 91 -9 131 -26l42 58l66 -45l-40 -55c58 -48 94 -118 94 -203c0 -161 -130 -268 -292 -268c-45 0 -87 8 -124 23l-44 -61zM223 185l138 191c-13 4 -26 7 -40 7c-63 0 -117 -49 -117 -127
c0 -28 7 -52 19 -71zM287 136c11 -3 22 -4 34 -4c63 0 117 47 117 124c0 26 -6 48 -16 67z" />
    <glyph glyph-name="ugrave" unicode="&#xf9;" horiz-adv-x="621" 
d="M53 181v334h173v-302c0 -48 19 -68 55 -68c74 0 109 65 109 142v228h173v-515h-166v45c0 17 2 32 2 32h-2c-28 -55 -92 -89 -161 -89c-102 0 -183 48 -183 193zM246 565l-118 150h171l81 -150h-134z" />
    <glyph glyph-name="uacute" unicode="&#xfa;" horiz-adv-x="621" 
d="M53 181v334h173v-302c0 -48 19 -68 55 -68c74 0 109 65 109 142v228h173v-515h-166v45c0 17 2 32 2 32h-2c-28 -55 -92 -89 -161 -89c-102 0 -183 48 -183 193zM236 565l81 150h171l-118 -150h-134z" />
    <glyph glyph-name="ucircumflex" unicode="&#xfb;" horiz-adv-x="621" 
d="M53 181v334h173v-302c0 -48 19 -68 55 -68c74 0 109 65 109 142v228h173v-515h-166v45c0 17 2 32 2 32h-2c-28 -55 -92 -89 -161 -89c-102 0 -183 48 -183 193zM125 565l99 150h168l99 -150h-135l-47 82h-2l-47 -82h-135z" />
    <glyph glyph-name="udieresis" unicode="&#xfc;" horiz-adv-x="621" 
d="M53 181v334h173v-302c0 -48 19 -68 55 -68c74 0 109 65 109 142v228h173v-515h-166v45c0 17 2 32 2 32h-2c-28 -55 -92 -89 -161 -89c-102 0 -183 48 -183 193zM350 575v140h126v-140h-126zM141 575v140h126v-140h-126z" />
    <glyph glyph-name="yacute" unicode="&#xfd;" horiz-adv-x="561" 
d="M63 -47c0 0 28 -19 53 -19c28 0 65 8 83 52l10 24l-219 505h196l76 -237c9 -28 19 -80 19 -80h2s10 49 17 77l65 240h189l-211 -570c-43 -115 -133 -155 -215 -155c-68 0 -120 36 -120 36zM210 564l81 150h171l-118 -150h-134z" />
    <glyph glyph-name="thorn" unicode="&#xfe;" horiz-adv-x="631" 
d="M58 -200v915h173v-197c0 -26 -2 -44 -2 -44h2c31 34 72 53 134 53c142 0 236 -117 236 -269s-94 -270 -236 -270c-45 0 -101 11 -134 48h-2s2 -18 2 -44v-192h-173zM226 257c0 -95 46 -125 104 -125c60 0 97 58 97 126s-37 125 -97 125c-58 0 -104 -31 -104 -126z" />
    <glyph glyph-name="ydieresis" unicode="&#xff;" horiz-adv-x="561" 
d="M63 -47c0 0 28 -19 53 -19c28 0 65 8 83 52l10 24l-219 505h196l76 -237c9 -28 19 -80 19 -80h2s10 49 17 77l65 240h189l-211 -570c-43 -115 -133 -155 -215 -155c-68 0 -120 36 -120 36zM324 574v140h126v-140h-126zM115 574v140h126v-140h-126z" />
    <glyph glyph-name="Amacron" unicode="&#x100;" horiz-adv-x="664" 
d="M-3 0l243 715h184l243 -715h-180l-44 150h-223l-43 -150h-180zM261 290h141l-40 139c-13 45 -29 123 -29 123h-2s-16 -78 -29 -123zM195 782v112h275v-112h-275z" />
    <glyph glyph-name="amacron" unicode="&#x101;" horiz-adv-x="553" 
d="M22 145c0 138 164 176 291 176h15v9c0 43 -35 57 -73 57c-50 0 -101 -22 -142 -49l-60 122c44 34 134 67 218 67c142 0 230 -79 230 -210v-317h-158v31c0 17 2 32 2 32h-2c-34 -48 -94 -75 -153 -75c-99 0 -168 68 -168 157zM193 161c0 -24 17 -44 49 -44
c50 0 88 49 88 91v14h-16c-53 0 -121 -14 -121 -61zM139 586v112h275v-112h-275z" />
    <glyph glyph-name="Abreve" unicode="&#x102;" horiz-adv-x="664" 
d="M-3 0l243 715h184l243 -715h-180l-44 150h-223l-43 -150h-180zM261 290h141l-40 139c-13 45 -29 123 -29 123h-2s-16 -78 -29 -123zM332 756c-93 0 -174 52 -174 145v10h117v-11c0 -40 30 -58 57 -58s57 18 57 58v11h117v-10c0 -93 -81 -145 -174 -145z" />
    <glyph glyph-name="abreve" unicode="&#x103;" horiz-adv-x="553" 
d="M22 145c0 138 164 176 291 176h15v9c0 43 -35 57 -73 57c-50 0 -101 -22 -142 -49l-60 122c44 34 134 67 218 67c142 0 230 -79 230 -210v-317h-158v31c0 17 2 32 2 32h-2c-34 -48 -94 -75 -153 -75c-99 0 -168 68 -168 157zM193 161c0 -24 17 -44 49 -44
c50 0 88 49 88 91v14h-16c-53 0 -121 -14 -121 -61zM276 560c-93 0 -174 52 -174 145v10h117v-11c0 -40 30 -58 57 -58s57 18 57 58v11h117v-10c0 -93 -81 -145 -174 -145z" />
    <glyph glyph-name="Aogonek" unicode="&#x104;" horiz-adv-x="664" 
d="M-3 0l243 715h184l243 -715c-17 -16 -43 -43 -43 -61c0 -22 38 -25 38 -25l-42 -124s-133 13 -133 99c0 47 35 86 64 111h-64l-44 150h-223l-43 -150h-180zM261 290h141l-40 139c-13 45 -29 123 -29 123h-2s-16 -78 -29 -123z" />
    <glyph glyph-name="aogonek" unicode="&#x105;" horiz-adv-x="553" 
d="M22 145c0 138 164 176 291 176h15v9c0 43 -35 57 -73 57c-50 0 -101 -22 -142 -49l-60 122c44 34 134 67 218 67c142 0 230 -79 230 -210v-317c-17 -16 -43 -43 -43 -61c0 -22 38 -25 38 -25l-42 -124s-133 13 -133 99c0 47 35 86 64 111h-42v31c0 17 2 32 2 32h-2
c-34 -48 -94 -75 -153 -75c-99 0 -168 68 -168 157zM193 161c0 -24 17 -44 49 -44c50 0 88 49 88 91v14h-16c-53 0 -121 -14 -121 -61z" />
    <glyph glyph-name="Cacute" unicode="&#x106;" horiz-adv-x="714" 
d="M37 359c0 208 154 368 375 368c96 0 198 -32 268 -101l-81 -132c-46 40 -115 73 -179 73c-143 0 -202 -101 -202 -204c0 -106 64 -215 202 -215c71 0 141 39 190 88l90 -128c-63 -65 -157 -120 -288 -120c-230 0 -375 159 -375 371zM330 761l81 150h171l-118 -150h-134z
" />
    <glyph glyph-name="cacute" unicode="&#x107;" horiz-adv-x="552" 
d="M29 258c0 138 102 269 287 269c72 0 154 -23 205 -78l-73 -116c-30 29 -76 50 -121 50c-82 0 -123 -62 -123 -123s42 -128 129 -128c50 0 104 30 141 62l63 -121c-51 -52 -135 -85 -221 -85c-184 0 -287 128 -287 270zM224 565l81 150h171l-118 -150h-134z" />
    <glyph glyph-name="Ccircumflex" unicode="&#x108;" horiz-adv-x="714" 
d="M37 359c0 208 154 368 375 368c96 0 198 -32 268 -101l-81 -132c-46 40 -115 73 -179 73c-143 0 -202 -101 -202 -204c0 -106 64 -215 202 -215c71 0 141 39 190 88l90 -128c-63 -65 -157 -120 -288 -120c-230 0 -375 159 -375 371zM219 761l99 150h168l99 -150h-135
l-47 82h-2l-47 -82h-135z" />
    <glyph glyph-name="ccircumflex" unicode="&#x109;" horiz-adv-x="552" 
d="M29 258c0 138 102 269 287 269c72 0 154 -23 205 -78l-73 -116c-30 29 -76 50 -121 50c-82 0 -123 -62 -123 -123s42 -128 129 -128c50 0 104 30 141 62l63 -121c-51 -52 -135 -85 -221 -85c-184 0 -287 128 -287 270zM113 565l99 150h168l99 -150h-135l-47 82h-2
l-47 -82h-135z" />
    <glyph glyph-name="Cdotaccent" unicode="&#x10a;" horiz-adv-x="714" 
d="M37 359c0 208 154 368 375 368c96 0 198 -32 268 -101l-81 -132c-46 40 -115 73 -179 73c-143 0 -202 -101 -202 -204c0 -106 64 -215 202 -215c71 0 141 39 190 88l90 -128c-63 -65 -157 -120 -288 -120c-230 0 -375 159 -375 371zM331 779v132h143v-132h-143z" />
    <glyph glyph-name="cdotaccent" unicode="&#x10b;" horiz-adv-x="552" 
d="M29 258c0 138 102 269 287 269c72 0 154 -23 205 -78l-73 -116c-30 29 -76 50 -121 50c-82 0 -123 -62 -123 -123s42 -128 129 -128c50 0 104 30 141 62l63 -121c-51 -52 -135 -85 -221 -85c-184 0 -287 128 -287 270zM225 583v132h143v-132h-143z" />
    <glyph glyph-name="Ccaron" unicode="&#x10c;" horiz-adv-x="714" 
d="M37 359c0 208 154 368 375 368c96 0 198 -32 268 -101l-81 -132c-46 40 -115 73 -179 73c-143 0 -202 -101 -202 -204c0 -106 64 -215 202 -215c71 0 141 39 190 88l90 -128c-63 -65 -157 -120 -288 -120c-230 0 -375 159 -375 371zM318 761l-99 150h135l47 -82h2l47 82
h135l-99 -150h-168z" />
    <glyph glyph-name="ccaron" unicode="&#x10d;" horiz-adv-x="552" 
d="M29 258c0 138 102 269 287 269c72 0 154 -23 205 -78l-73 -116c-30 29 -76 50 -121 50c-82 0 -123 -62 -123 -123s42 -128 129 -128c50 0 104 30 141 62l63 -121c-51 -52 -135 -85 -221 -85c-184 0 -287 128 -287 270zM212 565l-99 150h135l47 -82h2l47 82h135l-99 -150
h-168z" />
    <glyph glyph-name="Dcaron" unicode="&#x10e;" horiz-adv-x="737" 
d="M75 0v715h254c225 0 369 -131 369 -356s-144 -359 -369 -359h-254zM250 150h72c121 0 195 72 195 209c0 136 -77 206 -195 206h-72v-415zM259 761l-99 150h135l47 -82h2l47 82h135l-99 -150h-168z" />
    <glyph glyph-name="dcaron" unicode="&#x10f;" horiz-adv-x="653" 
d="M31 258c0 163 98 269 235 269c46 0 101 -7 135 -41h2s-1 10 -1 23v206h173v-715h-162v34c0 16 1 29 1 29h-2c-32 -49 -88 -75 -149 -75c-140 0 -232 110 -232 270zM205 258c0 -77 41 -127 101 -127c52 0 101 38 101 127c0 62 -33 123 -101 123c-54 0 -101 -44 -101 -123z
M621 715h136c5 -21 7 -39 7 -58c0 -35 -9 -65 -28 -103h-123c12 35 20 63 20 93c0 19 -3 42 -12 68z" />
    <glyph glyph-name="Dcroat" unicode="&#x110;" horiz-adv-x="742" 
d="M80 0v284h-57v140h57v291h254c225 0 369 -131 369 -356s-144 -359 -369 -359h-254zM255 150h72c121 0 195 72 195 209c0 136 -77 206 -195 206h-72v-141h104v-140h-104v-134z" />
    <glyph glyph-name="dcroat" unicode="&#x111;" horiz-adv-x="633" 
d="M31 258c0 163 98 269 235 269c43 0 102 -7 135 -41h2s-1 10 -1 23v45h-126v95h126v66h173v-66h66v-95h-66v-554h-162v34c0 16 1 29 1 29h-2c-39 -55 -93 -75 -149 -75c-140 0 -232 110 -232 270zM205 258c0 -77 41 -127 101 -127c52 0 101 38 101 127
c0 62 -33 123 -101 123c-54 0 -101 -44 -101 -123z" />
    <glyph glyph-name="Emacron" unicode="&#x112;" horiz-adv-x="574" 
d="M75 0v715h448v-150h-273v-130h218v-150h-218v-135h287v-150h-462zM170 782v112h275v-112h-275z" />
    <glyph glyph-name="emacron" unicode="&#x113;" horiz-adv-x="567" 
d="M29 258c0 151 102 269 268 269c152 0 238 -106 238 -249c0 -18 -2 -36 -4 -54h-325c13 -63 65 -92 120 -92c51 0 100 24 142 52l64 -121c-56 -48 -141 -75 -220 -75c-184 0 -283 133 -283 270zM210 323h154c0 42 -27 77 -71 77c-50 0 -74 -36 -83 -77zM156 586v112h275
v-112h-275z" />
    <glyph glyph-name="Ebreve" unicode="&#x114;" horiz-adv-x="574" 
d="M75 0v715h448v-150h-273v-130h218v-150h-218v-135h287v-150h-462zM307 756c-93 0 -174 52 -174 145v10h117v-11c0 -40 30 -58 57 -58s57 18 57 58v11h117v-10c0 -93 -81 -145 -174 -145z" />
    <glyph glyph-name="ebreve" unicode="&#x115;" horiz-adv-x="567" 
d="M29 258c0 151 102 269 268 269c152 0 238 -106 238 -249c0 -18 -2 -36 -4 -54h-325c13 -63 65 -92 120 -92c51 0 100 24 142 52l64 -121c-56 -48 -141 -75 -220 -75c-184 0 -283 133 -283 270zM210 323h154c0 42 -27 77 -71 77c-50 0 -74 -36 -83 -77zM293 560
c-93 0 -174 52 -174 145v10h117v-11c0 -40 30 -58 57 -58s57 18 57 58v11h117v-10c0 -93 -81 -145 -174 -145z" />
    <glyph glyph-name="Edotaccent" unicode="&#x116;" horiz-adv-x="574" 
d="M75 0v715h448v-150h-273v-130h218v-150h-218v-135h287v-150h-462zM236 779v132h143v-132h-143z" />
    <glyph glyph-name="edotaccent" unicode="&#x117;" horiz-adv-x="567" 
d="M29 258c0 151 102 269 268 269c152 0 238 -106 238 -249c0 -18 -2 -36 -4 -54h-325c13 -63 65 -92 120 -92c51 0 100 24 142 52l64 -121c-56 -48 -141 -75 -220 -75c-184 0 -283 133 -283 270zM210 323h154c0 42 -27 77 -71 77c-50 0 -74 -36 -83 -77zM222 583v132h143
v-132h-143z" />
    <glyph glyph-name="Eogonek" unicode="&#x118;" horiz-adv-x="574" 
d="M75 0v715h448v-150h-273v-130h218v-150h-218v-135h287v-150c-17 -16 -43 -43 -43 -61c0 -22 38 -25 38 -25l-42 -124s-133 13 -133 99c0 51 41 89 69 111h-351z" />
    <glyph glyph-name="eogonek" unicode="&#x119;" horiz-adv-x="567" 
d="M29 258c0 151 102 269 268 269c152 0 238 -106 238 -249c0 -17 -4 -54 -4 -54h-325c13 -63 65 -92 120 -92c51 0 101 23 142 52l63 -120c-31 -32 -107 -69 -107 -125c0 -22 38 -25 38 -25l-42 -124s-133 13 -133 99c0 44 31 77 66 103c-13 -2 -27 -4 -41 -4
c-184 0 -283 133 -283 270zM210 323h154c0 39 -25 77 -71 77c-52 0 -74 -39 -83 -77z" />
    <glyph glyph-name="Ecaron" unicode="&#x11a;" horiz-adv-x="574" 
d="M75 0v715h448v-150h-273v-130h218v-150h-218v-135h287v-150h-462zM223 761l-99 150h135l47 -82h2l47 82h135l-99 -150h-168z" />
    <glyph glyph-name="ecaron" unicode="&#x11b;" horiz-adv-x="567" 
d="M29 258c0 151 102 269 268 269c152 0 238 -106 238 -249c0 -18 -2 -36 -4 -54h-325c13 -63 65 -92 120 -92c51 0 100 24 142 52l64 -121c-56 -48 -141 -75 -220 -75c-184 0 -283 133 -283 270zM210 323h154c0 42 -27 77 -71 77c-50 0 -74 -36 -83 -77zM209 565l-99 150
h135l47 -82h2l47 82h135l-99 -150h-168z" />
    <glyph glyph-name="Gcircumflex" unicode="&#x11c;" horiz-adv-x="773" 
d="M37 359c0 208 157 368 375 368c97 0 199 -28 275 -95l-84 -131c-41 37 -113 66 -174 66c-150 0 -211 -96 -211 -202c0 -136 94 -217 205 -217c52 0 104 20 145 52v55h-101v149h256v-404h-146v20c0 15 1 30 1 30h-2c-43 -38 -118 -62 -188 -62c-183 0 -351 137 -351 371z
M219 761l99 150h168l99 -150h-135l-47 82h-2l-47 -82h-135z" />
    <glyph glyph-name="gcircumflex" unicode="&#x11d;" horiz-adv-x="625" 
d="M130 -33c43 -21 93 -33 145 -33c62 0 119 23 119 99v17c0 6 1 19 1 19h-2c-30 -36 -69 -54 -129 -54c-155 0 -232 127 -232 259c0 131 75 253 231 253c49 0 104 -14 140 -50h3s-1 6 -1 12v26h162v-468c0 -188 -150 -257 -291 -257c-69 0 -145 20 -195 46zM206 280
c0 -64 30 -121 99 -121c45 0 93 23 93 113c0 91 -48 111 -100 111c-61 0 -92 -44 -92 -103zM121 565l99 150h168l99 -150h-135l-47 82h-2l-47 -82h-135z" />
    <glyph glyph-name="Gbreve" unicode="&#x11e;" horiz-adv-x="773" 
d="M37 359c0 208 157 368 375 368c97 0 199 -28 275 -95l-84 -131c-41 37 -113 66 -174 66c-150 0 -211 -96 -211 -202c0 -136 94 -217 205 -217c52 0 104 20 145 52v55h-101v149h256v-404h-146v20c0 15 1 30 1 30h-2c-43 -38 -118 -62 -188 -62c-183 0 -351 137 -351 371z
M402 756c-93 0 -174 52 -174 145v10h117v-11c0 -40 30 -58 57 -58s57 18 57 58v11h117v-10c0 -93 -81 -145 -174 -145z" />
    <glyph glyph-name="gbreve" unicode="&#x11f;" horiz-adv-x="625" 
d="M130 -33c43 -21 93 -33 145 -33c62 0 119 23 119 99v17c0 6 1 19 1 19h-2c-30 -36 -69 -54 -129 -54c-155 0 -232 127 -232 259c0 131 75 253 231 253c49 0 104 -14 140 -50h3s-1 6 -1 12v26h162v-468c0 -188 -150 -257 -291 -257c-69 0 -145 20 -195 46zM206 280
c0 -64 30 -121 99 -121c45 0 93 23 93 113c0 91 -48 111 -100 111c-61 0 -92 -44 -92 -103zM304 560c-93 0 -174 52 -174 145v10h117v-11c0 -40 30 -58 57 -58s57 18 57 58v11h117v-10c0 -93 -81 -145 -174 -145z" />
    <glyph glyph-name="Gdotaccent" unicode="&#x120;" horiz-adv-x="773" 
d="M37 359c0 208 157 368 375 368c97 0 199 -28 275 -95l-84 -131c-41 37 -113 66 -174 66c-150 0 -211 -96 -211 -202c0 -136 94 -217 205 -217c52 0 104 20 145 52v55h-101v149h256v-404h-146v20c0 15 1 30 1 30h-2c-43 -38 -118 -62 -188 -62c-183 0 -351 137 -351 371z
M331 779v132h143v-132h-143z" />
    <glyph glyph-name="gdotaccent" unicode="&#x121;" horiz-adv-x="625" 
d="M130 -33c43 -21 93 -33 145 -33c62 0 119 23 119 99v17c0 6 1 19 1 19h-2c-30 -36 -69 -54 -129 -54c-155 0 -232 127 -232 259c0 131 75 253 231 253c49 0 104 -14 140 -50h3s-1 6 -1 12v26h162v-468c0 -188 -150 -257 -291 -257c-69 0 -145 20 -195 46zM206 280
c0 -64 30 -121 99 -121c45 0 93 23 93 113c0 91 -48 111 -100 111c-61 0 -92 -44 -92 -103zM233 583v132h143v-132h-143z" />
    <glyph glyph-name="Gcommaaccent" unicode="&#x122;" horiz-adv-x="773" 
d="M37 359c0 208 157 368 375 368c97 0 199 -28 275 -95l-84 -131c-41 37 -113 66 -174 66c-150 0 -211 -96 -211 -202c0 -136 94 -217 205 -217c52 0 104 20 145 52v55h-101v149h256v-404h-146v20c0 15 1 30 1 30h-2c-43 -38 -118 -62 -188 -62c-183 0 -351 137 -351 371z
M317 -49h136c5 -21 7 -39 7 -58c0 -35 -9 -65 -28 -103h-123c12 35 20 63 20 93c0 19 -3 42 -12 68z" />
    <glyph glyph-name="gcommaaccent" unicode="&#x123;" horiz-adv-x="625" 
d="M130 -33c43 -21 93 -33 145 -33c62 0 119 23 119 99v17c0 6 1 19 1 19h-2c-30 -36 -69 -54 -129 -54c-155 0 -232 127 -232 259c0 131 75 253 231 253c49 0 104 -14 140 -50h3s-1 6 -1 12v26h162v-468c0 -188 -150 -257 -291 -257c-69 0 -145 20 -195 46zM206 280
c0 -64 30 -121 99 -121c45 0 93 23 93 113c0 91 -48 111 -100 111c-61 0 -92 -44 -92 -103zM375 560h-135c-5 20 -7 38 -7 56c0 34 9 63 27 99h123c-12 -34 -20 -60 -20 -89c0 -19 3 -41 12 -66z" />
    <glyph glyph-name="Hcircumflex" unicode="&#x124;" horiz-adv-x="760" 
d="M75 0v715h175v-286h260v286h175v-715h-175v280h-260v-280h-175zM197 761l99 150h168l99 -150h-135l-47 82h-2l-47 -82h-135z" />
    <glyph glyph-name="hcircumflex" unicode="&#x125;" horiz-adv-x="626" 
d="M58 0v715h173v-226c0 -26 -2 -44 -2 -44h2c29 51 89 82 157 82c104 0 185 -48 185 -193v-334h-173v302c0 48 -19 68 -57 68c-75 0 -112 -59 -112 -138v-232h-173zM-38 761l99 150h168l99 -150h-135l-47 82h-2l-47 -82h-135z" />
    <glyph glyph-name="Hbar" unicode="&#x126;" horiz-adv-x="764" 
d="M82 0v517h-66v107h66v91h179v-91h242v91h179v-91h65v-107h-65v-517h-179v280h-242v-280h-179zM261 429h242v88h-242v-88z" />
    <glyph glyph-name="hbar" unicode="&#x127;" horiz-adv-x="626" 
d="M58 0v554h-58v95h58v66h173v-66h134v-95h-134v-65c0 -26 -2 -44 -2 -44h2c29 51 89 82 157 82c104 0 185 -48 185 -193v-334h-173v302c0 48 -19 68 -57 68c-76 0 -112 -63 -112 -137v-233h-173z" />
    <glyph glyph-name="Itilde" unicode="&#x128;" horiz-adv-x="325" 
d="M75 0v715h175v-715h-175zM-38 761c0 101 41 153 128 153c67 0 88 -60 126 -60c24 0 37 19 37 57h112c0 -101 -41 -153 -128 -153c-67 0 -88 60 -126 60c-24 0 -37 -19 -37 -57h-112z" />
    <glyph glyph-name="itilde" unicode="&#x129;" horiz-adv-x="289" 
d="M58 0v515h173v-515h-173zM-57 565c0 101 41 153 128 153c67 0 88 -60 126 -60c24 0 37 19 37 57h112c0 -101 -41 -153 -128 -153c-67 0 -88 60 -126 60c-24 0 -37 -19 -37 -57h-112z" />
    <glyph glyph-name="Imacron" unicode="&#x12a;" horiz-adv-x="325" 
d="M75 0v715h175v-715h-175zM26 782v112h275v-112h-275z" />
    <glyph glyph-name="imacron" unicode="&#x12b;" horiz-adv-x="289" 
d="M58 0v515h173v-515h-173zM7 586v112h275v-112h-275z" />
    <glyph glyph-name="Ibreve" unicode="&#x12c;" horiz-adv-x="325" 
d="M75 0v715h175v-715h-175zM163 756c-93 0 -174 52 -174 145v10h117v-11c0 -40 30 -58 57 -58s57 18 57 58v11h117v-10c0 -93 -81 -145 -174 -145z" />
    <glyph glyph-name="ibreve" unicode="&#x12d;" horiz-adv-x="289" 
d="M58 0v515h173v-515h-173zM144 560c-93 0 -174 52 -174 145v10h117v-11c0 -40 30 -58 57 -58s57 18 57 58v11h117v-10c0 -93 -81 -145 -174 -145z" />
    <glyph glyph-name="Iogonek" unicode="&#x12e;" horiz-adv-x="325" 
d="M75 0v715h175v-715c-17 -16 -43 -43 -43 -61c0 -22 38 -25 38 -25l-42 -124s-133 13 -133 99c0 47 35 86 64 111h-59z" />
    <glyph glyph-name="iogonek" unicode="&#x12f;" horiz-adv-x="289" 
d="M58 0v515h173v-515c-17 -16 -43 -43 -43 -61c0 -22 38 -25 38 -25l-42 -124s-133 12 -133 100c0 45 35 85 64 110h-57zM60 580v135h169v-135h-169z" />
    <glyph glyph-name="Idotaccent" unicode="&#x130;" horiz-adv-x="325" 
d="M75 0v715h175v-715h-175zM92 779v132h143v-132h-143z" />
    <glyph glyph-name="dotlessi" unicode="&#x131;" horiz-adv-x="289" 
d="M58 0v515h173v-515h-173z" />
    <glyph glyph-name="IJ" unicode="&#x132;" horiz-adv-x="681" 
d="M318 -4v158c42 0 116 24 116 116v445h179v-447c0 -227 -163 -272 -295 -272zM75 0v715h175v-715h-175z" />
    <glyph glyph-name="ij" unicode="&#x133;" horiz-adv-x="578" 
d="M60 580v135h169v-135h-169zM58 0v515h173v-515h-173zM349 580v135h169v-135h-169zM347 4v511h173v-528c0 -173 -162 -195 -242 -195c-15 0 -31 1 -46 3v144c8 -1 14 -1 22 -1c34 0 93 8 93 66z" />
    <glyph glyph-name="Jcircumflex" unicode="&#x134;" horiz-adv-x="566" 
d="M18 220v52h175v-38c0 -45 16 -86 65 -86c38 0 64 24 64 76v341h-192v150h367v-495c0 -157 -120 -232 -239 -232c-121 0 -240 77 -240 232zM126 761l99 150h168l99 -150h-135l-47 82h-2l-47 -82h-135z" />
    <glyph glyph-name="jcircumflex" unicode="&#x135;" horiz-adv-x="289" 
d="M-30 565l99 150h152l99 -150h-127l-47 82h-2l-47 -82h-127zM58 4v511h173v-528c0 -173 -162 -195 -242 -195c-15 0 -31 1 -46 3v144c6 -1 13 -1 22 -1c34 0 93 8 93 66z" />
    <glyph glyph-name="Kcommaaccent" unicode="&#x136;" horiz-adv-x="675" 
d="M75 0v715h175v-276h72l148 276h188l-193 -342v-2l204 -371h-196l-151 290h-72v-290h-175zM271 -49h136c5 -21 7 -39 7 -58c0 -35 -9 -65 -28 -103h-123c12 35 20 63 20 93c0 19 -3 42 -12 68z" />
    <glyph glyph-name="kcommaaccent" unicode="&#x137;" horiz-adv-x="591" 
d="M58 0v715h173v-370h49l102 170h188l-151 -234v-2l172 -279h-197l-109 200h-54v-200h-173zM233 -49h136c5 -21 7 -39 7 -58c0 -35 -9 -65 -28 -103h-123c12 35 20 63 20 93c0 19 -3 42 -12 68z" />
    <glyph glyph-name="kgreenlandic" unicode="&#x138;" horiz-adv-x="589" 
d="M58 0v515h173v-180h49l105 180h188l-154 -244v-2l166 -269h-200l-100 190h-54v-190h-173z" />
    <glyph glyph-name="Lacute" unicode="&#x139;" horiz-adv-x="552" 
d="M75 0v715h175v-565h292v-150h-467zM91 761l81 150h171l-118 -150h-134z" />
    <glyph glyph-name="lacute" unicode="&#x13a;" horiz-adv-x="322" 
d="M57 190v525h173v-502c0 -49 9 -66 48 -66c5 0 13 0 21 1v-150c-12 -1 -30 -3 -52 -3c-92 0 -190 22 -190 195zM72 761l81 150h171l-118 -150h-134z" />
    <glyph glyph-name="Lcommaaccent" unicode="&#x13b;" horiz-adv-x="552" 
d="M75 0v715h175v-565h292v-150h-467zM242 -49h136c5 -21 7 -39 7 -58c0 -35 -9 -65 -28 -103h-123c12 35 20 63 20 93c0 19 -3 42 -12 68z" />
    <glyph glyph-name="lcommaaccent" unicode="&#x13c;" horiz-adv-x="322" 
d="M57 190v525h173v-502c0 -49 9 -66 48 -66c5 0 13 0 21 1v-150c-12 -1 -30 -3 -52 -3c-92 0 -190 22 -190 195zM113 -49h136c5 -21 7 -39 7 -58c0 -35 -9 -65 -28 -103h-123c12 35 20 63 20 93c0 19 -3 42 -12 68z" />
    <glyph glyph-name="Lcaron" unicode="&#x13d;" horiz-adv-x="553" 
d="M75 0v715h175v-565h292v-150h-467zM320 715h136c5 -21 7 -39 7 -58c0 -35 -9 -65 -28 -103h-123c12 35 20 63 20 93c0 19 -3 42 -12 68z" />
    <glyph glyph-name="lcaron" unicode="&#x13e;" horiz-adv-x="342" 
d="M57 190v525h173v-502c0 -49 9 -66 48 -66c5 0 13 0 21 1v-150c-12 -1 -30 -3 -52 -3c-92 0 -190 22 -190 195zM277 715h136c5 -21 7 -39 7 -58c0 -35 -9 -65 -28 -103h-123c12 35 20 63 20 93c0 19 -3 42 -12 68z" />
    <glyph glyph-name="Ldot" unicode="&#x13f;" horiz-adv-x="554" 
d="M75 0v715h175v-565h292v-150h-467zM343 315v164h158v-164h-158z" />
    <glyph glyph-name="ldot" unicode="&#x140;" horiz-adv-x="495" 
d="M57 190v525h173v-502c0 -49 9 -66 48 -66c5 0 13 0 21 1v-150c-12 -1 -30 -3 -52 -3c-92 0 -190 22 -190 195zM312 315v164h158v-164h-158z" />
    <glyph glyph-name="Lslash" unicode="&#x141;" horiz-adv-x="556" 
d="M79 0v205l-52 -30v166l52 30v344h175v-244l101 58v-166l-101 -58v-155h292v-150h-467z" />
    <glyph glyph-name="lslash" unicode="&#x142;" horiz-adv-x="334" 
d="M18 195v166l50 29v325h173v-226l69 40v-166l-69 -40v-110c0 -49 9 -66 48 -66c11 0 21 1 21 1v-150s-24 -3 -52 -3c-92 0 -190 22 -190 195v34z" />
    <glyph glyph-name="Nacute" unicode="&#x143;" horiz-adv-x="754" 
d="M75 0v715h177l198 -334c28 -47 60 -122 60 -122h2s-8 77 -8 122v334h175v-715h-176l-199 333c-28 47 -60 122 -60 122h-2s8 -77 8 -122v-333h-175zM305 761l81 150h171l-118 -150h-134z" />
    <glyph glyph-name="nacute" unicode="&#x144;" horiz-adv-x="626" 
d="M58 0v515h166v-45c0 -17 -2 -32 -2 -32h2c24 40 73 89 164 89c104 0 185 -48 185 -193v-334h-173v302c0 48 -19 68 -57 68c-77 0 -112 -64 -112 -137v-233h-173zM247 565l81 150h171l-118 -150h-134z" />
    <glyph glyph-name="Ncommaaccent" unicode="&#x145;" horiz-adv-x="754" 
d="M75 0v715h177l198 -334c28 -47 60 -122 60 -122h2s-8 77 -8 122v334h175v-715h-176l-199 333c-28 47 -60 122 -60 122h-2s8 -77 8 -122v-333h-175zM306 -49h136c5 -21 7 -39 7 -58c0 -35 -9 -65 -28 -103h-123c12 35 20 63 20 93c0 19 -3 42 -12 68z" />
    <glyph glyph-name="ncommaaccent" unicode="&#x146;" horiz-adv-x="626" 
d="M58 0v515h166v-45c0 -17 -2 -32 -2 -32h2c24 40 73 89 164 89c104 0 185 -48 185 -193v-334h-173v302c0 48 -19 68 -57 68c-77 0 -112 -64 -112 -137v-233h-173zM241 -49h136c5 -21 7 -39 7 -58c0 -35 -9 -65 -28 -103h-123c12 35 20 63 20 93c0 19 -3 42 -12 68z" />
    <glyph glyph-name="Ncaron" unicode="&#x147;" horiz-adv-x="754" 
d="M75 0v715h177l198 -334c28 -47 60 -122 60 -122h2s-8 77 -8 122v334h175v-715h-176l-199 333c-28 47 -60 122 -60 122h-2s8 -77 8 -122v-333h-175zM293 761l-99 150h135l47 -82h2l47 82h135l-99 -150h-168z" />
    <glyph glyph-name="ncaron" unicode="&#x148;" horiz-adv-x="626" 
d="M58 0v515h166v-45c0 -17 -2 -32 -2 -32h2c24 40 73 89 164 89c104 0 185 -48 185 -193v-334h-173v302c0 48 -19 68 -57 68c-77 0 -112 -64 -112 -137v-233h-173zM235 565l-99 150h135l47 -82h2l47 82h135l-99 -150h-168z" />
    <glyph glyph-name="napostrophe" unicode="&#x149;" horiz-adv-x="626" 
d="M58 0v515h166v-45c0 -17 -2 -32 -2 -32h2c24 40 73 89 164 89c104 0 185 -48 185 -193v-334h-173v302c0 48 -19 68 -57 68c-77 0 -112 -64 -112 -137v-233h-173zM-36 715h136c5 -21 7 -39 7 -58c0 -35 -9 -65 -28 -103h-123c12 35 20 63 20 93c0 19 -3 42 -12 68z" />
    <glyph glyph-name="Eng" unicode="&#x14a;" horiz-adv-x="753" 
d="M75 0v715h177l198 -334c28 -47 60 -122 60 -122h2s-8 77 -8 122v334h175v-648c0 -227 -163 -272 -295 -272v158c28 0 98 19 113 57l-193 323c-28 47 -60 122 -60 122h-2s8 -77 8 -122v-333h-175z" />
    <glyph glyph-name="eng" unicode="&#x14b;" horiz-adv-x="626" 
d="M58 0v515h166v-65c0 -5 -1 -12 -1 -12h2c24 40 72 89 163 89c104 0 185 -48 185 -193v-347c0 -173 -162 -195 -242 -195c-28 0 -46 3 -46 3v144s9 -1 22 -1c34 0 93 8 93 66v298c0 48 -19 68 -57 68c-77 0 -112 -64 -112 -137v-233h-173z" />
    <glyph glyph-name="Omacron" unicode="&#x14c;" horiz-adv-x="820" 
d="M36 362c0 205 152 365 374 365s374 -160 374 -365c0 -210 -152 -374 -374 -374s-374 164 -374 374zM217 362c0 -122 80 -214 193 -214s193 92 193 214c0 117 -80 205 -193 205s-193 -88 -193 -205zM273 782v112h275v-112h-275z" />
    <glyph glyph-name="omacron" unicode="&#x14d;" horiz-adv-x="642" 
d="M29 256c0 162 130 271 291 271c163 0 293 -109 293 -271c0 -161 -130 -268 -292 -268s-292 107 -292 268zM204 256c0 -77 54 -124 117 -124s117 47 117 124c0 78 -54 127 -117 127s-117 -49 -117 -127zM184 586v112h275v-112h-275z" />
    <glyph glyph-name="Obreve" unicode="&#x14e;" horiz-adv-x="820" 
d="M36 362c0 205 152 365 374 365s374 -160 374 -365c0 -210 -152 -374 -374 -374s-374 164 -374 374zM217 362c0 -122 80 -214 193 -214s193 92 193 214c0 117 -80 205 -193 205s-193 -88 -193 -205zM410 756c-93 0 -174 52 -174 145v10h117v-11c0 -40 30 -58 57 -58
s57 18 57 58v11h117v-10c0 -93 -81 -145 -174 -145z" />
    <glyph glyph-name="obreve" unicode="&#x14f;" horiz-adv-x="642" 
d="M29 256c0 162 130 271 291 271c163 0 293 -109 293 -271c0 -161 -130 -268 -292 -268s-292 107 -292 268zM204 256c0 -77 54 -124 117 -124s117 47 117 124c0 78 -54 127 -117 127s-117 -49 -117 -127zM321 560c-93 0 -174 52 -174 145v10h117v-11c0 -40 30 -58 57 -58
s57 18 57 58v11h117v-10c0 -93 -81 -145 -174 -145z" />
    <glyph glyph-name="Ohungarumlaut" unicode="&#x150;" horiz-adv-x="820" 
d="M36 362c0 205 152 365 374 365s374 -160 374 -365c0 -210 -152 -374 -374 -374s-374 164 -374 374zM217 362c0 -122 80 -214 193 -214s193 92 193 214c0 117 -80 205 -193 205s-193 -88 -193 -205zM436 761l81 150h163l-118 -150h-126zM228 761l76 150h139l-79 -150h-136
z" />
    <glyph glyph-name="ohungarumlaut" unicode="&#x151;" horiz-adv-x="642" 
d="M29 256c0 162 130 271 291 271c163 0 293 -109 293 -271c0 -161 -130 -268 -292 -268s-292 107 -292 268zM204 256c0 -77 54 -124 117 -124s117 47 117 124c0 78 -54 127 -117 127s-117 -49 -117 -127zM347 565l81 150h163l-118 -150h-126zM139 565l76 150h139l-79 -150
h-136z" />
    <glyph glyph-name="OE" unicode="&#x152;" horiz-adv-x="990" 
d="M35 359c0 205 173 364 384 364c68 0 88 -8 132 -8h388v-150h-273v-130h218v-150h-218v-135h288v-150h-403c-44 0 -64 -8 -132 -8c-211 0 -384 162 -384 367zM216 359c0 -120 89 -218 203 -218c44 0 72 7 72 7v419s-28 7 -72 7c-114 0 -203 -96 -203 -215z" />
    <glyph glyph-name="oe" unicode="&#x153;" horiz-adv-x="975" 
d="M29 256c0 162 127 271 285 271c98 0 152 -34 199 -80h2c41 45 90 80 190 80c152 0 238 -106 238 -249c0 -17 -4 -54 -4 -54h-324c13 -60 64 -92 119 -92c50 0 102 23 142 52l64 -121c-57 -48 -141 -75 -220 -75c-107 0 -159 39 -201 85h-2c-47 -48 -102 -85 -202 -85
c-159 0 -286 107 -286 268zM618 323h151c-1 36 -26 74 -66 74c-52 0 -76 -36 -85 -74zM203 256c0 -77 54 -124 117 -124s117 47 117 124c0 78 -54 127 -117 127s-117 -49 -117 -127z" />
    <glyph glyph-name="Racute" unicode="&#x154;" horiz-adv-x="658" 
d="M75 0v715h249c73 0 108 -5 139 -17c81 -31 132 -104 132 -208c0 -76 -36 -159 -107 -195v-2s10 -13 27 -43l139 -250h-195l-127 241h-82v-241h-175zM250 391h76c56 0 91 31 91 88c0 36 -9 63 -42 76c-16 7 -37 10 -66 10h-59v-174zM245 761l81 150h171l-118 -150h-134z
" />
    <glyph glyph-name="racute" unicode="&#x155;" horiz-adv-x="426" 
d="M58 0v515h166v-87c0 -17 -2 -32 -2 -32h2c22 70 87 128 164 128c7 0 14 -1 20 -2v-170c-6 2 -23 3 -35 3c-96 0 -142 -61 -142 -155v-200h-173zM178 564l81 150h171l-118 -150h-134z" />
    <glyph glyph-name="Rcommaaccent" unicode="&#x156;" horiz-adv-x="658" 
d="M75 0v715h249c73 0 108 -5 139 -17c81 -31 132 -104 132 -208c0 -76 -36 -159 -107 -195v-2s10 -13 27 -43l139 -250h-195l-127 241h-82v-241h-175zM250 391h76c56 0 91 31 91 88c0 36 -9 63 -42 76c-16 7 -37 10 -66 10h-59v-174zM267 -49h136c5 -21 7 -39 7 -58
c0 -35 -9 -65 -28 -103h-123c12 35 20 63 20 93c0 19 -3 42 -12 68z" />
    <glyph glyph-name="rcommaaccent" unicode="&#x157;" horiz-adv-x="426" 
d="M58 0v515h166v-87c0 -17 -2 -32 -2 -32h2c22 70 87 128 164 128c7 0 14 -1 20 -2v-170c-6 2 -23 3 -35 3c-96 0 -142 -61 -142 -155v-200h-173zM74 -49h136c5 -21 7 -39 7 -58c0 -35 -9 -65 -28 -103h-123c12 35 20 63 20 93c0 19 -3 42 -12 68z" />
    <glyph glyph-name="Rcaron" unicode="&#x158;" horiz-adv-x="658" 
d="M75 0v715h249c73 0 108 -5 139 -17c81 -31 132 -104 132 -208c0 -76 -36 -159 -107 -195v-2s10 -13 27 -43l139 -250h-195l-127 241h-82v-241h-175zM250 391h76c56 0 91 31 91 88c0 36 -9 63 -42 76c-16 7 -37 10 -66 10h-59v-174zM233 761l-99 150h135l47 -82h2l47 82
h135l-99 -150h-168z" />
    <glyph glyph-name="rcaron" unicode="&#x159;" horiz-adv-x="426" 
d="M58 0v515h166v-87c0 -17 -2 -32 -2 -32h2c22 70 87 128 164 128c7 0 14 -1 20 -2v-170c-6 2 -23 3 -35 3c-96 0 -142 -61 -142 -155v-200h-173zM166 564l-99 150h135l47 -82h2l47 82h135l-99 -150h-168z" />
    <glyph glyph-name="Sacute" unicode="&#x15a;" horiz-adv-x="575" 
d="M26 90l92 133c40 -35 108 -74 172 -74c49 0 74 22 74 50c0 101 -316 85 -316 309c0 132 109 219 259 219c80 0 162 -26 224 -81l-74 -143c-40 35 -102 63 -158 63c-53 0 -76 -22 -76 -51c0 -102 316 -78 316 -304c0 -120 -89 -223 -254 -223c-93 0 -191 34 -259 102z
M216 761l81 150h171l-118 -150h-134z" />
    <glyph glyph-name="sacute" unicode="&#x15b;" horiz-adv-x="471" 
d="M19 64l74 113c38 -32 91 -52 140 -52c35 0 47 11 47 27c0 55 -241 43 -241 212c0 106 95 163 214 163c66 0 132 -17 184 -59l-59 -120c-30 24 -86 42 -130 42c-37 0 -48 -11 -48 -25c0 -54 241 -41 241 -208c0 -96 -80 -169 -212 -169c-74 0 -153 25 -210 76zM157 565
l81 150h171l-118 -150h-134z" />
    <glyph glyph-name="Scircumflex" unicode="&#x15c;" horiz-adv-x="575" 
d="M26 90l92 133c40 -35 108 -74 172 -74c49 0 74 22 74 50c0 101 -316 85 -316 309c0 132 109 219 259 219c80 0 162 -26 224 -81l-74 -143c-40 35 -102 63 -158 63c-53 0 -76 -22 -76 -51c0 -102 316 -78 316 -304c0 -120 -89 -223 -254 -223c-93 0 -191 34 -259 102z
M105 761l99 150h168l99 -150h-135l-47 82h-2l-47 -82h-135z" />
    <glyph glyph-name="scircumflex" unicode="&#x15d;" horiz-adv-x="471" 
d="M19 64l74 113c38 -32 91 -52 140 -52c35 0 47 11 47 27c0 55 -241 43 -241 212c0 106 95 163 214 163c66 0 132 -17 184 -59l-59 -120c-30 24 -86 42 -130 42c-37 0 -48 -11 -48 -25c0 -54 241 -41 241 -208c0 -96 -80 -169 -212 -169c-74 0 -153 25 -210 76zM47 565
l99 150h168l99 -150h-135l-47 82h-2l-47 -82h-135z" />
    <glyph glyph-name="Scedilla" unicode="&#x15e;" horiz-adv-x="576" 
d="M225 -82l22 72c-81 8 -162 41 -221 100l92 133c40 -35 108 -74 172 -74c49 0 74 22 74 50c0 101 -316 85 -316 309c0 132 109 219 259 219c80 0 162 -26 224 -81l-74 -143c-40 35 -102 63 -158 63c-53 0 -76 -22 -76 -51c0 -102 316 -78 316 -304
c0 -109 -74 -204 -211 -220l-6 -27c40 -4 75 -27 75 -80c0 -72 -60 -94 -117 -94c-24 0 -48 3 -71 9v87c11 -6 33 -10 45 -10c22 0 38 7 38 23c0 17 -21 21 -41 21c-13 0 -26 -2 -26 -2z" />
    <glyph glyph-name="scedilla" unicode="&#x15f;" horiz-adv-x="473" 
d="M160 -82l23 74c-59 8 -117 32 -162 72l74 113c38 -32 91 -52 140 -52c35 0 47 11 47 27c0 55 -241 43 -241 212c0 106 95 163 214 163c66 0 132 -17 184 -59l-59 -120c-30 24 -86 42 -130 42c-37 0 -48 -11 -48 -25c0 -54 241 -41 241 -208c0 -88 -67 -157 -180 -167
l-6 -26c40 -4 75 -27 75 -80c0 -72 -60 -94 -117 -94c-24 0 -48 3 -71 9v87c11 -6 33 -10 45 -10c22 0 38 7 38 23c0 17 -21 21 -41 21c-13 0 -26 -2 -26 -2z" />
    <glyph glyph-name="Scaron" unicode="&#x160;" horiz-adv-x="575" 
d="M26 90l92 133c40 -35 108 -74 172 -74c49 0 74 22 74 50c0 101 -316 85 -316 309c0 132 109 219 259 219c80 0 162 -26 224 -81l-74 -143c-40 35 -102 63 -158 63c-53 0 -76 -22 -76 -51c0 -102 316 -78 316 -304c0 -120 -89 -223 -254 -223c-93 0 -191 34 -259 102z
M204 761l-99 150h135l47 -82h2l47 82h135l-99 -150h-168z" />
    <glyph glyph-name="scaron" unicode="&#x161;" horiz-adv-x="471" 
d="M19 64l74 113c38 -32 91 -52 140 -52c35 0 47 11 47 27c0 55 -241 43 -241 212c0 106 95 163 214 163c66 0 132 -17 184 -59l-59 -120c-30 24 -86 42 -130 42c-37 0 -48 -11 -48 -25c0 -54 241 -41 241 -208c0 -96 -80 -169 -212 -169c-74 0 -153 25 -210 76zM146 565
l-99 150h135l47 -82h2l47 82h135l-99 -150h-168z" />
    <glyph glyph-name="Tcommaaccent" unicode="&#x162;" horiz-adv-x="633" 
d="M229 0v565h-217v150h609v-150h-217v-565h-50l-9 -36c40 -4 75 -27 75 -80c0 -72 -60 -94 -117 -94c-24 0 -48 3 -71 9v87c11 -6 33 -10 45 -10c22 0 38 7 38 23c0 17 -21 21 -41 21c-13 0 -26 -2 -26 -2l26 82h-45z" />
    <glyph glyph-name="tcommaaccent" unicode="&#x163;" horiz-adv-x="411" 
d="M156 -82l33 104c-55 26 -101 75 -101 168v181h-66v135h71v148h168v-148h108v-135h-108v-158c0 -58 59 -66 92 -66c6 0 12 0 23 1v-150c-13 -1 -27 -3 -47 -3c-19 0 -43 1 -67 5l-9 -36c40 -4 75 -27 75 -80c0 -72 -60 -94 -117 -94c-24 0 -48 3 -71 9v87
c11 -6 33 -10 45 -10c22 0 38 7 38 23c0 17 -21 21 -41 21c-13 0 -26 -2 -26 -2z" />
    <glyph glyph-name="Tcaron" unicode="&#x164;" horiz-adv-x="633" 
d="M229 0v565h-217v150h609v-150h-217v-565h-175zM232 761l-99 150h135l47 -82h2l47 82h135l-99 -150h-168z" />
    <glyph glyph-name="tcaron" unicode="&#x165;" horiz-adv-x="411" 
d="M88 190v181h-66v135h71v148h168v-148h108v-135h-108v-158c0 -58 59 -66 92 -66c6 0 12 0 23 1v-150c-13 -1 -27 -3 -47 -3c-82 0 -241 22 -241 195zM303 715h136c5 -20 7 -37 7 -54c0 -33 -9 -61 -28 -97h-123c12 33 20 59 20 87c0 18 -3 40 -12 64z" />
    <glyph glyph-name="Tbar" unicode="&#x166;" horiz-adv-x="644" 
d="M234 0v272h-142v127h142v166h-217v150h609v-150h-217v-166h148v-127h-148v-272h-175z" />
    <glyph glyph-name="tbar" unicode="&#x167;" horiz-adv-x="414" 
d="M14 209v107h77v55h-66v135h71v148h168v-148h108v-135h-108v-55h97v-107h-97v-5c0 -48 59 -57 92 -57c14 0 23 1 23 1v-150s-19 -3 -47 -3c-82 0 -241 22 -241 195v19h-77z" />
    <glyph glyph-name="Utilde" unicode="&#x168;" horiz-adv-x="732" 
d="M67 263v452h175v-452c0 -75 49 -115 124 -115s124 40 124 115v452h175v-452c0 -161 -118 -275 -298 -275c-182 0 -300 114 -300 275zM165 761c0 101 41 153 128 153c67 0 88 -60 126 -60c24 0 37 19 37 57h112c0 -101 -41 -153 -128 -153c-67 0 -88 60 -126 60
c-24 0 -37 -19 -37 -57h-112z" />
    <glyph glyph-name="utilde" unicode="&#x169;" horiz-adv-x="621" 
d="M53 181v334h173v-302c0 -48 19 -68 55 -68c74 0 109 65 109 142v228h173v-515h-166v45c0 17 2 32 2 32h-2c-28 -55 -92 -89 -161 -89c-102 0 -183 48 -183 193zM107 565c0 101 41 153 128 153c67 0 88 -60 126 -60c24 0 37 19 37 57h112c0 -101 -41 -153 -128 -153
c-67 0 -88 60 -126 60c-24 0 -37 -19 -37 -57h-112z" />
    <glyph glyph-name="Umacron" unicode="&#x16a;" horiz-adv-x="732" 
d="M67 263v452h175v-452c0 -75 49 -115 124 -115s124 40 124 115v452h175v-452c0 -161 -118 -275 -298 -275c-182 0 -300 114 -300 275zM229 782v112h275v-112h-275z" />
    <glyph glyph-name="umacron" unicode="&#x16b;" horiz-adv-x="621" 
d="M53 181v334h173v-302c0 -48 19 -68 55 -68c74 0 109 65 109 142v228h173v-515h-166v45c0 17 2 32 2 32h-2c-28 -55 -92 -89 -161 -89c-102 0 -183 48 -183 193zM171 586v112h275v-112h-275z" />
    <glyph glyph-name="Ubreve" unicode="&#x16c;" horiz-adv-x="732" 
d="M67 263v452h175v-452c0 -75 49 -115 124 -115s124 40 124 115v452h175v-452c0 -161 -118 -275 -298 -275c-182 0 -300 114 -300 275zM366 756c-93 0 -174 52 -174 145v10h117v-11c0 -40 30 -58 57 -58s57 18 57 58v11h117v-10c0 -93 -81 -145 -174 -145z" />
    <glyph glyph-name="ubreve" unicode="&#x16d;" horiz-adv-x="621" 
d="M53 181v334h173v-302c0 -48 19 -68 55 -68c74 0 109 65 109 142v228h173v-515h-166v45c0 17 2 32 2 32h-2c-28 -55 -92 -89 -161 -89c-102 0 -183 48 -183 193zM308 560c-93 0 -174 52 -174 145v10h117v-11c0 -40 30 -58 57 -58s57 18 57 58v11h117v-10
c0 -93 -81 -145 -174 -145z" />
    <glyph glyph-name="Uring" unicode="&#x16e;" horiz-adv-x="732" 
d="M67 263v452h175v-452c0 -75 49 -115 124 -115s124 40 124 115v452h175v-452c0 -161 -118 -275 -298 -275c-182 0 -300 114 -300 275zM366 747c-53 0 -109 26 -109 85s56 86 109 86s110 -27 110 -86s-57 -85 -110 -85zM366 797c21 0 35 14 35 35c0 22 -14 36 -35 36
c-20 0 -34 -14 -34 -36c0 -21 13 -35 34 -35z" />
    <glyph glyph-name="uring" unicode="&#x16f;" horiz-adv-x="621" 
d="M53 181v334h173v-302c0 -48 19 -68 55 -68c74 0 109 65 109 142v228h173v-515h-166v45c0 17 2 32 2 32h-2c-28 -55 -92 -89 -161 -89c-102 0 -183 48 -183 193zM308 551c-53 0 -109 26 -109 85s56 86 109 86s110 -27 110 -86s-57 -85 -110 -85zM308 601c21 0 35 14 35 35
c0 22 -14 36 -35 36c-20 0 -34 -14 -34 -36c0 -21 13 -35 34 -35z" />
    <glyph glyph-name="Uhungarumlaut" unicode="&#x170;" horiz-adv-x="732" 
d="M67 263v452h175v-452c0 -75 49 -115 124 -115s124 40 124 115v452h175v-452c0 -161 -118 -275 -298 -275c-182 0 -300 114 -300 275zM392 761l81 150h163l-118 -150h-126zM184 761l76 150h139l-79 -150h-136z" />
    <glyph glyph-name="uhungarumlaut" unicode="&#x171;" horiz-adv-x="621" 
d="M53 181v334h173v-302c0 -48 19 -68 55 -68c74 0 109 65 109 142v228h173v-515h-166v45c0 17 2 32 2 32h-2c-28 -55 -92 -89 -161 -89c-102 0 -183 48 -183 193zM334 565l81 150h163l-118 -150h-126zM126 565l76 150h139l-79 -150h-136z" />
    <glyph glyph-name="Uogonek" unicode="&#x172;" horiz-adv-x="734" 
d="M68 263v452h175v-452c0 -75 49 -115 124 -115s124 40 124 115v452h175v-452c0 -133 -73 -191 -133 -237c-45 -34 -85 -60 -85 -87c0 -22 38 -25 38 -25l-42 -124s-133 13 -133 99c0 40 26 80 59 100c0 0 -8 -1 -15 -1c-131 0 -287 84 -287 275z" />
    <glyph glyph-name="uogonek" unicode="&#x173;" horiz-adv-x="621" 
d="M53 181v334h173v-302c0 -48 19 -68 55 -68c74 0 109 65 109 142v228h173v-515c-17 -16 -43 -43 -43 -61c0 -22 38 -25 38 -25l-42 -124s-133 13 -133 99c0 47 35 86 64 111h-50v45c0 17 2 32 2 32h-2c-28 -55 -92 -89 -161 -89c-102 0 -183 48 -183 193z" />
    <glyph glyph-name="Wcircumflex" unicode="&#x174;" horiz-adv-x="979" 
d="M187 0l-174 715h184l90 -447c9 -44 9 -75 9 -75h2s1 31 12 75l110 447h141l107 -447c11 -44 12 -75 12 -75h2s0 31 9 75l98 447h181l-181 -715h-195l-90 361c-11 46 -14 84 -14 84h-2s-3 -38 -14 -84l-90 -361h-197zM305 761l99 150h168l99 -150h-135l-47 82h-2l-47 -82
h-135z" />
    <glyph glyph-name="wcircumflex" unicode="&#x175;" horiz-adv-x="836" 
d="M155 0l-144 515h182l64 -304c6 -28 6 -54 6 -54h2s2 26 9 54l71 304h148l71 -304c7 -28 8 -54 8 -54h2s1 26 7 54l64 304h180l-144 -515h-193l-58 238c-7 28 -10 55 -10 55h-2s-3 -27 -10 -55l-58 -238h-195zM236 565l99 150h168l99 -150h-135l-47 82h-2l-47 -82h-135z
" />
    <glyph glyph-name="Ycircumflex" unicode="&#x176;" horiz-adv-x="627" 
d="M226 0v293l-236 422h199l81 -172c23 -49 43 -103 43 -103h2s20 54 43 103l80 172h199l-236 -422v-293h-175zM131 761l99 150h168l99 -150h-135l-47 82h-2l-47 -82h-135z" />
    <glyph glyph-name="ycircumflex" unicode="&#x177;" horiz-adv-x="561" 
d="M63 -47c0 0 28 -19 53 -19c28 0 65 8 83 52l10 24l-219 505h196l76 -237c9 -28 19 -80 19 -80h2s10 49 17 77l65 240h189l-211 -570c-43 -115 -133 -155 -215 -155c-68 0 -120 36 -120 36zM99 564l99 150h168l99 -150h-135l-47 82h-2l-47 -82h-135z" />
    <glyph glyph-name="Ydieresis" unicode="&#x178;" horiz-adv-x="627" 
d="M226 0v293l-236 422h199l81 -172c23 -49 43 -103 43 -103h2s20 54 43 103l80 172h199l-236 -422v-293h-175zM356 771v140h126v-140h-126zM147 771v140h126v-140h-126z" />
    <glyph glyph-name="Zacute" unicode="&#x179;" horiz-adv-x="635" 
d="M37 0v110l276 391c31 44 55 65 55 65v2s-23 -3 -55 -3h-263v150h540v-108l-277 -393c-31 -44 -55 -65 -55 -65v-2s23 3 55 3h282v-150h-558zM256 761l81 150h171l-118 -150h-134z" />
    <glyph glyph-name="zacute" unicode="&#x17a;" horiz-adv-x="544" 
d="M34 0v86l189 237c26 32 45 47 45 47v2s-13 -2 -45 -2h-181v145h460v-87l-188 -237c-25 -31 -46 -47 -46 -47v-2s13 3 46 3h193v-145h-473zM194 565l81 150h171l-118 -150h-134z" />
    <glyph glyph-name="Zdotaccent" unicode="&#x17b;" horiz-adv-x="635" 
d="M37 0v110l276 391c31 44 55 65 55 65v2s-23 -3 -55 -3h-263v150h540v-108l-277 -393c-31 -44 -55 -65 -55 -65v-2s23 3 55 3h282v-150h-558zM257 779v132h143v-132h-143z" />
    <glyph glyph-name="zdotaccent" unicode="&#x17c;" horiz-adv-x="544" 
d="M34 0v86l189 237c26 32 45 47 45 47v2s-13 -2 -45 -2h-181v145h460v-87l-188 -237c-25 -31 -46 -47 -46 -47v-2s13 3 46 3h193v-145h-473zM195 583v132h143v-132h-143z" />
    <glyph glyph-name="Zcaron" unicode="&#x17d;" horiz-adv-x="635" 
d="M37 0v110l276 391c31 44 55 65 55 65v2s-23 -3 -55 -3h-263v150h540v-108l-277 -393c-31 -44 -55 -65 -55 -65v-2s23 3 55 3h282v-150h-558zM244 761l-99 150h135l47 -82h2l47 82h135l-99 -150h-168z" />
    <glyph glyph-name="zcaron" unicode="&#x17e;" horiz-adv-x="544" 
d="M34 0v86l189 237c26 32 45 47 45 47v2s-13 -2 -45 -2h-181v145h460v-87l-188 -237c-25 -31 -46 -47 -46 -47v-2s13 3 46 3h193v-145h-473zM182 565l-99 150h135l47 -82h2l47 82h135l-99 -150h-168z" />
    <glyph glyph-name="longs" unicode="&#x17f;" horiz-adv-x="346" 
d="M95 0v371h-63v135h63v21c0 169 153 192 236 192c31 0 52 -3 52 -3v-146s-12 2 -28 2c-34 0 -87 -9 -87 -53v-519h-173z" />
    <glyph glyph-name="florin" unicode="&#x192;" horiz-adv-x="600" 
d="M29 28c0 0 54 -7 70 -7c33 0 87 9 92 64l19 225h-62v135h74l9 90c16 169 167 192 252 192c31 0 88 -8 88 -8v-146s-60 7 -76 7c-34 0 -88 -9 -93 -64l-7 -71h95v-135h-107l-21 -244c-15 -169 -168 -192 -251 -192c-31 0 -82 8 -82 8v146z" />
    <glyph glyph-name="Scommaaccent" unicode="&#x218;" horiz-adv-x="575" 
d="M26 90l92 133c40 -35 108 -74 172 -74c49 0 74 22 74 50c0 101 -316 85 -316 309c0 132 109 219 259 219c80 0 162 -26 224 -81l-74 -143c-40 35 -102 63 -158 63c-53 0 -76 -22 -76 -51c0 -102 316 -78 316 -304c0 -120 -89 -223 -254 -223c-93 0 -191 34 -259 102z
M208 -49h136c5 -21 7 -39 7 -58c0 -35 -9 -65 -28 -103h-123c12 35 20 63 20 93c0 19 -3 42 -12 68z" />
    <glyph glyph-name="scommaaccent" unicode="&#x219;" horiz-adv-x="471" 
d="M19 64l74 113c38 -32 91 -52 140 -52c35 0 47 11 47 27c0 55 -241 43 -241 212c0 106 95 163 214 163c66 0 132 -17 184 -59l-59 -120c-30 24 -86 42 -130 42c-37 0 -48 -11 -48 -25c0 -54 241 -41 241 -208c0 -96 -80 -169 -212 -169c-74 0 -153 25 -210 76zM154 -49
h136c5 -21 7 -39 7 -58c0 -35 -9 -65 -28 -103h-123c12 35 20 63 20 93c0 19 -3 42 -12 68z" />
    <glyph glyph-name="uni021A" unicode="&#x21a;" horiz-adv-x="633" 
d="M229 0v565h-217v150h609v-150h-217v-565h-175zM239 -49h136c5 -21 7 -39 7 -58c0 -35 -9 -65 -28 -103h-123c12 35 20 63 20 93c0 19 -3 42 -12 68z" />
    <glyph glyph-name="uni021B" unicode="&#x21b;" horiz-adv-x="411" 
d="M88 190v181h-66v135h71v148h168v-148h108v-135h-108v-158c0 -58 59 -66 92 -66c6 0 12 0 23 1v-150c-13 -1 -27 -3 -47 -3c-82 0 -241 22 -241 195zM160 -49h136c5 -21 7 -39 7 -58c0 -35 -9 -65 -28 -103h-123c12 35 20 63 20 93c0 19 -3 42 -12 68z" />
    <glyph glyph-name="circumflex" unicode="&#x2c6;" horiz-adv-x="486" 
d="M60 761l99 150h168l99 -150h-135l-47 82h-2l-47 -82h-135z" />
    <glyph glyph-name="caron" unicode="&#x2c7;" horiz-adv-x="486" 
d="M159 761l-99 150h135l47 -82h2l47 82h135l-99 -150h-168z" />
    <glyph glyph-name="breve" unicode="&#x2d8;" horiz-adv-x="484" 
d="M242 756c-93 0 -174 52 -174 145v10h117v-11c0 -40 30 -58 57 -58s57 18 57 58v11h117v-10c0 -93 -81 -145 -174 -145z" />
    <glyph glyph-name="dotaccent" unicode="&#x2d9;" horiz-adv-x="485" 
d="M171 779v132h143v-132h-143z" />
    <glyph glyph-name="ring" unicode="&#x2da;" horiz-adv-x="485" 
d="M242 747c-53 0 -109 26 -109 85s56 86 109 86s110 -27 110 -86s-57 -85 -110 -85zM242 797c21 0 35 14 35 35c0 22 -14 36 -35 36c-20 0 -34 -14 -34 -36c0 -21 13 -35 34 -35z" />
    <glyph glyph-name="ogonek" unicode="&#x2db;" horiz-adv-x="486" 
d="M146 -111c0 80 104 139 104 139l90 -14s-57 -49 -57 -75c0 -22 38 -25 38 -25l-42 -124s-133 13 -133 99z" />
    <glyph glyph-name="tilde" unicode="&#x2dc;" horiz-adv-x="485" 
d="M41 761c0 101 41 153 128 153c67 0 88 -60 126 -60c24 0 37 19 37 57h112c0 -101 -41 -153 -128 -153c-67 0 -88 60 -126 60c-24 0 -37 -19 -37 -57h-112z" />
    <glyph glyph-name="hungarumlaut" unicode="&#x2dd;" horiz-adv-x="485" 
d="M225 761l81 150h163l-118 -150h-126zM17 761l76 150h139l-79 -150h-136z" />
    <glyph glyph-name="uni1E9E" unicode="&#x1e9e;" horiz-adv-x="704" 
d="M69 0v480c0 141 96 235 241 235h326v-120l-92 -148c-9 -15 -20 -29 -20 -29v-2l9 -2c89 -20 133 -115 133 -196c0 -124 -104 -218 -231 -218h-118v150h105c44 0 64 34 64 68c0 33 -19 66 -64 66h-80v120l53 97c26 48 45 65 45 65v2s-9 -3 -45 -3h-84
c-37 0 -63 -35 -63 -81v-484h-179z" />
    <glyph glyph-name="endash" unicode="&#x2013;" horiz-adv-x="720" 
d="M62 222v130h596v-130h-596z" />
    <glyph glyph-name="emdash" unicode="&#x2014;" horiz-adv-x="920" 
d="M62 222v130h796v-130h-796z" />
    <glyph glyph-name="quoteleft" unicode="&#x2018;" horiz-adv-x="280" 
d="M40 475l89 255h117l-54 -255h-152z" />
    <glyph glyph-name="quoteright" unicode="&#x2019;" horiz-adv-x="272" 
d="M46 475l54 255h152l-89 -255h-117z" />
    <glyph glyph-name="quotesinglbase" unicode="&#x201a;" horiz-adv-x="276" 
d="M26 -89l54 255h147l-89 -255h-112z" />
    <glyph glyph-name="quotedblleft" unicode="&#x201c;" horiz-adv-x="479" 
d="M238 475l89 255h118l-54 -255h-153zM40 475l89 255h118l-54 -255h-153z" />
    <glyph glyph-name="quotedblright" unicode="&#x201d;" horiz-adv-x="471" 
d="M244 475l54 255h153l-89 -255h-118zM46 475l54 255h153l-89 -255h-118z" />
    <glyph glyph-name="quotedblbase" unicode="&#x201e;" horiz-adv-x="468" 
d="M218 -89l54 255h147l-89 -255h-112zM26 -89l54 255h147l-89 -255h-112z" />
    <glyph glyph-name="dagger" unicode="&#x2020;" horiz-adv-x="492" 
d="M163 -50v435h-130v130h130v200h165v-200h131v-130h-131v-435h-165z" />
    <glyph glyph-name="daggerdbl" unicode="&#x2021;" horiz-adv-x="522" 
d="M48 150v130h130v105h-130v130h130v200h165v-200h131v-130h-131v-105h131v-130h-131v-200h-165v200h-130z" />
    <glyph glyph-name="bullet" unicode="&#x2022;" horiz-adv-x="522" 
d="M261 105c-103 0 -186 83 -186 186s83 186 186 186s186 -83 186 -186s-83 -186 -186 -186z" />
    <glyph glyph-name="ellipsis" unicode="&#x2026;" horiz-adv-x="924" 
d="M707 0v164h158v-164h-158zM383 0v164h158v-164h-158zM59 0v164h158v-164h-158z" />
    <glyph glyph-name="perthousand" unicode="&#x2030;" horiz-adv-x="1261" 
d="M220 382c-101 0 -181 76 -181 172c0 94 80 173 181 173c100 0 181 -79 181 -173c0 -96 -81 -172 -181 -172zM79 0l552 715h152l-552 -715h-152zM220 502c30 0 55 23 55 53c0 28 -25 52 -55 52s-55 -24 -55 -52c0 -30 25 -53 55 -53zM868 160c0 94 80 173 181 173
c100 0 181 -79 181 -173c0 -96 -81 -172 -181 -172c-101 0 -181 76 -181 172zM466 160c0 94 80 173 181 173c100 0 181 -79 181 -173c0 -96 -81 -172 -181 -172c-101 0 -181 76 -181 172zM994 161c0 -30 25 -53 55 -53s55 23 55 53c0 28 -25 52 -55 52s-55 -24 -55 -52z
M592 161c0 -30 25 -53 55 -53s55 23 55 53c0 28 -25 52 -55 52s-55 -24 -55 -52z" />
    <glyph glyph-name="guilsinglleft" unicode="&#x2039;" horiz-adv-x="394" 
d="M196 77l-164 205l164 206h158l-164 -206l164 -205h-158z" />
    <glyph glyph-name="guilsinglright" unicode="&#x203a;" horiz-adv-x="394" 
d="M40 77l164 205l-164 206h158l164 -206l-164 -205h-158z" />
    <glyph glyph-name="fraction" unicode="&#x2044;" horiz-adv-x="196" 
d="M-10 0h-119l336 715h119z" />
    <glyph glyph-name="Euro" unicode="&#x20ac;" horiz-adv-x="600" 
d="M26 237v96h56c-2 15 -3 30 -1 48h-55v96h72c46 147 182 250 347 250c39 0 78 -6 117 -14l-43 -158c-21 7 -52 10 -79 10c-69 0 -124 -32 -154 -88h216l-20 -96h-219c-2 -16 -1 -32 2 -48h207l-20 -96h-155c32 -53 89 -84 151 -84c32 0 64 6 95 15l30 -160
c-34 -12 -84 -20 -128 -20c-172 0 -299 101 -345 249h-74z" />
    <glyph glyph-name="trademark" unicode="&#x2122;" horiz-adv-x="1023" 
d="M481 268l35 447h118l73 -175c6 -15 13 -44 13 -44h2s7 29 13 44l73 175h118l33 -447h-127l-10 174c-1 15 1 32 1 32h-2l-51 -125h-98l-51 125h-2s2 -17 1 -32l-12 -174h-127zM196 268v338h-142v109h408v-109h-140v-338h-126z" />
    <glyph glyph-name="minus" unicode="&#x2212;" horiz-adv-x="600" 
d="M27 222v130h546v-130h-546z" />
    <glyph glyph-name="infinity" unicode="&#x221e;" horiz-adv-x="513" 
d="M257 143c-113 0 -206 93 -206 206c0 114 93 205 206 205c114 0 205 -91 205 -205c0 -113 -91 -206 -205 -206z" />
    <glyph glyph-name="approxequal" unicode="&#x2248;" horiz-adv-x="600" 
d="M99 322l-63 99c41 41 100 81 165 81c94 0 127 -70 198 -70c38 0 77 25 102 54l63 -99c-40 -40 -99 -81 -165 -81c-94 0 -127 70 -198 70c-39 0 -76 -26 -102 -54zM99 93l-63 99c41 41 100 81 165 81c94 0 127 -70 198 -70c38 0 77 25 102 54l63 -99
c-40 -40 -99 -81 -165 -81c-94 0 -127 70 -198 70c-39 0 -76 -26 -102 -54z" />
    <glyph glyph-name="notequal" unicode="&#x2260;" horiz-adv-x="600" 
d="M97 47l38 60h-88v130h171l64 100h-235v130h319l69 108l76 -49l-38 -59h80v-130h-163l-64 -100h227v-130h-310l-68 -107z" />
    <glyph glyph-name="lessequal" unicode="&#x2264;" horiz-adv-x="600" 
d="M40 234v107l504 223v-145l-330 -131v-2l330 -130v-145zM43 -70h501v-130h-501v130z" />
    <glyph glyph-name="greaterequal" unicode="&#x2265;" horiz-adv-x="600" 
d="M56 11v145l330 130v2l-330 131v145l504 -223v-107zM57 -70h501v-130h-501v130z" />
    <glyph glyph-name="commaaccent" unicode="&#xf6c3;" horiz-adv-x="335" 
d="M105 -49h136c5 -21 7 -39 7 -58c0 -35 -9 -65 -28 -103h-123c12 35 20 63 20 93c0 19 -3 42 -12 68z" />
    <glyph glyph-name="apple" unicode="&#xf8ff;" horiz-adv-x="1130" 
d="M168 -5v152l-126 72v278l126 71v151l265 142l134 -71l132 71l265 -142v-151l124 -71v-278l-124 -72v-152l-265 -141l-132 71l-134 -71zM208 30l238 -126l121 66l118 -66l238 126v139l114 64v249l-114 66v136l-238 126l-118 -64l-121 64l-238 -126v-136l-114 -66v-249
l114 -64v-139zM242 64v121l-99 60v225l99 58v123l215 114l110 -59l107 59l214 -114v-123l100 -58v-225l-100 -60v-121l-214 -114l-107 58l-110 -58zM447 91h43v228h228v40h-228v192h199c23 0 29 -8 29 -29v-42h42v54c0 39 -15 57 -58 57h-320v-40h65v-460z" />
    <glyph glyph-name="zero.tnum" horiz-adv-x="600" 
d="M300 -12c-203 0 -269 166 -269 371s66 368 269 368s269 -163 269 -368s-66 -371 -269 -371zM300 148c69 0 89 94 89 211c0 116 -20 208 -89 208s-89 -92 -89 -208c0 -117 20 -211 89 -211z" />
    <glyph glyph-name="one.tnum" horiz-adv-x="600" 
d="M79 0v150h152v298c0 27 1 55 1 55h-2s-9 -20 -28 -38l-43 -39l-101 108l193 181h151v-565h153v-150h-476z" />
    <glyph glyph-name="two.tnum" horiz-adv-x="600" 
d="M56 0c-5 28 -8 53 -8 77c0 264 309 311 309 414c0 50 -40 71 -77 71c-46 0 -85 -36 -106 -76l-130 87c42 81 123 154 252 154c117 0 244 -67 244 -219c0 -223 -289 -266 -298 -358h309v-150h-495z" />
    <glyph glyph-name="three.tnum" horiz-adv-x="600" 
d="M39 82l84 135c36 -35 92 -64 147 -64c65 0 102 32 102 71c0 56 -56 79 -133 79h-50l-37 85l94 113c34 41 62 67 62 67v2s-23 -5 -68 -5h-171v150h451v-109l-145 -167c106 -23 173 -107 173 -207c0 -122 -86 -244 -265 -244c-86 0 -180 29 -244 94z" />
    <glyph glyph-name="four.tnum" horiz-adv-x="600" 
d="M7 173v106l276 436h214v-397h85v-145h-85v-173h-173v173h-317zM185 318h139v160c0 39 6 80 6 80h-2s-15 -44 -35 -74l-108 -164v-2z" />
    <glyph glyph-name="five.tnum" horiz-adv-x="600" 
d="M46 82l84 135c35 -33 91 -64 145 -64c47 0 100 29 100 88c0 56 -49 89 -114 89c-33 0 -66 -9 -96 -24l-93 35l29 374h400v-150h-248l-4 -66c-1 -14 -4 -28 -4 -28h2c8 3 39 7 52 7c170 0 256 -106 256 -235c0 -148 -109 -255 -265 -255c-88 0 -178 31 -244 94z" />
    <glyph glyph-name="six.tnum" horiz-adv-x="600" 
d="M37 330c0 194 119 397 341 397c51 0 112 -9 158 -31l-47 -150c-16 9 -66 21 -98 21c-84 0 -132 -52 -154 -118h2c17 12 64 25 98 25c149 0 234 -122 234 -245c0 -121 -89 -241 -244 -241c-144 0 -290 109 -290 342zM327 148c44 0 72 38 72 80c0 51 -31 105 -108 105
c-40 0 -74 -10 -74 -43c0 -85 60 -142 110 -142z" />
    <glyph glyph-name="seven.tnum" horiz-adv-x="600" 
d="M81 0l253 501c25 49 42 65 42 65v2s-6 -3 -42 -3h-283v150h513v-122l-300 -593h-183z" />
    <glyph glyph-name="eight.tnum" horiz-adv-x="600" 
d="M32 210c0 88 70 152 99 174c-38 34 -65 77 -65 137c0 104 73 206 240 206c133 0 242 -74 242 -207c0 -72 -51 -141 -70 -164c48 -33 84 -78 84 -150c0 -109 -88 -218 -265 -218c-174 0 -265 108 -265 222zM351 419c10 16 26 47 26 88c0 40 -28 66 -75 66
c-45 0 -65 -25 -65 -56c0 -47 52 -72 114 -98zM211 225c0 -46 38 -83 86 -83c53 0 86 26 86 73c0 41 -63 65 -133 98c-17 -18 -39 -49 -39 -88z" />
    <glyph glyph-name="nine.tnum" horiz-adv-x="600" 
d="M63 19l47 150c28 -12 63 -21 98 -21c84 0 132 52 154 118h-2c-16 -13 -64 -25 -98 -25c-149 0 -234 122 -234 245c0 121 89 241 244 241c144 0 290 -109 290 -342c0 -194 -119 -397 -341 -397c-53 0 -110 8 -158 31zM308 382c40 0 74 10 74 43c0 85 -60 142 -110 142
c-44 0 -72 -38 -72 -80c0 -51 31 -105 108 -105z" />
    <glyph glyph-name="hyphen.case" horiz-adv-x="432" 
d="M59 272v150h314v-150h-314z" />
    <glyph glyph-name="parenleft.case" horiz-adv-x="332" 
d="M164 -65c-77 122 -124 274 -124 442c0 144 45 281 124 403h142c-74 -124 -113 -263 -113 -403c0 -150 39 -301 113 -442h-142z" />
    <glyph glyph-name="parenright.case" horiz-adv-x="332" 
d="M26 -65c74 141 113 292 113 442c0 140 -39 279 -113 403h142c79 -122 124 -259 124 -403c0 -168 -47 -320 -124 -442h-142z" />
    <glyph glyph-name="bracketleft.case" horiz-adv-x="352" 
d="M70 -65v845h246v-120h-102v-605h102v-120h-246z" />
    <glyph glyph-name="bracketright.case" horiz-adv-x="352" 
d="M36 55h102v605h-102v120h246v-845h-246v120z" />
    <glyph glyph-name="braceleft.case" horiz-adv-x="396" 
d="M117 92v98c0 54 -28 91 -85 96v150c52 5 85 38 85 99v88c0 143 129 162 199 162c25 0 43 -2 43 -2v-124s-11 2 -25 2c-29 0 -73 -8 -73 -54v-117c0 -63 -36 -111 -84 -127v-2c45 -16 84 -53 84 -126v-127c0 -46 44 -54 73 -54c14 0 25 2 25 2v-124s-18 -2 -43 -2
c-70 0 -199 19 -199 162z" />
    <glyph glyph-name="braceright.case" horiz-adv-x="396" 
d="M37 56c0 0 11 -2 25 -2c29 0 73 8 73 54v127c0 54 28 111 84 126v2c-42 13 -84 60 -84 127v117c0 46 -44 54 -73 54c-14 0 -25 -2 -25 -2v124s18 2 43 2c70 0 199 -19 199 -162v-88c0 -51 27 -95 85 -99v-150c-53 -2 -85 -44 -85 -96v-98c0 -143 -129 -162 -199 -162
c-25 0 -43 2 -43 2v124z" />
    <glyph glyph-name="at.case" horiz-adv-x="844" 
d="M45 355c0 211 168 376 393 376c221 0 298 -110 298 -240v-198h74v-119h-283c-150 0 -227 91 -227 182c0 88 74 176 227 176h49c0 43 -73 64 -135 64c-130 0 -227 -120 -227 -241c0 -127 88 -239 252 -239v-130c-262 0 -421 163 -421 369zM471 360c0 -37 22 -67 66 -67h39
v134h-37c-46 0 -68 -31 -68 -67z" />
    <glyph glyph-name="guillemotleft.case" horiz-adv-x="653" 
d="M456 137l-164 205l164 206h158l-164 -206l164 -205h-158zM196 137l-164 205l164 206h158l-164 -206l164 -205h-158z" />
    <glyph glyph-name="guillemotright.case" horiz-adv-x="653" 
d="M299 137l164 205l-164 206h158l164 -206l-164 -205h-158zM39 137l164 205l-164 206h158l164 -206l-164 -205h-158z" />
    <glyph glyph-name="guilsinglleft.case" horiz-adv-x="393" 
d="M196 137l-164 205l164 206h158l-164 -206l164 -205h-158z" />
    <glyph glyph-name="guilsinglright.case" horiz-adv-x="393" 
d="M39 137l164 205l-164 206h158l164 -206l-164 -205h-158z" />
    <glyph glyph-name="endash.case" horiz-adv-x="714" 
d="M59 282v130h596v-130h-596z" />
    <glyph glyph-name="emdash.case" horiz-adv-x="914" 
d="M59 282v130h796v-130h-796z" />
    <glyph glyph-name="periodcentered.case" horiz-adv-x="276" 
d="M59 263v164h158v-164h-158z" />
    <glyph glyph-name="questiondown.case" horiz-adv-x="510" 
d="M374 494v-50c0 -135 -157 -159 -157 -243c0 -34 33 -59 71 -59c36 0 69 20 95 43l96 -117c-43 -43 -113 -83 -209 -83c-112 0 -233 67 -233 196c0 164 171 188 171 277v36h166zM370 715v-150h-158v150h158z" />
    <glyph glyph-name="exclamdown.case" horiz-adv-x="308" 
d="M228 494l16 -494h-180l16 494h148zM233 715v-150h-158v150h158z" />
    <glyph glyph-name="bullet.case" horiz-adv-x="520" 
d="M260 170c-103 0 -186 83 -186 186s83 186 186 186s186 -83 186 -186s-83 -186 -186 -186z" />
    <glyph glyph-name="zero.p_osf" horiz-adv-x="585" 
d="M37 278c0 144 73 289 256 289s255 -146 255 -291c0 -147 -73 -288 -254 -288c-184 0 -257 145 -257 290zM211 278c0 -73 17 -146 82 -146s82 72 82 144c0 73 -18 147 -82 147c-65 0 -82 -73 -82 -145z" />
    <glyph glyph-name="one.p_osf" horiz-adv-x="522" 
d="M56 0v145h143v162c0 27 1 74 1 74h-2s-15 -18 -38 -32l-55 -31l-79 118l193 119h147v-410h134v-145h-444z" />
    <glyph glyph-name="two.p_osf" horiz-adv-x="557" 
d="M48 0v115c80 48 269 166 269 247c0 42 -36 57 -66 57c-50 0 -101 -36 -134 -70l-88 111c53 61 147 107 246 107c100 0 217 -52 217 -181c0 -122 -108 -197 -197 -244v-2s23 5 68 5h155v-145h-470z" />
    <glyph glyph-name="three.p_osf" horiz-adv-x="548" 
d="M18 -41l75 121c37 -34 93 -64 147 -64c66 0 103 30 103 72c0 63 -74 85 -128 85h-59l-37 79l90 111c26 32 51 49 51 49v1s-23 -4 -68 -4h-138v146h431v-98l-147 -166c103 -18 179 -94 179 -190c0 -119 -90 -229 -269 -229c-82 0 -170 27 -230 87z" />
    <glyph glyph-name="four.p_osf" horiz-adv-x="612" 
d="M17 23v106l257 426h223v-387h85v-145h-85v-139h-173v139h-307zM195 168h129v156c0 39 6 80 6 80h-2s-16 -43 -35 -74z" />
    <glyph glyph-name="five.p_osf" horiz-adv-x="551" 
d="M26 -42l73 122c36 -34 92 -64 146 -64c49 0 107 26 107 84c0 59 -50 93 -112 93c-58 0 -101 -22 -101 -22l-88 33l29 351h385v-146h-238l-4 -64c-1 -15 -4 -27 -4 -27h2s25 7 52 7c167 0 253 -101 253 -216c0 -144 -111 -237 -267 -237c-82 0 -169 27 -233 86z" />
    <glyph glyph-name="six.p_osf" horiz-adv-x="600" 
d="M41 305c0 184 111 378 330 378c53 0 107 -7 158 -29l-47 -135c-27 11 -64 20 -98 20c-79 0 -129 -58 -150 -117h2c17 11 65 23 99 23c146 0 229 -112 229 -228c0 -113 -87 -229 -239 -229c-144 0 -284 95 -284 317zM217 272c0 -77 48 -140 108 -140c41 0 67 34 67 82
s-30 98 -103 98c-38 0 -72 -9 -72 -40z" />
    <glyph glyph-name="seven.p_osf" horiz-adv-x="536" 
d="M57 -116l238 466c24 47 38 61 38 61v2s-5 -3 -41 -3h-269v145h502v-115l-287 -556h-181z" />
    <glyph glyph-name="eight.p_osf" horiz-adv-x="599" 
d="M39 197c0 78 65 140 95 164c-37 31 -63 71 -63 127c0 98 72 194 232 194c128 0 236 -70 236 -195c0 -66 -46 -135 -61 -156c45 -31 79 -73 79 -138c0 -102 -87 -205 -260 -205c-168 0 -258 102 -258 209zM350 392c7 12 24 44 24 83c0 38 -28 64 -73 64s-65 -25 -65 -54
c0 -44 52 -68 114 -93zM210 211c0 -43 38 -80 87 -80c53 0 86 26 86 70c0 39 -62 61 -131 92c-18 -17 -42 -46 -42 -82z" />
    <glyph glyph-name="nine.p_osf" horiz-adv-x="583" 
d="M110 36c28 -12 65 -20 98 -20c79 0 129 58 150 117h-2c-17 -11 -65 -23 -99 -23c-146 0 -229 112 -229 228c0 113 87 229 239 229c144 0 284 -95 284 -317c0 -184 -111 -378 -330 -378c-53 0 -109 8 -158 29zM303 243c38 0 72 9 72 40c0 77 -48 140 -108 140
c-41 0 -67 -34 -67 -82s30 -98 103 -98z" />
    <glyph glyph-name="zero.t_osf" horiz-adv-x="600" 
d="M44 278c0 144 73 289 256 289s255 -146 255 -291c0 -147 -73 -288 -254 -288c-184 0 -257 145 -257 290zM218 278c0 -73 17 -146 82 -146s82 72 82 144c0 73 -18 147 -82 147c-65 0 -82 -73 -82 -145z" />
    <glyph glyph-name="one.t_osf" horiz-adv-x="600" 
d="M96 0v145h143v162c0 27 1 74 1 74h-2s-15 -18 -38 -32l-55 -31l-79 118l193 119h147v-410h134v-145h-444z" />
    <glyph glyph-name="two.t_osf" horiz-adv-x="600" 
d="M71 0v115c80 48 269 166 269 247c0 42 -36 57 -66 57c-50 0 -101 -36 -134 -70l-88 111c53 61 147 107 246 107c100 0 217 -52 217 -181c0 -122 -108 -197 -197 -244v-2s23 5 68 5h155v-145h-470z" />
    <glyph glyph-name="three.t_osf" horiz-adv-x="600" 
d="M46 -39l75 121c36 -34 92 -64 146 -64c66 0 103 30 103 72c0 62 -74 84 -128 84h-59l-36 79l89 111c26 31 51 48 51 48v1s-23 -4 -68 -4h-137v146h429v-98l-146 -165c102 -18 178 -94 178 -189c0 -119 -90 -228 -268 -228c-82 0 -169 26 -229 86z" />
    <glyph glyph-name="four.t_osf" horiz-adv-x="600" 
d="M13 23v106l257 426h223v-387h85v-145h-85v-139h-173v139h-307zM191 168h129v156c0 39 6 80 6 80h-2s-16 -43 -35 -74z" />
    <glyph glyph-name="five.t_osf" horiz-adv-x="600" 
d="M51 -42l73 122c36 -34 92 -64 146 -64c49 0 107 26 107 84c0 59 -50 93 -112 93c-58 0 -101 -22 -101 -22l-88 33l29 351h385v-146h-238l-4 -64c-1 -15 -4 -27 -4 -27h2s25 7 52 7c167 0 253 -101 253 -216c0 -144 -111 -237 -267 -237c-82 0 -169 27 -233 86z" />
    <glyph glyph-name="six.t_osf" horiz-adv-x="600" 
d="M42 305c0 184 111 378 330 378c53 0 107 -7 158 -29l-47 -135c-27 11 -64 20 -98 20c-79 0 -129 -58 -150 -117h2c17 11 65 23 99 23c146 0 229 -112 229 -228c0 -113 -87 -229 -239 -229c-144 0 -284 95 -284 317zM218 272c0 -77 48 -140 108 -140c41 0 67 34 67 82
s-30 98 -103 98c-38 0 -72 -9 -72 -40z" />
    <glyph glyph-name="seven.t_osf" horiz-adv-x="600" 
d="M90 -116l238 466c24 47 38 61 38 61v2s-5 -3 -41 -3h-269v145h502v-115l-287 -556h-181z" />
    <glyph glyph-name="eight.t_osf" horiz-adv-x="600" 
d="M39 197c0 78 65 140 95 164c-37 31 -63 71 -63 127c0 98 72 194 232 194c128 0 236 -70 236 -195c0 -66 -46 -135 -61 -156c45 -31 79 -73 79 -138c0 -102 -87 -205 -260 -205c-168 0 -258 102 -258 209zM350 392c7 12 24 44 24 83c0 38 -28 64 -73 64s-65 -25 -65 -54
c0 -44 52 -68 114 -93zM210 211c0 -43 38 -80 87 -80c53 0 86 26 86 70c0 39 -62 61 -131 92c-18 -17 -42 -46 -42 -82z" />
    <glyph glyph-name="nine.t_osf" horiz-adv-x="600" 
d="M118 36c28 -12 65 -20 98 -20c79 0 129 58 150 117h-2c-17 -11 -65 -23 -99 -23c-146 0 -229 112 -229 228c0 113 87 229 239 229c144 0 284 -95 284 -317c0 -184 -111 -378 -330 -378c-53 0 -109 8 -158 29zM311 243c38 0 72 9 72 40c0 77 -48 140 -108 140
c-41 0 -67 -34 -67 -82s30 -98 103 -98z" />
    <glyph glyph-name="dollar.osf" horiz-adv-x="542" 
d="M34 83l78 129c36 -36 91 -72 146 -72c45 0 67 13 67 34c0 54 -276 64 -276 246c0 90 72 152 173 171v93h109v-90c58 -7 115 -27 161 -64l-61 -138c-35 30 -87 53 -133 53c-42 0 -69 -8 -69 -36c0 -49 276 -52 276 -237c0 -84 -64 -158 -174 -178v-94h-109v91
c-70 10 -138 42 -188 92z" />
    <glyph glyph-name="cent.osf" horiz-adv-x="556" 
d="M235 -30v84c-128 30 -197 134 -197 246c0 111 69 215 197 246v83h114v-76c61 -7 119 -34 167 -78l-78 -124c-25 29 -67 52 -108 52c-84 0 -120 -54 -120 -101c0 -51 36 -105 120 -105c41 0 79 23 108 52l78 -124c-42 -42 -101 -68 -167 -78v-77h-114z" />
    <glyph glyph-name="sterling.osf" horiz-adv-x="619" 
d="M51 0v145h55v86h-43v108h43v42c0 128 113 216 254 216c68 0 140 -19 196 -60l-74 -127c-31 21 -75 35 -117 35s-84 -25 -84 -64v-42h180v-108h-180v-86h289v-145h-519z" />
    <glyph glyph-name="yen.osf" horiz-adv-x="673" 
d="M86 118v96h161v7l-41 71h-120v96h65l-112 197h199l53 -118c22 -49 43 -110 43 -110h2s21 61 43 110l53 118h199l-113 -197h74v-96h-129l-41 -71v-7h170v-96h-170v-118h-175v118h-161z" />
    <glyph glyph-name="florin.osf" horiz-adv-x="602" 
d="M50 27c0 0 54 -7 70 -7c33 0 88 9 93 64l16 182h-64v135h75l9 90c16 169 166 192 251 192c31 0 88 -8 88 -8v-146s-60 7 -76 7c-34 0 -89 -9 -94 -64l-7 -71h96v-135h-108l-17 -201c-15 -169 -167 -192 -250 -192c-31 0 -82 8 -82 8v146z" />
    <glyph glyph-name="Euro.osf" horiz-adv-x="591" 
d="M42 184v86h64c-1 8 -1 30 -1 45h-63v86h79c39 108 142 196 310 196c34 0 70 -3 103 -12l-37 -135c-19 6 -47 9 -70 9c-56 0 -98 -24 -123 -58h184l-19 -86h-190c-2 -13 0 -35 2 -45h182l-16 -86h-132c26 -33 67 -55 119 -55c28 0 59 4 87 14l25 -137
c-32 -11 -76 -18 -115 -18c-164 0 -267 87 -308 196h-81z" />
    <glyph glyph-name="zero.numerator" 
d="M200 264c-129 0 -170 103 -170 231c0 129 41 230 170 230s170 -101 170 -230c0 -128 -41 -231 -170 -231zM200 379c34 0 43 52 43 116c0 63 -9 114 -43 114c-33 0 -43 -51 -43 -114c0 -64 10 -116 43 -116z" />
    <glyph glyph-name="one.numerator" 
d="M58 274v108h89v143c0 19 3 32 3 32h-2s-5 -10 -11 -15l-24 -22l-72 79l124 116h108v-333h90v-108h-305z" />
    <glyph glyph-name="two.numerator" 
d="M37 274c-3 17 -5 34 -5 49c0 179 199 186 199 253c0 23 -22 34 -45 34c-30 0 -54 -24 -71 -45l-83 71c32 53 95 89 163 89c76 0 163 -43 163 -143c0 -139 -175 -158 -185 -200h191v-108h-327z" />
    <glyph glyph-name="three.numerator" 
d="M186 264c-58 0 -121 22 -160 68l61 90c21 -26 57 -43 91 -43s54 18 54 42c0 25 -29 36 -62 36h-37l-24 57l62 69c7 9 24 23 24 23v2s-21 -2 -34 -2h-110v109h294v-79l-83 -91c68 -17 97 -66 97 -126c0 -77 -59 -155 -173 -155z" />
    <glyph glyph-name="four.numerator" 
d="M206 274v87h-197v84l171 270h150v-247h53v-107h-53v-87h-124zM128 468h78v90c0 25 4 50 4 50h-2s-9 -27 -21 -46l-59 -92v-2z" />
    <glyph glyph-name="five.numerator" 
d="M193 264c-59 0 -120 22 -163 65l63 93c19 -24 56 -43 90 -43c27 0 57 16 57 46s-27 47 -61 47c-21 0 -46 -4 -65 -13l-65 24l20 232h266v-109h-164l-2 -23c-1 -11 -3 -16 -3 -16l2 -1c12 3 26 4 43 4c95 0 156 -67 156 -146s-59 -160 -174 -160z" />
    <glyph glyph-name="six.numerator" 
d="M215 264c-91 0 -183 65 -183 209c0 122 74 252 213 252c35 0 76 -8 106 -24l-32 -108c-15 8 -39 16 -66 16c-34 0 -63 -15 -76 -52h2c12 4 25 6 37 6c102 0 157 -67 157 -146c0 -77 -57 -153 -158 -153zM215 379c21 0 33 19 33 39c0 26 -15 58 -54 58
c-19 0 -34 -7 -34 -19c0 -48 27 -78 55 -78z" />
    <glyph glyph-name="seven.numerator" 
d="M39 274l176 308c11 19 16 24 16 24v2s-17 -2 -30 -2h-161v109h334v-85l-198 -356h-137z" />
    <glyph glyph-name="eight.numerator" 
d="M201 264c-87 0 -175 46 -175 139c0 49 42 88 64 106c-25 21 -43 48 -43 88c0 86 76 128 155 128c78 0 159 -44 159 -129c0 -44 -39 -89 -49 -100c33 -21 59 -51 59 -99c0 -88 -85 -133 -170 -133zM228 535c5 8 17 29 17 53c0 20 -23 31 -43 31c-19 0 -35 -8 -35 -28
c0 -26 26 -41 61 -56zM200 370c22 0 45 11 45 34c0 26 -35 42 -75 60c-11 -12 -23 -31 -23 -53c0 -27 26 -41 53 -41z" />
    <glyph glyph-name="nine.numerator" 
d="M49 288l32 108c19 -7 41 -16 66 -16c34 0 63 15 76 52h-2c-12 -4 -25 -6 -37 -6c-102 0 -157 68 -157 147c0 77 57 152 158 152c91 0 183 -65 183 -209c0 -122 -74 -252 -213 -252c-33 0 -77 8 -106 24zM206 513c19 0 34 7 34 19c0 48 -27 78 -55 78
c-21 0 -33 -18 -33 -38c0 -26 15 -59 54 -59z" />
    <glyph glyph-name="zerosuperior" unicode="&#x2070;" 
d="M200 413c-129 0 -170 103 -170 231c0 129 41 230 170 230s170 -101 170 -230c0 -128 -41 -231 -170 -231zM200 528c34 0 43 52 43 116c0 63 -9 114 -43 114c-33 0 -43 -51 -43 -114c0 -64 10 -116 43 -116z" />
    <glyph glyph-name="foursuperior" unicode="&#x2074;" 
d="M206 423v87h-197v84l171 270h150v-247h53v-107h-53v-87h-124zM128 617h78v90c0 25 4 50 4 50h-2s-9 -27 -21 -46l-59 -92v-2z" />
    <glyph glyph-name="fivesuperior" unicode="&#x2075;" 
d="M193 413c-59 0 -120 22 -163 65l63 93c19 -24 56 -43 90 -43c27 0 57 16 57 46s-27 47 -61 47c-21 0 -46 -4 -65 -13l-65 24l20 232h266v-109h-164l-2 -23c-1 -11 -3 -16 -3 -16l2 -1c12 3 26 4 43 4c95 0 156 -67 156 -146s-59 -160 -174 -160z" />
    <glyph glyph-name="sixsuperior" unicode="&#x2076;" 
d="M214 413c-91 0 -183 65 -183 209c0 122 74 252 213 252c35 0 76 -8 106 -24l-32 -108c-15 8 -39 16 -66 16c-34 0 -63 -15 -76 -52h2c12 4 25 6 37 6c102 0 157 -67 157 -146c0 -77 -57 -153 -158 -153zM214 528c21 0 33 19 33 39c0 26 -15 58 -54 58
c-19 0 -34 -7 -34 -19c0 -48 27 -78 55 -78z" />
    <glyph glyph-name="sevensuperior" unicode="&#x2077;" 
d="M39 423l176 308c11 19 16 24 16 24v2s-17 -2 -30 -2h-161v109h334v-85l-198 -356h-137z" />
    <glyph glyph-name="eightsuperior" unicode="&#x2078;" 
d="M201 413c-87 0 -175 46 -175 139c0 49 42 88 64 106c-25 21 -43 48 -43 88c0 86 76 128 155 128c78 0 159 -44 159 -129c0 -44 -39 -89 -49 -100c33 -21 59 -51 59 -99c0 -88 -85 -133 -170 -133zM228 684c5 8 17 29 17 53c0 20 -23 31 -43 31c-19 0 -35 -8 -35 -28
c0 -26 26 -41 61 -56zM200 519c22 0 45 11 45 34c0 26 -35 42 -75 60c-11 -12 -23 -31 -23 -53c0 -27 26 -41 53 -41z" />
    <glyph glyph-name="ninesuperior" unicode="&#x2079;" 
d="M49 437l32 108c19 -7 41 -16 66 -16c34 0 63 15 76 52h-2c-12 -4 -25 -6 -37 -6c-102 0 -157 68 -157 147c0 77 57 152 158 152c91 0 183 -65 183 -209c0 -122 -74 -252 -213 -252c-33 0 -77 8 -106 24zM206 662c19 0 34 7 34 19c0 48 -27 78 -55 78
c-21 0 -33 -18 -33 -38c0 -26 15 -59 54 -59z" />
    <glyph glyph-name="zeroinferior" unicode="&#x2080;" 
d="M200 -167c-129 0 -170 103 -170 231c0 129 41 230 170 230s170 -101 170 -230c0 -128 -41 -231 -170 -231zM200 -52c34 0 43 52 43 116c0 63 -9 114 -43 114c-33 0 -43 -51 -43 -114c0 -64 10 -116 43 -116z" />
    <glyph glyph-name="oneinferior" unicode="&#x2081;" 
d="M57 -157v108h89v143c0 19 3 32 3 32h-2s-5 -10 -11 -15l-24 -22l-72 79l124 116h108v-333h90v-108h-305z" />
    <glyph glyph-name="twoinferior" unicode="&#x2082;" 
d="M37 -157c-3 17 -5 34 -5 49c0 179 199 186 199 253c0 23 -22 34 -45 34c-30 0 -54 -24 -71 -45l-83 71c32 53 95 89 163 89c76 0 163 -43 163 -143c0 -139 -175 -158 -185 -200h191v-108h-327z" />
    <glyph glyph-name="threeinferior" unicode="&#x2083;" 
d="M187 -167c-58 0 -121 22 -160 68l61 90c21 -26 57 -43 91 -43s54 18 54 42c0 25 -29 36 -62 36h-37l-24 57l62 69c7 9 24 23 24 23v2s-21 -2 -34 -2h-110v109h294v-79l-83 -91c68 -17 97 -66 97 -126c0 -77 -59 -155 -173 -155z" />
    <glyph glyph-name="fourinferior" unicode="&#x2084;" 
d="M206 -157v87h-197v84l171 270h150v-247h53v-107h-53v-87h-124zM128 37h78v90c0 25 4 50 4 50h-2s-9 -27 -21 -46l-59 -92v-2z" />
    <glyph glyph-name="fiveinferior" unicode="&#x2085;" 
d="M193 -167c-59 0 -120 22 -163 65l63 93c19 -24 56 -43 90 -43c27 0 57 16 57 46s-27 47 -61 47c-21 0 -46 -4 -65 -13l-65 24l20 232h266v-109h-164l-2 -23c-1 -11 -3 -16 -3 -16l2 -1c12 3 26 4 43 4c95 0 156 -67 156 -146s-59 -160 -174 -160z" />
    <glyph glyph-name="sixinferior" unicode="&#x2086;" 
d="M214 -167c-91 0 -183 65 -183 209c0 122 74 252 213 252c35 0 76 -8 106 -24l-32 -108c-15 8 -39 16 -66 16c-34 0 -63 -15 -76 -52h2c12 4 25 6 37 6c102 0 157 -67 157 -146c0 -77 -57 -153 -158 -153zM214 -52c21 0 33 19 33 39c0 26 -15 58 -54 58
c-19 0 -34 -7 -34 -19c0 -48 27 -78 55 -78z" />
    <glyph glyph-name="seveninferior" unicode="&#x2087;" 
d="M39 -157l176 308c11 19 16 24 16 24v2s-17 -2 -30 -2h-161v109h334v-85l-198 -356h-137z" />
    <glyph glyph-name="eightinferior" unicode="&#x2088;" 
d="M201 -167c-87 0 -175 46 -175 139c0 49 42 88 64 106c-25 21 -43 48 -43 88c0 86 76 128 155 128c78 0 159 -44 159 -129c0 -44 -39 -89 -49 -100c33 -21 59 -51 59 -99c0 -88 -85 -133 -170 -133zM228 104c5 8 17 29 17 53c0 20 -23 31 -43 31c-19 0 -35 -8 -35 -28
c0 -26 26 -41 61 -56zM200 -61c22 0 45 11 45 34c0 26 -35 42 -75 60c-11 -12 -23 -31 -23 -53c0 -27 26 -41 53 -41z" />
    <glyph glyph-name="nineinferior" unicode="&#x2089;" 
d="M49 -143l32 108c19 -7 41 -16 66 -16c34 0 63 15 76 52h-2c-12 -4 -25 -6 -37 -6c-102 0 -157 68 -157 147c0 77 57 152 158 152c91 0 183 -65 183 -209c0 -122 -74 -252 -213 -252c-33 0 -77 8 -106 24zM206 82c19 0 34 7 34 19c0 48 -27 78 -55 78
c-21 0 -33 -18 -33 -38c0 -26 15 -59 54 -59z" />
    <glyph glyph-name="zero.denominator" 
d="M200 -10c-129 0 -170 103 -170 231c0 129 41 230 170 230s170 -101 170 -230c0 -128 -41 -231 -170 -231zM200 105c34 0 43 52 43 116c0 63 -9 114 -43 114c-33 0 -43 -51 -43 -114c0 -64 10 -116 43 -116z" />
    <glyph glyph-name="one.denominator" 
d="M58 0v108h89v143c0 19 3 32 3 32h-2s-5 -10 -11 -15l-24 -22l-72 79l124 116h108v-333h90v-108h-305z" />
    <glyph glyph-name="two.denominator" 
d="M37 0c-3 17 -5 34 -5 49c0 179 199 186 199 253c0 23 -22 34 -45 34c-30 0 -54 -24 -71 -45l-83 71c32 53 95 89 163 89c76 0 163 -43 163 -143c0 -139 -175 -158 -185 -200h191v-108h-327z" />
    <glyph glyph-name="three.denominator" 
d="M187 -10c-58 0 -121 22 -160 68l61 90c21 -26 57 -43 91 -43s54 18 54 42c0 25 -29 36 -62 36h-37l-24 57l62 69c7 9 24 23 24 23v2s-21 -2 -34 -2h-110v109h294v-79l-83 -91c68 -17 97 -66 97 -126c0 -77 -59 -155 -173 -155z" />
    <glyph glyph-name="four.denominator" 
d="M206 0v87h-197v84l171 270h150v-247h53v-107h-53v-87h-124zM128 194h78v90c0 25 4 50 4 50h-2s-9 -27 -21 -46l-59 -92v-2z" />
    <glyph glyph-name="five.denominator" 
d="M193 -10c-59 0 -120 22 -163 65l63 93c19 -24 56 -43 90 -43c27 0 57 16 57 46s-27 47 -61 47c-21 0 -46 -4 -65 -13l-65 24l20 232h266v-109h-164l-2 -23c-1 -11 -3 -16 -3 -16l2 -1c12 3 26 4 43 4c95 0 156 -67 156 -146s-59 -160 -174 -160z" />
    <glyph glyph-name="six.denominator" 
d="M214 -10c-91 0 -183 65 -183 209c0 122 74 252 213 252c35 0 76 -8 106 -24l-32 -108c-15 8 -39 16 -66 16c-34 0 -63 -15 -76 -52h2c12 4 25 6 37 6c102 0 157 -67 157 -146c0 -77 -57 -153 -158 -153zM214 105c21 0 33 19 33 39c0 26 -15 58 -54 58
c-19 0 -34 -7 -34 -19c0 -48 27 -78 55 -78z" />
    <glyph glyph-name="seven.denominator" 
d="M39 0l176 308c11 19 16 24 16 24v2s-17 -2 -30 -2h-161v109h334v-85l-198 -356h-137z" />
    <glyph glyph-name="eight.denominator" 
d="M201 -10c-87 0 -175 46 -175 139c0 49 42 88 64 106c-25 21 -43 48 -43 88c0 86 76 128 155 128c78 0 159 -44 159 -129c0 -44 -39 -89 -49 -100c33 -21 59 -51 59 -99c0 -88 -85 -133 -170 -133zM228 261c5 8 17 29 17 53c0 20 -23 31 -43 31c-19 0 -35 -8 -35 -28
c0 -26 26 -41 61 -56zM200 96c22 0 45 11 45 34c0 26 -35 42 -75 60c-11 -12 -23 -31 -23 -53c0 -27 26 -41 53 -41z" />
    <glyph glyph-name="nine.denominator" 
d="M49 14l32 108c19 -7 41 -16 66 -16c34 0 63 15 76 52h-2c-12 -4 -25 -6 -37 -6c-102 0 -157 68 -157 147c0 77 57 152 158 152c91 0 183 -65 183 -209c0 -122 -74 -252 -213 -252c-33 0 -77 8 -106 24zM206 239c19 0 34 7 34 19c0 48 -27 78 -55 78
c-21 0 -33 -18 -33 -38c0 -26 15 -59 54 -59z" />
    <glyph glyph-name="thinspace" unicode="&#x2009;" horiz-adv-x="20" 
 />
    <glyph glyph-name="uni00A0" unicode="&#xa0;" horiz-adv-x="250" 
 />
    <glyph glyph-name="uni00AD" unicode="&#xad;" horiz-adv-x="432" 
d="M59 212v150h314v-150h-314z" />
    <glyph glyph-name="cyrbreve" unicode="&#xf6d4;" horiz-adv-x="419" 
d="M208 747c-102 0 -190 55 -190 153v11h128v-12c0 -41 32 -59 62 -59c29 0 62 18 62 59v12h127v-11c0 -98 -88 -153 -189 -153z" />
    <glyph glyph-name="uni0410" unicode="&#x410;" horiz-adv-x="664" 
d="M-3 0l243 715h184l243 -715h-180l-44 150h-223l-43 -150h-180zM261 290h141l-40 139c-13 45 -29 123 -29 123h-2s-16 -78 -29 -123z" />
    <glyph glyph-name="uni0411" unicode="&#x411;" horiz-adv-x="633" 
d="M75 0v715h465v-150h-290v-111h122c139 0 233 -96 233 -228s-94 -226 -233 -226h-297zM250 150h89c58 0 88 31 88 76s-30 78 -91 78h-86v-154z" />
    <glyph glyph-name="uni0412" unicode="&#x412;" horiz-adv-x="647" 
d="M75 0v715h263c143 0 243 -64 243 -187c0 -60 -29 -121 -83 -152v-2c82 -25 112 -98 112 -161c0 -156 -130 -213 -272 -213h-263zM250 438h90c44 0 63 32 63 66c0 33 -19 61 -66 61h-87v-127zM250 150h105c51 0 76 35 76 75s-24 73 -75 73h-106v-148z" />
    <glyph glyph-name="uni0413" unicode="&#x413;" horiz-adv-x="523" 
d="M75 0v715h438v-150h-263v-565h-175z" />
    <glyph glyph-name="uni0414" unicode="&#x414;" horiz-adv-x="772" 
d="M261 149h221v416h-143v-33c0 -114 -19 -273 -78 -383zM8 149h74c73 127 91 268 91 397v169h484v-566h80v-289h-155v140h-413v-140h-161v289z" />
    <glyph glyph-name="uni0415" unicode="&#x415;" horiz-adv-x="576" 
d="M75 0v715h448v-150h-273v-130h218v-150h-218v-135h287v-150h-462z" />
    <glyph glyph-name="uni0416" unicode="&#x416;" horiz-adv-x="993" 
d="M6 0l192 371v2l-177 342h188l132 -276h68v276h175v-276h68l132 276h188l-177 -342v-2l192 -371h-196l-139 290h-68v-290h-175v290h-68l-139 -290h-196z" />
    <glyph glyph-name="uni0417" unicode="&#x417;" horiz-adv-x="569" 
d="M15 97l91 115c36 -35 92 -71 152 -71c61 0 94 28 94 80c0 42 -26 70 -84 70h-86v139h70c53 0 83 34 83 72c0 44 -31 75 -84 75c-45 0 -99 -20 -148 -59l-67 125c79 66 166 84 248 84c105 0 229 -63 229 -202c0 -82 -47 -129 -93 -156v-2c69 -24 112 -81 112 -159
c0 -139 -119 -220 -255 -220c-98 0 -193 38 -262 109z" />
    <glyph glyph-name="uni0418" unicode="&#x418;" horiz-adv-x="754" 
d="M75 0v715h175v-334c0 -45 -8 -122 -8 -122h2s32 75 60 122l198 334h177v-715h-175v333c0 45 8 122 8 122h-2s-32 -75 -60 -122l-199 -333h-176z" />
    <glyph glyph-name="uni0419" unicode="&#x419;" horiz-adv-x="754" 
d="M387 747c-102 0 -190 55 -190 153v11h128v-12c0 -41 32 -59 62 -59c29 0 62 18 62 59v12h127v-11c0 -98 -88 -153 -189 -153zM75 0v715h175v-334c0 -45 -8 -122 -8 -122h2s32 75 60 122l198 334h177v-715h-175v333c0 45 8 122 8 122h-2s-32 -75 -60 -122l-199 -333h-176z
" />
    <glyph glyph-name="uni041A" unicode="&#x41a;" horiz-adv-x="675" 
d="M75 0v715h175v-276h72l148 276h188l-193 -342v-2l204 -371h-196l-151 290h-72v-290h-175z" />
    <glyph glyph-name="uni041B" unicode="&#x41b;" horiz-adv-x="714" 
d="M16 151c85 11 143 73 143 329v235h480v-715h-175v565h-139v-87c0 -352 -108 -486 -309 -486v159z" />
    <glyph glyph-name="uni041C" unicode="&#x41c;" horiz-adv-x="874" 
d="M47 0l59 715h190l104 -302c16 -46 36 -118 36 -118h2s20 72 36 118l104 302h190l58 -715h-175l-22 322c-4 54 0 120 0 120h-2s-24 -75 -40 -120l-75 -207h-150l-75 207c-16 45 -40 120 -40 120h-2s4 -66 0 -120l-22 -322h-176z" />
    <glyph glyph-name="uni041D" unicode="&#x41d;" horiz-adv-x="760" 
d="M75 0v715h175v-286h260v286h175v-715h-175v280h-260v-280h-175z" />
    <glyph glyph-name="uni041E" unicode="&#x41e;" horiz-adv-x="820" 
d="M36 362c0 205 158 365 374 365s374 -160 374 -365c0 -210 -158 -374 -374 -374s-374 164 -374 374zM217 362c0 -122 86 -214 193 -214s193 92 193 214c0 117 -86 205 -193 205s-193 -88 -193 -205z" />
    <glyph glyph-name="uni041F" unicode="&#x41f;" horiz-adv-x="754" 
d="M75 0v715h604v-715h-175v566h-254v-566h-175z" />
    <glyph glyph-name="uni0420" unicode="&#x420;" horiz-adv-x="625" 
d="M75 0v715h297c139 0 233 -102 233 -246s-94 -248 -233 -248h-122v-221h-175zM250 371h86c61 0 91 41 91 98s-30 96 -88 96h-89v-194z" />
    <glyph glyph-name="uni0421" unicode="&#x421;" horiz-adv-x="714" 
d="M37 359c0 208 154 368 375 368c96 0 198 -32 268 -101l-81 -132c-46 40 -115 73 -179 73c-143 0 -202 -101 -202 -204c0 -106 64 -215 202 -215c71 0 141 39 190 88l90 -128c-63 -65 -157 -120 -288 -120c-230 0 -375 159 -375 371z" />
    <glyph glyph-name="uni0422" unicode="&#x422;" horiz-adv-x="635" 
d="M230 0v565h-217v150h609v-150h-217v-565h-175z" />
    <glyph glyph-name="uni0423" unicode="&#x423;" horiz-adv-x="631" 
d="M54 42l76 131c19 -16 46 -36 79 -36c28 0 47 13 57 37l-276 541h192l119 -257c24 -51 39 -96 39 -96h2s11 45 28 95l88 258h184l-211 -536c-33 -84 -88 -191 -214 -191c-63 0 -113 19 -163 54z" />
    <glyph glyph-name="uni0424" unicode="&#x424;" horiz-adv-x="865" 
d="M25 382c0 167 129 295 320 295v73h175v-73c191 0 320 -128 320 -295c0 -172 -129 -304 -320 -304v-90h-175v90c-191 0 -320 132 -320 304zM520 224c81 0 142 71 142 158c0 82 -61 149 -142 149v-307zM203 382c0 -87 61 -158 142 -158v307c-81 0 -142 -67 -142 -149z" />
    <glyph glyph-name="uni0425" unicode="&#x425;" horiz-adv-x="659" 
d="M8 0l217 355l-218 360h199l78 -147c24 -45 44 -92 44 -92h2s19 46 44 92l79 147h199l-219 -360l218 -355h-195l-82 150c-25 45 -44 89 -44 89h-2s-19 -44 -44 -89l-82 -150h-194z" />
    <glyph glyph-name="uni0426" unicode="&#x426;" horiz-adv-x="793" 
d="M75 0v715h175v-566h248v566h175v-566h88v-289h-155v140h-531z" />
    <glyph glyph-name="uni0427" unicode="&#x427;" horiz-adv-x="692" 
d="M262 253c-151 0 -224 86 -224 224v238h179v-197c0 -68 29 -106 95 -106c54 0 101 18 126 33v270h179v-715h-179v259c0 14 2 32 2 32h-2c-35 -15 -101 -38 -176 -38z" />
    <glyph glyph-name="uni0428" unicode="&#x428;" horiz-adv-x="1035" 
d="M75 0v715h175v-566h180v566h175v-566h180v566h175v-715h-885z" />
    <glyph glyph-name="uni0429" unicode="&#x429;" horiz-adv-x="1080" 
d="M75 0v715h175v-566h180v566h175v-566h180v566h175v-566h88v-289h-155v140h-818z" />
    <glyph glyph-name="uni042A" unicode="&#x42a;" horiz-adv-x="735" 
d="M185 0v565h-180v150h355v-221h122c139 0 233 -104 233 -248s-94 -246 -233 -246h-297zM360 150h89c58 0 88 39 88 96s-30 98 -91 98h-86v-194z" />
    <glyph glyph-name="uni042B" unicode="&#x42b;" horiz-adv-x="925" 
d="M675 0v715h175v-715h-175zM75 0v715h175v-221h112c139 0 233 -104 233 -248s-94 -246 -233 -246h-287zM250 150h79c58 0 88 39 88 96s-30 98 -91 98h-76v-194z" />
    <glyph glyph-name="uni042C" unicode="&#x42c;" horiz-adv-x="625" 
d="M75 0v715h175v-221h122c139 0 233 -104 233 -248s-94 -246 -233 -246h-297zM250 150h89c58 0 88 39 88 96s-30 98 -91 98h-86v-194z" />
    <glyph glyph-name="uni042D" unicode="&#x42d;" horiz-adv-x="716" 
d="M20 98l86 125c51 -45 121 -77 197 -77c108 0 171 63 190 142h-295v140h296c-19 81 -86 141 -191 141c-71 0 -131 -28 -191 -80l-81 132c69 72 173 106 279 106c233 0 370 -165 370 -366c0 -215 -156 -373 -378 -373c-129 0 -218 54 -282 110z" />
    <glyph glyph-name="uni042E" unicode="&#x42e;" horiz-adv-x="1109" 
d="M75 0v715h175v-286h95c29 172 170 298 360 298c214 0 368 -160 368 -365c0 -210 -154 -374 -368 -374c-185 0 -323 123 -357 292h-98v-280h-175zM518 362c0 -122 82 -214 187 -214s187 92 187 214c0 117 -82 205 -187 205s-187 -88 -187 -205z" />
    <glyph glyph-name="uni042F" unicode="&#x42f;" horiz-adv-x="652" 
d="M8 0l137 230c20 33 27 43 27 43v2c-81 45 -115 126 -115 212c0 110 56 182 132 211c31 12 66 17 139 17h249v-715h-175v241h-64l-135 -241h-195zM326 386h76v179h-59c-41 0 -68 -7 -84 -20c-18 -15 -24 -41 -24 -67c0 -64 35 -92 91 -92z" />
    <glyph glyph-name="uni0430" unicode="&#x430;" horiz-adv-x="552" 
d="M21 145c0 138 164 176 291 176h15v9c0 43 -35 57 -73 57c-50 0 -101 -22 -142 -49l-60 122c44 34 134 67 218 67c142 0 230 -79 230 -210v-317h-158v31c0 17 2 32 2 32h-2c-34 -48 -94 -75 -153 -75c-99 0 -168 68 -168 157zM192 161c0 -24 17 -44 49 -44
c50 0 88 49 88 91v14h-16c-53 0 -121 -14 -121 -61z" />
    <glyph glyph-name="uni0431" unicode="&#x431;" horiz-adv-x="612" 
d="M35 308c0 210 86 317 287 386l167 56l49 -139l-194 -62c-66 -22 -136 -50 -139 -124h2c44 37 106 49 151 49c138 0 222 -98 222 -236c0 -142 -103 -250 -266 -250c-186 0 -279 131 -279 320zM207 235c0 -66 46 -106 100 -106s100 40 100 106c0 67 -46 109 -100 109
s-100 -42 -100 -109z" />
    <glyph glyph-name="uni0432" unicode="&#x432;" horiz-adv-x="566" 
d="M58 0v515h281c103 0 175 -46 175 -135c0 -43 -21 -89 -60 -112v-1c59 -18 81 -69 81 -114c0 -113 -94 -153 -196 -153h-281zM231 312h65c32 0 46 24 46 51c0 24 -14 45 -48 45h-63v-96zM231 108h76c37 0 55 25 55 51c0 28 -17 52 -54 52h-77v-103z" />
    <glyph glyph-name="uni0433" unicode="&#x433;" horiz-adv-x="436" 
d="M58 0v515h363v-145h-190v-370h-173z" />
    <glyph glyph-name="uni0434" unicode="&#x434;" horiz-adv-x="651" 
d="M248 137h135v241h-89v-19c0 -78 -10 -153 -46 -222zM14 137h64c34 58 53 150 53 254v124h425v-378h74v-257h-154v120h-302v-120h-160v257z" />
    <glyph glyph-name="uni0435" unicode="&#x435;" horiz-adv-x="567" 
d="M29 258c0 151 102 269 268 269c152 0 238 -106 238 -249c0 -18 -2 -36 -4 -54h-325c13 -63 65 -92 120 -92c51 0 100 24 142 52l64 -121c-56 -48 -141 -75 -220 -75c-184 0 -283 133 -283 270zM210 323h154c0 42 -27 77 -71 77c-50 0 -74 -36 -83 -77z" />
    <glyph glyph-name="uni0436" unicode="&#x436;" horiz-adv-x="836" 
d="M7 0l145 266v2l-134 247h178l95 -183h46v183h161v-183h47l95 183h178l-134 -247v-2l145 -266h-187l-92 187h-52v-187h-161v187h-51l-92 -187h-187z" />
    <glyph glyph-name="uni0437" unicode="&#x437;" horiz-adv-x="473" 
d="M15 64l69 108c32 -29 83 -54 124 -54c48 0 62 21 62 45c0 25 -9 43 -56 43h-63v114h52c27 0 52 8 52 40c0 22 -10 41 -54 41c-28 0 -68 -7 -122 -39l-50 107c48 33 114 58 208 58c106 0 190 -54 190 -143c0 -64 -33 -99 -64 -116v-2c39 -18 80 -54 80 -114
c0 -109 -91 -164 -213 -164c-76 0 -159 26 -215 76z" />
    <glyph glyph-name="uni0438" unicode="&#x438;" horiz-adv-x="618" 
d="M58 0v515h163v-227c0 -18 -1 -38 -2 -51h2c9 21 19 36 28 51l143 227h168v-515h-163v225c0 12 0 32 2 52h-2c-9 -21 -20 -37 -28 -51l-143 -226h-168z" />
    <glyph glyph-name="uni0439" unicode="&#x439;" horiz-adv-x="618" 
d="M310 551c-102 0 -190 55 -190 153v11h128v-12c0 -41 32 -59 62 -59c29 0 62 18 62 59v12h127v-11c0 -98 -88 -153 -189 -153zM58 0v515h163v-227c0 -18 -1 -38 -2 -51h2c9 21 19 36 28 51l143 227h168v-515h-163v225c0 12 0 32 2 52h-2c-9 -21 -20 -37 -28 -51l-143 -226
h-168z" />
    <glyph glyph-name="uni043A" unicode="&#x43a;" horiz-adv-x="591" 
d="M58 0v515h173v-181h49l102 181h188l-151 -245v-2l172 -268h-197l-109 189h-54v-189h-173z" />
    <glyph glyph-name="uni043B" unicode="&#x43b;" horiz-adv-x="597" 
d="M20 -5v151c46 6 97 27 97 204v165h422v-515h-173v378h-86v-29c0 -210 -60 -354 -260 -354z" />
    <glyph glyph-name="uni043C" unicode="&#x43c;" horiz-adv-x="763" 
d="M36 0l49 515h200l76 -226c9 -26 20 -60 20 -60h1s12 34 21 60l76 226h199l49 -515h-166l-12 237c-1 40 1 88 1 88h-2s-15 -44 -28 -76l-68 -180h-140l-68 180c-11 33 -30 76 -30 76h-2s3 -48 1 -88l-12 -237h-165z" />
    <glyph glyph-name="uni043D" unicode="&#x43d;" horiz-adv-x="621" 
d="M58 0v515h173v-182h159v182h173v-515h-173v188h-159v-188h-173z" />
    <glyph glyph-name="uni043E" unicode="&#x43e;" horiz-adv-x="642" 
d="M29 256c0 162 130 271 291 271c163 0 293 -109 293 -271c0 -161 -130 -268 -292 -268s-292 107 -292 268zM204 256c0 -77 54 -124 117 -124s117 47 117 124c0 78 -54 127 -117 127s-117 -49 -117 -127z" />
    <glyph glyph-name="uni043F" unicode="&#x43f;" horiz-adv-x="615" 
d="M58 0v515h499v-515h-173v370h-153v-370h-173z" />
    <glyph glyph-name="uni0440" unicode="&#x440;" horiz-adv-x="633" 
d="M58 -200v715h156v-26c0 -17 -2 -33 -2 -33h2c35 47 94 71 156 71c140 0 232 -110 232 -270c0 -163 -103 -269 -240 -269c-48 0 -94 17 -131 49h-2s2 -18 2 -44v-193h-173zM226 254c0 -62 33 -123 101 -123c54 0 101 44 101 123c0 77 -41 127 -101 127
c-52 0 -101 -38 -101 -127z" />
    <glyph glyph-name="uni0441" unicode="&#x441;" horiz-adv-x="552" 
d="M29 258c0 138 102 269 287 269c72 0 154 -23 205 -78l-73 -116c-30 29 -76 50 -121 50c-82 0 -123 -62 -123 -123s42 -128 129 -128c50 0 104 30 141 62l63 -121c-51 -52 -135 -85 -221 -85c-184 0 -287 128 -287 270z" />
    <glyph glyph-name="uni0442" unicode="&#x442;" horiz-adv-x="516" 
d="M171 0v370h-156v145h486v-145h-157v-370h-173z" />
    <glyph glyph-name="uni0443" unicode="&#x443;" horiz-adv-x="561" 
d="M63 -47c0 0 28 -19 53 -19c28 0 65 8 83 52l10 24l-219 505h196l76 -237c9 -28 19 -80 19 -80h2s10 49 17 77l65 240h189l-211 -570c-43 -115 -133 -155 -215 -155c-68 0 -120 36 -120 36z" />
    <glyph glyph-name="uni0444" unicode="&#x444;" horiz-adv-x="785" 
d="M30 256c0 159 124 267 281 271v173h163v-173c157 -4 281 -112 281 -271c0 -158 -124 -263 -281 -268v-188h-163v188c-157 5 -281 110 -281 268zM474 124c63 5 114 54 114 132c0 80 -51 130 -114 135v-267zM197 256c0 -78 51 -127 114 -132v267c-63 -5 -114 -55 -114 -135
z" />
    <glyph glyph-name="uni0445" unicode="&#x445;" horiz-adv-x="550" 
d="M11 0l162 255l-166 260h195l56 -115c7 -13 16 -34 16 -34h2s10 21 16 34l56 115h195l-165 -260l162 -255h-190l-62 116c-5 9 -12 26 -12 26h-2s-7 -17 -12 -26l-61 -116h-190z" />
    <glyph glyph-name="uni0446" unicode="&#x446;" horiz-adv-x="646" 
d="M58 0v515h173v-370h146v370h173v-370h74v-265h-154v120h-412z" />
    <glyph glyph-name="uni0447" unicode="&#x447;" horiz-adv-x="576" 
d="M206 158c-83 0 -175 42 -175 177v180h170v-147c0 -44 23 -69 66 -69c35 0 61 13 78 25v191h173v-515h-173v161c0 11 1 24 1 24h-2c-29 -13 -75 -27 -138 -27z" />
    <glyph glyph-name="uni0448" unicode="&#x448;" horiz-adv-x="837" 
d="M58 0v515h163v-370h116v370h163v-370h116v370h163v-515h-721z" />
    <glyph glyph-name="uni0449" unicode="&#x449;" horiz-adv-x="875" 
d="M58 0v515h163v-370h116v370h163v-370h116v370h163v-370h74v-265h-154v120h-641z" />
    <glyph glyph-name="uni044A" unicode="&#x44a;" horiz-adv-x="615" 
d="M137 0v370h-130v145h303v-161h84c144 0 204 -74 204 -178c0 -105 -60 -176 -204 -176h-257zM310 113h52c41 0 63 28 63 64s-22 65 -66 65h-49v-129z" />
    <glyph glyph-name="uni044B" unicode="&#x44b;" horiz-adv-x="803" 
d="M572 0v515h173v-515h-173zM58 0v515h173v-161h78c144 0 204 -74 204 -178c0 -105 -60 -176 -204 -176h-251zM231 113h46c41 0 63 28 63 64s-22 65 -66 65h-43v-129z" />
    <glyph glyph-name="uni044C" unicode="&#x44c;" horiz-adv-x="537" 
d="M58 0v515h173v-161h84c144 0 204 -74 204 -178c0 -105 -60 -176 -204 -176h-257zM231 113h52c41 0 63 28 63 64s-22 65 -66 65h-49v-129z" />
    <glyph glyph-name="uni044D" unicode="&#x44d;" horiz-adv-x="550" 
d="M16 62l60 116c41 -34 90 -56 146 -56c71 0 116 35 133 80h-194v114h195c-18 47 -63 77 -127 77c-50 0 -98 -18 -134 -49l-70 112c52 49 137 71 213 71c185 0 283 -131 283 -269c0 -142 -103 -270 -287 -270c-78 0 -157 23 -218 74z" />
    <glyph glyph-name="uni044E" unicode="&#x44e;" horiz-adv-x="887" 
d="M58 0v515h173v-186h72c30 121 136 198 270 198c161 0 285 -109 285 -271c0 -161 -124 -268 -284 -268c-138 0 -246 79 -273 204h-70v-192h-173zM465 256c0 -77 48 -124 109 -124s109 47 109 124c0 78 -48 127 -109 127s-109 -49 -109 -127z" />
    <glyph glyph-name="uni044F" unicode="&#x44f;" horiz-adv-x="558" 
d="M9 0l104 156c14 21 24 31 24 31v1c-56 28 -93 87 -93 153c0 108 72 174 186 174h270v-515h-173v157h-36l-99 -157h-183zM286 272h41v136h-42c-40 0 -69 -18 -69 -66c0 -49 29 -70 70 -70z" />
    <glyph glyph-name="uni0409" unicode="&#x409;" horiz-adv-x="995" 
d="M18 -5v159c87 4 135 54 135 282v279h471v-261h122c139 0 233 -96 233 -228s-94 -226 -233 -226h-297v565h-118v-129c0 -278 -62 -436 -313 -441zM624 150h89c58 0 88 31 88 76s-30 78 -91 78h-86v-154z" />
    <glyph glyph-name="uni040A" unicode="&#x40a;" horiz-adv-x="1036" 
d="M75 0v715h175v-266h240v266h175v-266h122c139 0 233 -95 233 -225c0 -131 -94 -224 -233 -224h-297v299h-240v-299h-175zM665 150h89c57 0 88 30 88 74s-31 75 -91 75h-86v-149z" />
    <glyph glyph-name="uni040B" unicode="&#x40b;" horiz-adv-x="767" 
d="M188 0v565h-176v150h567v-150h-216v-111c0 -15 -2 -32 -2 -32h2c39 16 96 34 161 34c149 0 209 -101 209 -233v-223h-179v197c0 62 -24 105 -93 105c-39 0 -74 -12 -98 -26v-276h-175z" />
    <glyph glyph-name="uni04BA" unicode="&#x4ba;" horiz-adv-x="657" 
d="M75 0v715h175v-261c0 -15 -2 -32 -2 -32h2c39 16 96 34 161 34c149 0 209 -101 209 -233v-223h-179v197c0 62 -24 105 -93 105c-39 0 -74 -12 -98 -26v-276h-175z" />
    <glyph glyph-name="uni048C" unicode="&#x48c;" horiz-adv-x="716" 
d="M166 0v547h-160v130h164v73h171v-73h204v-130h-204v-93h122c139 0 233 -96 233 -228s-94 -226 -233 -226h-297zM341 150h89c58 0 88 31 88 76s-30 78 -91 78h-86v-154z" />
    <glyph glyph-name="uni0402" unicode="&#x402;" horiz-adv-x="761" 
d="M188 0v565h-176v150h567v-150h-216v-111c0 -16 -2 -32 -2 -32h2s72 34 164 34c129 0 216 -94 216 -222s-77 -246 -228 -246c-16 0 -31 1 -48 3v145c7 -1 13 -2 23 -2c27 0 77 18 77 84c0 53 -36 84 -86 84c-71 0 -118 -26 -118 -26v-276h-175z" />
    <glyph glyph-name="uni0452" unicode="&#x452;" horiz-adv-x="627" 
d="M58 0v522h-59v115h59v78h173v-78h163v-115h-163v-100c0 -26 -2 -44 -2 -44h2c29 51 89 82 157 82c104 0 185 -48 185 -193v-240c0 -193 -147 -235 -227 -235c-36 0 -61 3 -61 3v145s17 -2 37 -2c34 0 78 13 78 91v206c0 48 -19 68 -57 68c-53 0 -88 -31 -103 -76
c-7 -20 -9 -42 -9 -66v-161h-173z" />
    <glyph glyph-name="uni04BB" unicode="&#x4bb;" horiz-adv-x="626" 
d="M58 0v715h173v-226c0 -26 -2 -44 -2 -44h2c29 51 89 82 157 82c104 0 185 -48 185 -193v-334h-173v302c0 48 -19 68 -57 68c-75 0 -112 -59 -112 -138v-232h-173z" />
    <glyph glyph-name="uni045B" unicode="&#x45b;" horiz-adv-x="627" 
d="M58 0v522h-59v115h59v78h173v-78h163v-115h-163v-99c0 -26 -2 -44 -2 -44h2c29 51 89 82 157 82c104 0 185 -48 185 -193v-268h-173v236c0 48 -19 68 -57 68c-53 0 -88 -31 -103 -76c-7 -20 -9 -42 -9 -66v-162h-173z" />
    <glyph glyph-name="uni0459" unicode="&#x459;" horiz-adv-x="820" 
d="M20 -5v151c49 6 100 25 100 194v175h400v-177h80c144 0 204 -71 204 -172c0 -100 -60 -166 -204 -166h-253v378h-65v-31c0 -228 -59 -352 -262 -352zM520 113h56c41 0 63 22 63 53c0 33 -22 58 -66 58h-53v-111z" />
    <glyph glyph-name="uni045A" unicode="&#x45a;" horiz-adv-x="869" 
d="M58 0v515h173v-175h165v175h173v-177h80c144 0 204 -71 204 -172c0 -100 -60 -166 -204 -166h-253v207h-165v-207h-173zM569 113h56c41 0 63 22 63 53c0 33 -22 58 -66 58h-53v-111z" />
    <glyph glyph-name="uni0463" unicode="&#x463;" horiz-adv-x="598" 
d="M117 0v456h-122v121h121v138h173v-138h161v-121h-160v-102h90c144 0 204 -74 204 -178c0 -105 -60 -176 -204 -176h-263zM290 113h58c41 0 63 28 63 64s-22 65 -66 65h-55v-129z" />
    <glyph glyph-name="uni048D" unicode="&#x48d;" horiz-adv-x="598" 
d="M117 0v456h-122v121h121v138h173v-138h161v-121h-160v-102h90c144 0 204 -74 204 -178c0 -105 -60 -176 -204 -176h-263zM290 113h58c41 0 63 28 63 64s-22 65 -66 65h-55v-129z" />
    <glyph glyph-name="uni04A4" unicode="&#x4a4;" horiz-adv-x="958" 
d="M75 0v715h175v-286h260v286h438v-150h-263v-565h-175v280h-260v-280h-175z" />
    <glyph glyph-name="uni04A0" unicode="&#x4a0;" horiz-adv-x="800" 
d="M200 0v565h-185v150h360v-276h72l148 276h188l-193 -342v-2l204 -371h-196l-151 290h-72v-290h-175z" />
    <glyph glyph-name="uni04B4" unicode="&#x4b4;" horiz-adv-x="931" 
d="M200 0v565h-185v150h545v-150h-185v-416h264v566h175v-566h98v-289h-155v140h-557z" />
    <glyph glyph-name="uni0495" unicode="&#x495;" horiz-adv-x="544" 
d="M58 0v515h381v-136h-208v-95c21 8 56 15 92 15c133 0 203 -95 203 -223c0 -118 -60 -217 -170 -286l-81 117c34 20 86 70 86 156c0 52 -19 98 -82 98c-22 0 -38 -6 -48 -12v-149h-173z" />
    <glyph glyph-name="uni04C8" unicode="&#x4c8;" horiz-adv-x="621" 
d="M58 0v515h173v-182h159v182h173v-447c0 -139 -56 -208 -166 -278l-90 120c55 35 83 68 83 157v121h-159v-188h-173z" />
    <glyph glyph-name="uni04C4" unicode="&#x4c4;" horiz-adv-x="592" 
d="M58 0v515h173v-181h49l102 181h188l-139 -227v-2c88 -37 129 -123 129 -218c0 -139 -91 -234 -171 -278l-80 117c35 17 88 58 88 160c0 57 -29 122 -122 122h-44v-189h-173z" />
    <glyph glyph-name="uni04A1" unicode="&#x4a1;" horiz-adv-x="670" 
d="M137 0v370h-130v145h303v-181h49l102 181h188l-151 -245v-2l172 -268h-197l-109 189h-54v-189h-173z" />
    <glyph glyph-name="uni04A5" unicode="&#x4a5;" horiz-adv-x="760" 
d="M58 0v515h173v-182h159v182h355v-145h-182v-370h-173v188h-159v-188h-173z" />
    <glyph glyph-name="uni04B5" unicode="&#x4b5;" horiz-adv-x="765" 
d="M131 0v370h-114v145h402v-145h-115v-225h186v370h173v-370h82v-264h-154v119h-460z" />
    <glyph glyph-name="uni0401" unicode="&#x401;" horiz-adv-x="576" 
d="M75 0v715h448v-150h-273v-130h218v-150h-218v-135h287v-150h-462zM346 771v140h126v-140h-126zM137 771v140h126v-140h-126z" />
    <glyph glyph-name="uni0407" unicode="&#x407;" horiz-adv-x="325" 
d="M75 0v715h175v-715h-175zM205 771v140h126v-140h-126zM-4 771v140h126v-140h-126z" />
    <glyph glyph-name="uni04D2" unicode="&#x4d2;" horiz-adv-x="664" 
d="M-3 0l243 715h184l243 -715h-180l-44 150h-223l-43 -150h-180zM261 290h141l-40 139c-13 45 -29 123 -29 123h-2s-16 -78 -29 -123zM374 771v140h126v-140h-126zM165 771v140h126v-140h-126z" />
    <glyph glyph-name="uni04DA" unicode="&#x4da;" horiz-adv-x="728" 
d="M39 333c0 24 6 82 6 82h461c-16 91 -79 152 -183 152c-81 0 -160 -42 -195 -73l-81 132c21 18 121 101 300 101c213 0 344 -183 344 -370c0 -215 -141 -369 -337 -369c-207 0 -315 150 -315 345zM214 282c0 -83 49 -141 140 -141c94 0 148 58 152 141h-292zM391 771v140
h126v-140h-126zM182 771v140h126v-140h-126z" />
    <glyph glyph-name="uni04DC" unicode="&#x4dc;" horiz-adv-x="993" 
d="M6 0l192 371v2l-177 342h188l132 -276h68v276h175v-276h68l132 276h188l-177 -342v-2l192 -371h-196l-139 290h-68v-290h-175v290h-68l-139 -290h-196zM545 771v140h126v-140h-126zM336 771v140h126v-140h-126z" />
    <glyph glyph-name="uni04DE" unicode="&#x4de;" horiz-adv-x="569" 
d="M15 97l91 115c36 -35 92 -71 152 -71c61 0 94 28 94 80c0 42 -26 70 -84 70h-86v139h70c53 0 83 34 83 72c0 44 -31 75 -84 75c-45 0 -99 -20 -148 -59l-67 125c79 66 166 84 248 84c105 0 229 -63 229 -202c0 -82 -47 -129 -93 -156v-2c69 -24 112 -81 112 -159
c0 -139 -119 -220 -255 -220c-98 0 -193 38 -262 109zM318 771v140h126v-140h-126zM109 771v140h126v-140h-126z" />
    <glyph glyph-name="uni04E4" unicode="&#x4e4;" horiz-adv-x="754" 
d="M75 0v715h175v-334c0 -45 -8 -122 -8 -122h2s32 75 60 122l198 334h177v-715h-175v333c0 45 8 122 8 122h-2s-32 -75 -60 -122l-199 -333h-176zM421 771v140h126v-140h-126zM212 771v140h126v-140h-126z" />
    <glyph glyph-name="uni04E6" unicode="&#x4e6;" horiz-adv-x="820" 
d="M36 362c0 205 152 365 374 365s374 -160 374 -365c0 -210 -152 -374 -374 -374s-374 164 -374 374zM217 362c0 -122 80 -214 193 -214s193 92 193 214c0 117 -80 205 -193 205s-193 -88 -193 -205zM451 771v140h126v-140h-126zM242 771v140h126v-140h-126z" />
    <glyph glyph-name="uni04EA" unicode="&#x4ea;" horiz-adv-x="820" 
d="M36 362c0 205 158 365 374 365s374 -160 374 -365c0 -210 -158 -374 -374 -374s-374 164 -374 374zM411 141c88 0 163 61 188 151h-378c26 -90 100 -151 190 -151zM411 572c-91 0 -167 -60 -191 -148h381c-25 88 -100 148 -190 148zM242 771v140h126v-140h-126zM451 771
v140h126v-140h-126z" />
    <glyph glyph-name="uni04EC" unicode="&#x4ec;" horiz-adv-x="716" 
d="M20 98l86 125c51 -45 121 -77 197 -77c108 0 171 63 190 142h-295v140h296c-19 81 -86 141 -191 141c-71 0 -131 -28 -191 -80l-81 132c69 72 173 106 279 106c233 0 370 -165 370 -366c0 -215 -156 -373 -378 -373c-129 0 -218 54 -282 110zM367 771v140h126v-140h-126z
M158 771v140h126v-140h-126z" />
    <glyph glyph-name="uni04F0" unicode="&#x4f0;" horiz-adv-x="631" 
d="M54 42l76 131c19 -16 46 -36 79 -36c28 0 47 13 57 37l-276 541h192l119 -257c24 -51 39 -96 39 -96h2s11 45 28 95l88 258h184l-211 -536c-33 -84 -88 -191 -214 -191c-63 0 -113 19 -163 54zM370 771v140h126v-140h-126zM161 771v140h126v-140h-126z" />
    <glyph glyph-name="uni04F4" unicode="&#x4f4;" horiz-adv-x="692" 
d="M262 253c-151 0 -224 86 -224 224v238h179v-197c0 -68 29 -106 95 -106c54 0 101 18 126 33v270h179v-715h-179v259c0 14 2 32 2 32h-2c-35 -15 -101 -38 -176 -38zM377 771v140h126v-140h-126zM168 771v140h126v-140h-126z" />
    <glyph glyph-name="uni04F8" unicode="&#x4f8;" horiz-adv-x="925" 
d="M675 0v715h175v-715h-175zM75 0v715h175v-221h112c139 0 233 -104 233 -248s-94 -246 -233 -246h-287zM250 150h79c58 0 88 39 88 96s-30 98 -91 98h-76v-194zM504 771v140h126v-140h-126zM295 771v140h126v-140h-126z" />
    <glyph glyph-name="uni0451" unicode="&#x451;" horiz-adv-x="567" 
d="M29 258c0 151 102 269 268 269c152 0 238 -106 238 -249c0 -18 -2 -36 -4 -54h-325c13 -63 65 -92 120 -92c51 0 100 24 142 52l64 -121c-56 -48 -141 -75 -220 -75c-184 0 -283 133 -283 270zM210 323h154c0 42 -27 77 -71 77c-50 0 -74 -36 -83 -77zM336 575v140h126
v-140h-126zM127 575v140h126v-140h-126z" />
    <glyph glyph-name="uni0457" unicode="&#x457;" horiz-adv-x="289" 
d="M58 0v515h173v-515h-173zM187 575v140h126v-140h-126zM-22 575v140h126v-140h-126z" />
    <glyph glyph-name="uni04D3" unicode="&#x4d3;" horiz-adv-x="553" 
d="M22 145c0 138 164 176 291 176h15v9c0 43 -35 57 -73 57c-50 0 -101 -22 -142 -49l-60 122c44 34 134 67 218 67c142 0 230 -79 230 -210v-317h-158v31c0 17 2 32 2 32h-2c-34 -48 -94 -75 -153 -75c-99 0 -168 68 -168 157zM193 161c0 -24 17 -44 49 -44
c50 0 88 49 88 91v14h-16c-53 0 -121 -14 -121 -61zM318 575v140h126v-140h-126zM109 575v140h126v-140h-126z" />
    <glyph glyph-name="uni04DB" unicode="&#x4db;" horiz-adv-x="567" 
d="M304 575v140h126v-140h-126zM95 575v140h126v-140h-126zM30 238c0 20 4 62 4 62h327c-13 66 -65 92 -120 92c-72 0 -142 -49 -142 -49l-60 117c37 25 110 67 227 67c178 0 272 -126 272 -270c0 -151 -102 -269 -268 -269c-154 0 -240 107 -240 250zM209 205
c0 -56 27 -87 65 -87c51 0 83 34 83 87h-148z" />
    <glyph glyph-name="uni04DD" unicode="&#x4dd;" horiz-adv-x="836" 
d="M7 0l145 266v2l-134 247h178l95 -183h46v183h161v-183h47l95 183h178l-134 -247v-2l145 -266h-187l-92 187h-52v-187h-161v187h-51l-92 -187h-187zM460 575v140h126v-140h-126zM251 575v140h126v-140h-126z" />
    <glyph glyph-name="uni04DF" unicode="&#x4df;" horiz-adv-x="473" 
d="M15 64l69 108c32 -29 83 -54 124 -54c48 0 62 21 62 45c0 25 -9 43 -56 43h-63v114h52c27 0 52 8 52 40c0 22 -10 41 -54 41c-28 0 -68 -7 -122 -39l-50 107c48 33 114 58 208 58c106 0 190 -54 190 -143c0 -64 -33 -99 -64 -116v-2c39 -18 80 -54 80 -114
c0 -109 -91 -164 -213 -164c-76 0 -159 26 -215 76zM263 575v140h126v-140h-126zM54 575v140h126v-140h-126z" />
    <glyph glyph-name="uni04E5" unicode="&#x4e5;" horiz-adv-x="618" 
d="M58 0v515h163v-227c0 -18 -1 -38 -2 -51h2c9 21 19 36 28 51l143 227h168v-515h-163v225c0 12 0 32 2 52h-2c-9 -21 -20 -37 -28 -51l-143 -226h-168zM352 575v140h126v-140h-126zM143 575v140h126v-140h-126z" />
    <glyph glyph-name="uni04E7" unicode="&#x4e7;" horiz-adv-x="642" 
d="M29 256c0 162 130 271 291 271c163 0 293 -109 293 -271c0 -161 -130 -268 -292 -268s-292 107 -292 268zM204 256c0 -77 54 -124 117 -124s117 47 117 124c0 78 -54 127 -117 127s-117 -49 -117 -127zM363 575v140h126v-140h-126zM154 575v140h126v-140h-126z" />
    <glyph glyph-name="uni04EB" unicode="&#x4eb;" horiz-adv-x="642" 
d="M29 256c0 162 130 271 291 271c163 0 293 -109 293 -271c0 -161 -130 -268 -292 -268s-292 107 -292 268zM323 111c59 0 113 37 130 102h-263c16 -65 70 -102 133 -102zM323 403c-61 0 -112 -36 -131 -96h258c-18 60 -70 96 -127 96zM154 575v140h126v-140h-126zM363 575
v140h126v-140h-126z" />
    <glyph glyph-name="uni04ED" unicode="&#x4ed;" horiz-adv-x="550" 
d="M16 62l60 116c41 -34 90 -56 146 -56c71 0 116 35 133 80h-194v114h195c-18 47 -63 77 -127 77c-50 0 -98 -18 -134 -49l-70 112c52 49 137 71 213 71c185 0 283 -131 283 -269c0 -142 -103 -270 -287 -270c-78 0 -157 23 -218 74zM298 575v140h126v-140h-126zM89 575
v140h126v-140h-126z" />
    <glyph glyph-name="uni04F1" unicode="&#x4f1;" horiz-adv-x="561" 
d="M63 -47c0 0 28 -19 53 -19c28 0 65 8 83 52l10 24l-219 505h196l76 -237c9 -28 19 -80 19 -80h2s10 49 17 77l65 240h189l-211 -570c-43 -115 -133 -155 -215 -155c-68 0 -120 36 -120 36zM322 575v140h126v-140h-126zM113 575v140h126v-140h-126z" />
    <glyph glyph-name="uni04F5" unicode="&#x4f5;" horiz-adv-x="576" 
d="M206 158c-83 0 -175 42 -175 177v180h170v-147c0 -44 23 -69 66 -69c35 0 61 13 78 25v191h173v-515h-173v161c0 11 1 24 1 24h-2c-29 -13 -75 -27 -138 -27zM318 575v140h126v-140h-126zM109 575v140h126v-140h-126z" />
    <glyph glyph-name="uni04F9" unicode="&#x4f9;" horiz-adv-x="803" 
d="M572 0v515h173v-515h-173zM58 0v515h173v-161h78c144 0 204 -74 204 -178c0 -105 -60 -176 -204 -176h-251zM231 113h46c41 0 63 28 63 64s-22 65 -66 65h-43v-129zM443 575v140h126v-140h-126zM234 575v140h126v-140h-126z" />
    <glyph glyph-name="uni0472" unicode="&#x472;" horiz-adv-x="820" 
d="M36 362c0 205 158 365 374 365s374 -160 374 -365c0 -210 -158 -374 -374 -374s-374 164 -374 374zM411 141c88 0 163 61 188 151h-378c26 -90 100 -151 190 -151zM411 572c-91 0 -167 -60 -191 -148h381c-25 88 -100 148 -190 148z" />
    <glyph glyph-name="uni04E8" unicode="&#x4e8;" horiz-adv-x="820" 
d="M36 362c0 205 158 365 374 365s374 -160 374 -365c0 -210 -158 -374 -374 -374s-374 164 -374 374zM411 141c88 0 163 61 188 151h-378c26 -90 100 -151 190 -151zM411 572c-91 0 -167 -60 -191 -148h381c-25 88 -100 148 -190 148z" />
    <glyph glyph-name="uni0473" unicode="&#x473;" horiz-adv-x="642" 
d="M29 256c0 162 130 271 291 271c163 0 293 -109 293 -271c0 -161 -130 -268 -292 -268s-292 107 -292 268zM323 111c59 0 113 37 130 102h-263c16 -65 70 -102 133 -102zM323 403c-61 0 -112 -36 -131 -96h258c-18 60 -70 96 -127 96z" />
    <glyph glyph-name="uni04E9" unicode="&#x4e9;" horiz-adv-x="642" 
d="M29 256c0 162 130 271 291 271c163 0 293 -109 293 -271c0 -161 -130 -268 -292 -268s-292 107 -292 268zM323 111c59 0 113 37 130 102h-263c16 -65 70 -102 133 -102zM323 403c-61 0 -112 -36 -131 -96h258c-18 60 -70 96 -127 96z" />
    <glyph glyph-name="uni0496" unicode="&#x496;" horiz-adv-x="1042" 
d="M6 0l192 371v2l-177 342h188l132 -276h68v276h175v-276h68l132 276h188l-177 -342v-2l115 -222h115v-289h-155v140h-79l-139 290h-68v-290h-175v290h-68l-139 -290h-196z" />
    <glyph glyph-name="uni049A" unicode="&#x49a;" horiz-adv-x="719" 
d="M75 0v715h175v-276h72l148 276h188l-193 -342v-2l122 -222h114v-289h-155v140h-73l-151 290h-72v-290h-175z" />
    <glyph glyph-name="uni04B2" unicode="&#x4b2;" horiz-adv-x="702" 
d="M8 0l217 355l-218 360h199l78 -147c24 -45 44 -92 44 -92h2s19 46 44 92l79 147h199l-219 -360l126 -206h123v-289h-155v140h-71l-82 150c-25 45 -44 89 -44 89h-2s-19 -44 -44 -89l-82 -150h-194z" />
    <glyph glyph-name="uni04F6" unicode="&#x4f6;" horiz-adv-x="528" 
d="M75 0v715h438v-150h-263v-416h114v-289h-155v140h-134z" />
    <glyph glyph-name="uni04A2" unicode="&#x4a2;" horiz-adv-x="813" 
d="M75 0v715h175v-286h260v286h175v-566h114v-289h-155v140h-134v280h-260v-280h-175z" />
    <glyph glyph-name="uni04AC" unicode="&#x4ac;" horiz-adv-x="640" 
d="M228 0v565h-217v150h609v-150h-217v-416h114v-289h-155v140h-134z" />
    <glyph glyph-name="uni04B6" unicode="&#x4b6;" horiz-adv-x="745" 
d="M262 253c-151 0 -224 86 -224 224v238h179v-197c0 -68 29 -106 95 -106c54 0 101 18 126 33v270h179v-566h114v-289h-155v140h-138v259c0 14 2 32 2 32h-2c-35 -15 -101 -38 -176 -38z" />
    <glyph glyph-name="uni04CB" unicode="&#x4cb;" horiz-adv-x="691" 
d="M261 253c-151 0 -224 86 -224 224v238h179v-197c0 -68 29 -106 95 -106c54 0 101 18 126 33v270h179v-715h-138v-140h-155v289h114v110c0 14 2 32 2 32h-2c-35 -15 -101 -38 -176 -38z" />
    <glyph glyph-name="uni0497" unicode="&#x497;" horiz-adv-x="887" 
d="M7 0l145 266v2l-134 247h178l95 -183h46v183h161v-183h47l95 183h178l-134 -247v-2l66 -121h118v-265h-153v120h-73l-92 187h-52v-187h-161v187h-51l-92 -187h-187z" />
    <glyph glyph-name="uni049B" unicode="&#x49b;" horiz-adv-x="635" 
d="M58 0v515h173v-181h49l102 181h188l-151 -245v-2l79 -123h118v-265h-153v120h-69l-109 189h-54v-189h-173z" />
    <glyph glyph-name="uni04B3" unicode="&#x4b3;" horiz-adv-x="589" 
d="M11 0l162 255l-166 260h195l56 -115c7 -13 16 -34 16 -34h2s10 21 16 34l56 115h195l-165 -260l70 -110h118v-265h-153v120h-63l-62 116c-5 9 -12 26 -12 26h-2s-7 -17 -12 -26l-61 -116h-190z" />
    <glyph glyph-name="uni04F7" unicode="&#x4f7;" horiz-adv-x="441" 
d="M58 0v515h363v-145h-190v-225h98v-265h-153v120h-118z" />
    <glyph glyph-name="uni04A3" unicode="&#x4a3;" horiz-adv-x="679" 
d="M58 0v515h173v-182h159v182h173v-370h98v-265h-153v120h-118v188h-159v-188h-173z" />
    <glyph glyph-name="uni04AD" unicode="&#x4ad;" horiz-adv-x="525" 
d="M171 0v370h-156v145h486v-145h-157v-225h98v-265h-153v120h-118z" />
    <glyph glyph-name="uni04B7" unicode="&#x4b7;" horiz-adv-x="633" 
d="M206 158c-83 0 -175 42 -175 177v180h170v-147c0 -44 23 -69 66 -69c35 0 61 13 78 25v191h173v-370h97v-265h-153v120h-117v161c0 11 1 24 1 24h-2c-29 -13 -75 -27 -138 -27z" />
    <glyph glyph-name="uni04CC" unicode="&#x4cc;" horiz-adv-x="574" 
d="M245 105h98v82c0 12 1 24 1 24h-1c-31 -15 -82 -33 -149 -33c-79 0 -165 42 -165 173v164h170v-131c0 -44 23 -69 66 -69c35 0 61 13 78 25v175h173v-515h-118v-120h-153v225z" />
    <glyph glyph-name="uni048A" unicode="&#x48a;" horiz-adv-x="823" 
d="M75 0v715h175v-334c0 -45 -8 -122 -8 -122h2s32 75 60 122l198 334h177v-565h136v-91l-89 -199h-117l33 140h-138v333c0 45 8 122 8 122h-2s-32 -75 -60 -122l-199 -333h-176zM389 747c-102 0 -190 55 -190 153v11h128v-12c0 -41 32 -59 62 -59c29 0 62 18 62 59v12h127
v-11c0 -98 -88 -153 -189 -153z" />
    <glyph glyph-name="uni04C5" unicode="&#x4c5;" horiz-adv-x="783" 
d="M16 151c85 11 143 73 143 329v235h480v-565h136v-91l-89 -199h-117l33 140h-138v565h-139v-87c0 -352 -108 -486 -309 -486v159z" />
    <glyph glyph-name="uni04C9" unicode="&#x4c9;" horiz-adv-x="829" 
d="M75 0v715h175v-286h260v286h175v-565h136v-91l-89 -199h-117l33 140h-138v280h-260v-280h-175z" />
    <glyph glyph-name="uni04CD" unicode="&#x4cd;" horiz-adv-x="954" 
d="M47 0l59 715h190l104 -302c16 -46 36 -118 36 -118h2s20 72 36 118l104 302h190l46 -565h138v-91l-89 -199h-117l33 140h-128l-22 322c-4 54 0 120 0 120h-2s-24 -75 -40 -120l-75 -207h-150l-75 207c-16 45 -40 120 -40 120h-2s4 -66 0 -120l-22 -322h-176z" />
    <glyph glyph-name="uni048B" unicode="&#x48b;" horiz-adv-x="697" 
d="M58 0v515h163v-227c0 -18 -1 -38 -2 -51h2c9 21 19 36 28 51l143 227h168v-370h125v-86l-79 -179h-111l28 120h-126v225c0 12 0 32 2 52h-2c-9 -21 -20 -37 -28 -51l-143 -226h-168zM316 551c-102 0 -190 55 -190 153v11h128v-12c0 -41 32 -59 62 -59c29 0 62 18 62 59
v12h127v-11c0 -98 -88 -153 -189 -153z" />
    <glyph glyph-name="uni04C6" unicode="&#x4c6;" horiz-adv-x="667" 
d="M20 -5v151c46 6 97 27 97 204v165h422v-370h115v-86l-79 -179h-111l28 120h-126v378h-86v-29c0 -210 -60 -354 -260 -354z" />
    <glyph glyph-name="uni04CA" unicode="&#x4ca;" horiz-adv-x="691" 
d="M58 0v515h173v-182h159v182h173v-370h115v-86l-79 -179h-111l28 120h-126v188h-159v-188h-173z" />
    <glyph glyph-name="uni04CE" unicode="&#x4ce;" horiz-adv-x="847" 
d="M36 0l49 515h200l76 -226c9 -26 20 -60 20 -60h1s12 34 21 60l76 226h199l35 -370h126v-86l-79 -179h-111l28 120h-116l-12 237c-1 40 1 88 1 88h-2s-15 -44 -28 -76l-68 -180h-140l-68 180c-11 33 -30 76 -30 76h-2s3 -48 1 -88l-12 -237h-165z" />
    <glyph glyph-name="uni0498" unicode="&#x498;" horiz-adv-x="570" 
d="M15 97l91 115c36 -35 92 -71 152 -71c61 0 94 28 94 80c0 42 -26 70 -84 70h-86v139h70c53 0 83 34 83 72c0 44 -31 75 -84 75c-45 0 -99 -20 -148 -59l-67 125c79 66 166 84 248 84c105 0 229 -63 229 -202c0 -82 -47 -129 -93 -156v-2c69 -24 112 -81 112 -159
c0 -111 -75 -184 -174 -210v-138h-155v136c-71 13 -137 48 -188 101z" />
    <glyph glyph-name="uni04AA" unicode="&#x4aa;" horiz-adv-x="714" 
d="M37 359c0 208 154 368 375 368c96 0 198 -32 268 -101l-81 -132c-46 40 -115 73 -179 73c-143 0 -202 -101 -202 -204c0 -106 64 -215 202 -215c71 0 141 39 190 88l90 -128c-54 -56 -130 -104 -232 -116v-132h-155v139c-172 39 -276 180 -276 360z" />
    <glyph glyph-name="uni04BE" unicode="&#x4be;" horiz-adv-x="920" 
d="M23 527c0 25 1 58 9 91l7 30h155l-8 -32c-5 -22 -8 -45 -8 -67c0 -49 7 -100 59 -106c33 190 179 284 329 284c207 0 315 -150 315 -345c0 -24 -6 -72 -6 -72h-461c17 -91 83 -162 193 -162c77 0 152 42 185 73l81 -132c-18 -16 -90 -83 -231 -98v-131h-155v141
c-137 38 -237 156 -255 310c-122 2 -209 64 -209 216zM414 443h292c0 76 -49 131 -140 131c-94 0 -148 -78 -152 -131z" />
    <glyph glyph-name="uni0499" unicode="&#x499;" horiz-adv-x="474" 
d="M15 64l69 108c32 -29 83 -54 124 -54c48 0 62 21 62 45c0 25 -9 43 -56 43h-63v114h52c27 0 52 8 52 40c0 22 -10 41 -54 41c-28 0 -68 -7 -122 -39l-50 107c48 33 114 58 208 58c106 0 190 -54 190 -143c0 -64 -33 -99 -64 -116v-2c39 -18 80 -54 80 -114
c0 -83 -53 -135 -131 -154v-118h-150v115c-55 10 -108 33 -147 69z" />
    <glyph glyph-name="uni04AB" unicode="&#x4ab;" horiz-adv-x="552" 
d="M29 258c0 138 102 269 287 269c72 0 154 -23 205 -78l-73 -116c-30 29 -76 50 -121 50c-82 0 -123 -62 -123 -123s42 -128 129 -128c50 0 104 30 141 62l63 -121c-39 -40 -96 -68 -159 -79v-114h-150v119c-129 34 -199 141 -199 259z" />
    <glyph glyph-name="uni04BF" unicode="&#x4bf;" horiz-adv-x="718" 
d="M18 408c0 23 3 45 8 68h133c-5 -20 -8 -39 -8 -59c0 -47 13 -73 38 -82c29 112 122 192 259 192c152 0 238 -106 238 -249c0 -17 -4 -54 -4 -54h-325c13 -63 65 -92 120 -92c74 0 142 52 142 52l64 -121s-64 -57 -170 -72v-111h-150v123c-108 34 -171 125 -182 223
c-111 5 -163 69 -163 182zM361 323h151c0 39 -27 74 -68 74c-50 0 -74 -36 -83 -74z" />
    <glyph glyph-name="uni040F" unicode="&#x40f;" horiz-adv-x="748" 
d="M75 0v715h175v-566h248v566h175v-715h-221v-140h-155v140h-222z" />
    <glyph glyph-name="uni045F" unicode="&#x45f;" horiz-adv-x="608" 
d="M58 0v515h173v-370h146v370h173v-515h-169v-120h-154v120h-169z" />
    <glyph glyph-name="uni040E" unicode="&#x40e;" horiz-adv-x="631" 
d="M54 42l76 131c19 -16 46 -36 79 -36c28 0 47 13 57 37l-276 541h192l119 -257c24 -51 39 -96 39 -96h2s11 45 28 95l88 258h184l-211 -536c-33 -84 -88 -191 -214 -191c-63 0 -113 19 -163 54zM325 747c-102 0 -190 55 -190 153v11h128v-12c0 -41 32 -59 62 -59
c29 0 62 18 62 59v12h127v-11c0 -98 -88 -153 -189 -153z" />
    <glyph glyph-name="uni04C1" unicode="&#x4c1;" horiz-adv-x="993" 
d="M6 0l192 371v2l-177 342h188l132 -276h68v276h175v-276h68l132 276h188l-177 -342v-2l192 -371h-196l-139 290h-68v-290h-175v290h-68l-139 -290h-196zM505 747c-102 0 -190 55 -190 153v11h128v-12c0 -41 32 -59 62 -59c29 0 62 18 62 59v12h127v-11
c0 -98 -88 -153 -189 -153z" />
    <glyph glyph-name="uni04D0" unicode="&#x4d0;" horiz-adv-x="664" 
d="M-3 0l243 715h184l243 -715h-180l-44 150h-223l-43 -150h-180zM261 290h141l-40 139c-13 45 -29 123 -29 123h-2s-16 -78 -29 -123zM330 747c-102 0 -190 55 -190 153v11h128v-12c0 -41 32 -59 62 -59c29 0 62 18 62 59v12h127v-11c0 -98 -88 -153 -189 -153z" />
    <glyph glyph-name="uni04D6" unicode="&#x4d6;" horiz-adv-x="576" 
d="M75 0v715h448v-150h-273v-130h218v-150h-218v-135h287v-150h-462zM306 747c-102 0 -190 55 -190 153v11h128v-12c0 -41 32 -59 62 -59c29 0 62 18 62 59v12h127v-11c0 -98 -88 -153 -189 -153z" />
    <glyph glyph-name="uni045E" unicode="&#x45e;" horiz-adv-x="561" 
d="M283 551c-102 0 -190 55 -190 153v11h128v-12c0 -41 32 -59 62 -59c29 0 62 18 62 59v12h127v-11c0 -98 -88 -153 -189 -153zM63 -47c0 0 28 -19 53 -19c28 0 65 8 83 52l10 24l-219 505h196l76 -237c9 -28 19 -80 19 -80h2s10 49 17 77l65 240h189l-211 -570
c-43 -115 -133 -155 -215 -155c-68 0 -120 36 -120 36z" />
    <glyph glyph-name="uni04C2" unicode="&#x4c2;" horiz-adv-x="836" 
d="M7 0l145 266v2l-134 247h178l95 -183h46v183h161v-183h47l95 183h178l-134 -247v-2l145 -266h-187l-92 187h-52v-187h-161v187h-51l-92 -187h-187zM419 551c-102 0 -190 55 -190 153v11h128v-12c0 -41 32 -59 62 -59c29 0 62 18 62 59v12h127v-11
c0 -98 -88 -153 -189 -153z" />
    <glyph glyph-name="uni04D1" unicode="&#x4d1;" horiz-adv-x="553" 
d="M22 145c0 138 164 176 291 176h15v9c0 43 -35 57 -73 57c-50 0 -101 -22 -142 -49l-60 122c44 34 134 67 218 67c142 0 230 -79 230 -210v-317h-158v31c0 17 2 32 2 32h-2c-34 -48 -94 -75 -153 -75c-99 0 -168 68 -168 157zM193 161c0 -24 17 -44 49 -44
c50 0 88 49 88 91v14h-16c-53 0 -121 -14 -121 -61zM289 551c-102 0 -190 55 -190 153v11h128v-12c0 -41 32 -59 62 -59c29 0 62 18 62 59v12h127v-11c0 -98 -88 -153 -189 -153z" />
    <glyph glyph-name="uni04D7" unicode="&#x4d7;" horiz-adv-x="567" 
d="M29 258c0 151 102 269 268 269c152 0 238 -106 238 -249c0 -18 -2 -36 -4 -54h-325c13 -63 65 -92 120 -92c51 0 100 24 142 52l64 -121c-56 -48 -141 -75 -220 -75c-184 0 -283 133 -283 270zM210 323h154c0 42 -27 77 -71 77c-50 0 -74 -36 -83 -77zM295 551
c-102 0 -190 55 -190 153v11h128v-12c0 -41 32 -59 62 -59c29 0 62 18 62 59v12h127v-11c0 -98 -88 -153 -189 -153z" />
    <glyph glyph-name="uni0400" unicode="&#x400;" horiz-adv-x="576" 
d="M75 0v715h448v-150h-273v-130h218v-150h-218v-135h287v-150h-462zM264 761l-118 150h171l81 -150h-134z" />
    <glyph glyph-name="uni040D" unicode="&#x40d;" horiz-adv-x="754" 
d="M75 0v715h175v-334c0 -45 -8 -122 -8 -122h2s32 75 60 122l198 334h177v-715h-175v333c0 45 8 122 8 122h-2s-32 -75 -60 -122l-199 -333h-176zM325 761l-118 150h171l81 -150h-134z" />
    <glyph glyph-name="uni0450" unicode="&#x450;" horiz-adv-x="567" 
d="M29 258c0 151 102 269 268 269c152 0 238 -106 238 -249c0 -18 -2 -36 -4 -54h-325c13 -63 65 -92 120 -92c51 0 100 24 142 52l64 -121c-56 -48 -141 -75 -220 -75c-184 0 -283 133 -283 270zM210 323h154c0 42 -27 77 -71 77c-50 0 -74 -36 -83 -77zM244 565l-118 150
h171l81 -150h-134z" />
    <glyph glyph-name="uni045D" unicode="&#x45d;" horiz-adv-x="618" 
d="M58 0v515h163v-227c0 -18 -1 -38 -2 -51h2c9 21 19 36 28 51l143 227h168v-515h-163v225c0 12 0 32 2 52h-2c-9 -21 -20 -37 -28 -51l-143 -226h-168zM256 565l-118 150h171l81 -150h-134z" />
    <glyph glyph-name="uni0403" unicode="&#x403;" horiz-adv-x="523" 
d="M75 0v715h438v-150h-263v-565h-175zM197 761l81 150h171l-118 -150h-134z" />
    <glyph glyph-name="uni040C" unicode="&#x40c;" horiz-adv-x="675" 
d="M75 0v715h175v-276h72l148 276h188l-193 -342v-2l204 -371h-196l-151 290h-72v-290h-175zM281 761l81 150h171l-118 -150h-134z" />
    <glyph glyph-name="uni04F2" unicode="&#x4f2;" horiz-adv-x="631" 
d="M54 42l76 131c19 -16 46 -36 79 -36c28 0 47 13 57 37l-276 541h192l119 -257c24 -51 39 -96 39 -96h2s11 45 28 95l88 258h184l-211 -536c-33 -84 -88 -191 -214 -191c-63 0 -113 19 -163 54zM361 761l81 150h163l-118 -150h-126zM153 761l76 150h139l-79 -150h-136z
" />
    <glyph glyph-name="uni04E2" unicode="&#x4e2;" horiz-adv-x="754" 
d="M75 0v715h175v-334c0 -45 -8 -122 -8 -122h2s32 75 60 122l198 334h177v-715h-175v333c0 45 8 122 8 122h-2s-32 -75 -60 -122l-199 -333h-176zM258 782v112h275v-112h-275z" />
    <glyph glyph-name="uni04EE" unicode="&#x4ee;" horiz-adv-x="631" 
d="M181 782v112h275v-112h-275zM54 42l76 131c19 -16 46 -36 79 -36c28 0 47 13 57 37l-276 541h192l119 -257c24 -51 39 -96 39 -96h2s11 45 28 95l88 258h184l-211 -536c-33 -84 -88 -191 -214 -191c-63 0 -113 19 -163 54z" />
    <glyph glyph-name="uni0453" unicode="&#x453;" horiz-adv-x="436" 
d="M58 0v515h363v-145h-190v-370h-173zM148 565l81 150h171l-118 -150h-134z" />
    <glyph glyph-name="uni045C" unicode="&#x45c;" horiz-adv-x="591" 
d="M58 0v515h173v-181h49l102 181h188l-151 -245v-2l172 -268h-197l-109 189h-54v-189h-173zM223 565l81 150h171l-118 -150h-134z" />
    <glyph glyph-name="uni04F3" unicode="&#x4f3;" horiz-adv-x="561" 
d="M63 -47c0 0 28 -19 53 -19c28 0 65 8 83 52l10 24l-219 505h196l76 -237c9 -28 19 -80 19 -80h2s10 49 17 77l65 240h189l-211 -570c-43 -115 -133 -155 -215 -155c-68 0 -120 36 -120 36zM312 565l81 150h163l-118 -150h-126zM104 565l76 150h139l-79 -150h-136z" />
    <glyph glyph-name="uni04E3" unicode="&#x4e3;" horiz-adv-x="618" 
d="M58 0v515h163v-227c0 -18 -1 -38 -2 -51h2c9 21 19 36 28 51l143 227h168v-515h-163v225c0 12 0 32 2 52h-2c-9 -21 -20 -37 -28 -51l-143 -226h-168zM178 586v112h275v-112h-275z" />
    <glyph glyph-name="uni04EF" unicode="&#x4ef;" horiz-adv-x="561" 
d="M63 -47c0 0 28 -19 53 -19c28 0 65 8 83 52l10 24l-219 505h196l76 -237c9 -28 19 -80 19 -80h2s10 49 17 77l65 240h189l-211 -570c-43 -115 -133 -155 -215 -155c-68 0 -120 36 -120 36zM144 586v112h275v-112h-275z" />
    <glyph glyph-name="uni0405" unicode="&#x405;" horiz-adv-x="575" 
d="M26 90l92 133c40 -35 108 -74 172 -74c49 0 74 22 74 50c0 101 -316 85 -316 309c0 132 109 219 259 219c80 0 162 -26 224 -81l-74 -143c-40 35 -102 63 -158 63c-53 0 -76 -22 -76 -51c0 -102 316 -78 316 -304c0 -120 -89 -223 -254 -223c-93 0 -191 34 -259 102z" />
    <glyph glyph-name="uni0406" unicode="&#x406;" horiz-adv-x="325" 
d="M75 0v715h175v-715h-175z" />
    <glyph glyph-name="uni0408" unicode="&#x408;" horiz-adv-x="566" 
d="M18 220v52h175v-38c0 -45 16 -86 65 -86c38 0 64 24 64 76v341h-192v150h367v-495c0 -157 -120 -232 -239 -232c-121 0 -240 77 -240 232z" />
    <glyph glyph-name="uni04C0" unicode="&#x4c0;" horiz-adv-x="323" 
d="M75 0v715h173v-715h-173z" />
    <glyph glyph-name="uni04D4" unicode="&#x4d4;" horiz-adv-x="950" 
d="M-11 0l299 715h610v-150h-273v-130h218v-150h-218v-135h286v-150h-461v288h-168l-111 -288h-182zM336 428h114v137h-61z" />
    <glyph glyph-name="uni0455" unicode="&#x455;" horiz-adv-x="471" 
d="M19 64l74 113c38 -32 91 -52 140 -52c35 0 47 11 47 27c0 55 -241 43 -241 212c0 106 95 163 214 163c66 0 132 -17 184 -59l-59 -120c-30 24 -86 42 -130 42c-37 0 -48 -11 -48 -25c0 -54 241 -41 241 -208c0 -96 -80 -169 -212 -169c-74 0 -153 25 -210 76z" />
    <glyph glyph-name="uni0456" unicode="&#x456;" horiz-adv-x="289" 
d="M60 580v135h169v-135h-169zM58 0v515h173v-515h-173z" />
    <glyph glyph-name="uni0458" unicode="&#x458;" horiz-adv-x="289" 
d="M60 580v135h169v-135h-169zM58 4v511h173v-528c0 -173 -162 -195 -242 -195c-15 0 -31 1 -46 3v144c8 -1 14 -1 22 -1c34 0 93 8 93 66z" />
    <glyph glyph-name="uni04CF" unicode="&#x4cf;" horiz-adv-x="289" 
d="M58 0v715h173v-715h-173z" />
    <glyph glyph-name="uni04D5" unicode="&#x4d5;" horiz-adv-x="853" 
d="M22 154c0 154 219 169 302 169h4v7c0 43 -33 57 -76 57c-46 0 -100 -23 -140 -49l-60 121c47 37 135 68 213 68c80 0 127 -19 163 -51h2c39 32 88 51 154 51c147 0 238 -108 238 -254c0 -16 -2 -31 -4 -49h-325c13 -65 65 -92 120 -92c50 0 102 22 142 51l64 -120
c-51 -46 -142 -75 -220 -75c-99 0 -162 35 -207 90h-2c-13 -23 -71 -89 -193 -89c-96 0 -175 64 -175 165zM497 323h151c0 37 -26 74 -64 74c-50 0 -76 -31 -87 -74zM196 163c0 -24 15 -43 51 -43c47 0 84 50 84 92v12h-17c-55 0 -118 -20 -118 -61z" />
    <glyph glyph-name="uni0474" unicode="&#x474;" horiz-adv-x="698" 
d="M247 0l-253 715h190l126 -407c14 -45 27 -115 27 -115h2s13 70 27 115l110 349c14 43 34 58 84 58h125v-150h-25c-27 0 -37 -10 -47 -39l-184 -526h-182z" />
    <glyph glyph-name="uni0475" unicode="&#x475;" horiz-adv-x="600" 
d="M180 0l-178 515h182l80 -274c10 -33 19 -89 19 -89h2s9 55 19 89l52 177c20 71 50 97 120 97h107v-145h-24c-34 0 -45 -9 -58 -47l-110 -323h-211z" />
    <glyph glyph-name="uni04AF" unicode="&#x4af;" horiz-adv-x="565" 
d="M197 0l-197 515h182l80 -254c10 -33 19 -87 19 -87h2s9 53 19 87l79 254h183l-195 -515v-200h-172v200z" />
    <glyph glyph-name="uni04AE" unicode="&#x4ae;" horiz-adv-x="613" 
d="M219 0v293l-236 422h199l81 -172c23 -49 43 -103 43 -103h2s20 54 43 103l80 172h199l-236 -422v-293h-175z" />
    <glyph glyph-name="uni04B1" unicode="&#x4b1;" horiz-adv-x="564" 
d="M77 0v110h78l-155 405h182l80 -254c10 -33 19 -87 19 -87h2s9 53 19 87l79 254h183l-154 -405h79v-110h-120v-200h-172v200h-120z" />
    <glyph glyph-name="uni0492" unicode="&#x492;" horiz-adv-x="532" 
d="M79 0v281h-56v120h56v314h438v-150h-263v-164h155v-120h-155v-281h-175z" />
    <glyph glyph-name="uni04B0" unicode="&#x4b0;" horiz-adv-x="614" 
d="M116 189v120h95l-227 406h199l81 -172c23 -49 43 -103 43 -103h2s20 54 43 103l80 172h199l-227 -406h107v-120h-116v-189h-175v189h-104z" />
    <glyph glyph-name="uni048E" unicode="&#x48e;" horiz-adv-x="640" 
d="M75 0v715h297c139 0 233 -102 233 -246c0 -74 -25 -138 -68 -182l54 -64l-77 -65l-64 75c-24 -8 -50 -12 -78 -12h-122v-221h-175zM296 417l77 65l62 -74c6 15 9 32 9 51c0 64 -32 106 -96 106h-98v-213h95h5z" />
    <glyph glyph-name="uni049C" unicode="&#x49c;" horiz-adv-x="804" 
d="M75 0v715h175v-276h51v106h120v-106h30l148 276h188l-193 -342v-2l204 -371h-196l-151 290h-30v-109h-120v109h-51v-290h-175z" />
    <glyph glyph-name="uni049E" unicode="&#x49e;" horiz-adv-x="678" 
d="M30 515v112h48v88h175v-88h70v-112h-70v-76h72l148 276h188l-193 -342v-2l204 -371h-196l-151 290h-72v-290h-175v515h-48z" />
    <glyph glyph-name="uni04B8" unicode="&#x4b8;" horiz-adv-x="730" 
d="M280 261c-165 0 -244 86 -244 224v230h179v-197c0 -57 18 -93 71 -103v130h120v-124c29 7 54 16 70 24v270h179v-715h-179v267c0 14 2 32 2 32h-2c-17 -7 -42 -15 -70 -22v-111h-120v95h-6z" />
    <glyph glyph-name="uni048F" unicode="&#x48f;" horiz-adv-x="638" 
d="M58 -200v715h156v-26c0 -17 -2 -33 -2 -33h2s47 71 156 71c140 0 232 -110 232 -270c0 -79 -24 -145 -65 -191l52 -62l-77 -63l-55 66c-29 -12 -61 -19 -95 -19c-84 0 -131 49 -131 49h-2s2 -18 2 -44v-193h-173zM297 198l77 63l59 -71c7 16 11 36 11 58
c0 81 -43 133 -109 133c-61 0 -109 -39 -109 -133c0 -64 34 -125 109 -125c7 0 15 1 22 2z" />
    <glyph glyph-name="uni049D" unicode="&#x49d;" horiz-adv-x="691" 
d="M58 0v515h173v-181h33v93h100v-93h16l102 181h188l-151 -245v-2l172 -268h-197l-109 189h-21v-94h-100v94h-33v-189h-173z" />
    <glyph glyph-name="uni049F" unicode="&#x49f;" horiz-adv-x="591" 
d="M58 0v527h-60v110h60v78h173v-78h82v-110h-82v-193h49l102 181h188l-151 -245v-2l172 -268h-197l-109 189h-54v-189h-173z" />
    <glyph glyph-name="uni04B9" unicode="&#x4b9;" horiz-adv-x="636" 
d="M253 85v77h-27c-94 0 -195 42 -195 173v180h170v-147c0 -33 17 -55 52 -64v113h100v-112c21 5 39 12 52 19v191h173v-515h-173v171c0 12 1 24 1 24h-1c-14 -6 -32 -12 -52 -17v-93h-100z" />
    <glyph glyph-name="uni0493" unicode="&#x493;" horiz-adv-x="448" 
d="M66 0v177h-60v105h60v233h363v-145h-190v-88h121v-105h-121v-177h-173z" />
    <glyph glyph-name="uni04E1" unicode="&#x4e1;" horiz-adv-x="506" 
d="M54 -29c35 -21 99 -41 151 -41c67 0 108 33 108 84c0 40 -24 61 -73 66c-16 2 -66 2 -160 2v110l142 147c20 20 44 32 44 32v2s-28 -3 -60 -3h-187v145h436v-137l-150 -143c-15 -15 -30 -24 -30 -24v-2c30 -2 57 -6 79 -12c106 -29 128 -117 128 -181
c0 -155 -128 -226 -266 -226c-82 0 -161 25 -213 57z" />
    <glyph glyph-name="uni04E0" unicode="&#x4e0;" horiz-adv-x="543" 
d="M78 171c35 -21 99 -41 151 -41c67 0 108 33 108 84c0 40 -24 61 -73 66c-16 2 -66 2 -160 2v110l142 147c20 20 44 32 44 32v2s-28 -3 -60 -3h-187v145h436v-137l-150 -143c-15 -15 -30 -24 -30 -24v-2c30 -2 57 -6 79 -12c106 -29 128 -117 128 -181
c0 -155 -128 -226 -266 -226c-82 0 -161 25 -213 57z" />
    <glyph glyph-name="uni0490" unicode="&#x490;" horiz-adv-x="539" 
d="M75 0v715h314v120h140v-270h-279v-565h-175z" />
    <glyph glyph-name="uni0491" unicode="&#x491;" horiz-adv-x="451" 
d="M58 0v515h248v120h131v-265h-206v-370h-173z" />
    <glyph glyph-name="uni0524" unicode="&#x524;" horiz-adv-x="807" 
d="M75 0v715h604v-566h114v-289h-155v140h-134v566h-254v-566h-175z" />
    <glyph glyph-name="uni0525" unicode="&#x525;" horiz-adv-x="673" 
d="M58 0v515h499v-370h98v-265h-154v120h-117v370h-153v-370h-173z" />
    <glyph glyph-name="uni0404" unicode="&#x404;" horiz-adv-x="716" 
d="M37 359c0 203 139 368 375 368c177 0 268 -101 268 -101l-81 -132s-80 75 -179 75c-111 0 -174 -64 -196 -141h295v-140h-295c20 -82 79 -142 196 -142c108 0 196 81 196 81l85 -124s-102 -115 -289 -115c-224 0 -375 159 -375 371z" />
    <glyph glyph-name="uni0454" unicode="&#x454;" horiz-adv-x="554" 
d="M29 258c0 138 102 269 287 269c144 0 209 -71 209 -71l-72 -115s-52 49 -129 49c-68 0 -112 -28 -130 -74h195v-114h-194c18 -48 63 -80 136 -80c83 0 148 64 148 64l61 -119s-80 -79 -224 -79c-184 0 -287 128 -287 270z" />
    <glyph glyph-name="uni0462" unicode="&#x462;" horiz-adv-x="717" 
d="M167 0v539h-160v130h164v81h171v-81h204v-130h-204v-85h122c139 0 233 -96 233 -228s-94 -226 -233 -226h-297zM342 150h89c58 0 88 31 88 76s-30 78 -91 78h-86v-154z" />
    <glyph glyph-name="uni04A8" unicode="&#x4a8;" horiz-adv-x="946" 
d="M37 373c0 207 131 312 212 355l81 -158c-53 -34 -117 -99 -117 -205c0 -103 60 -217 216 -217c13 0 27 1 40 2c-65 67 -109 155 -109 265c0 166 101 300 271 300c175 0 267 -141 267 -283c0 -101 -46 -206 -123 -288c19 -3 38 -4 58 -4h57v-140h-60
c-60 0 -128 13 -193 40c-64 -33 -136 -52 -213 -52c-215 0 -387 148 -387 385zM541 418c0 -87 30 -154 78 -200c62 55 98 134 98 211c0 62 -23 127 -88 127c-55 0 -88 -47 -88 -138z" />
    <glyph glyph-name="uni04BC" unicode="&#x4bc;" horiz-adv-x="918" 
d="M22 527c0 25 1 58 9 91l7 30h155l-8 -32c-5 -22 -8 -45 -8 -67c0 -49 7 -100 59 -106c33 190 179 284 329 284c207 0 315 -150 315 -345c0 -24 -6 -72 -6 -72h-461c17 -91 83 -162 193 -162c77 0 152 42 185 73l81 -132c-20 -18 -109 -101 -290 -101
c-185 0 -330 134 -351 323c-122 2 -209 64 -209 216zM413 443h292c0 76 -49 131 -140 131c-94 0 -148 -78 -152 -131z" />
    <glyph glyph-name="uni04D8" unicode="&#x4d8;" horiz-adv-x="728" 
d="M39 333c0 24 6 82 6 82h461c-16 91 -79 152 -183 152c-81 0 -160 -42 -195 -73l-81 132c21 18 121 101 300 101c213 0 344 -183 344 -370c0 -215 -141 -369 -337 -369c-207 0 -315 150 -315 345zM214 282c0 -83 49 -141 140 -141c94 0 148 58 152 141h-292z" />
    <glyph glyph-name="uni0494" unicode="&#x494;" horiz-adv-x="650" 
d="M75 0v715h439v-150h-264v-154c31 10 76 16 116 16c183 0 260 -132 260 -293c0 -218 -100 -324 -294 -324v140c67 0 109 35 109 184c0 86 -28 143 -121 143c-24 0 -46 -4 -70 -12v-265h-175z" />
    <glyph glyph-name="uni04A6" unicode="&#x4a6;" horiz-adv-x="1005" 
d="M75 0v715h534v-294c31 10 76 16 116 16c183 0 260 -137 260 -303c0 -218 -90 -324 -294 -324v140c67 0 109 35 109 184c0 98 -28 163 -121 163c-24 0 -46 -6 -70 -12v-285h-175v567h-184v-567h-175z" />
    <glyph glyph-name="uni04C3" unicode="&#x4c3;" horiz-adv-x="691" 
d="M75 0v715h175v-276h72l148 276h188l-172 -305c61 -20 163 -94 163 -278c0 -173 -81 -322 -272 -322v145c44 0 87 37 87 162c0 95 -25 177 -153 177h-61v-294h-175z" />
    <glyph glyph-name="uni04C7" unicode="&#x4c7;" horiz-adv-x="760" 
d="M75 0v715h175v-286h260v286h175l1 -615c2 -252 -136 -301 -268 -291v147c49 0 92 18 92 140v184h-260v-280h-175z" />
    <glyph glyph-name="uni04A9" unicode="&#x4a9;" horiz-adv-x="818" 
d="M29 269c0 147 100 227 178 258l62 -137c-51 -26 -82 -74 -82 -125c0 -62 46 -144 159 -144c10 0 22 0 33 2c-46 45 -76 104 -76 178c0 127 91 226 240 226c148 0 228 -98 228 -199c0 -67 -36 -140 -95 -201c12 -1 25 -1 38 -1h71v-126h-61c-59 0 -124 10 -186 31
c-58 -27 -123 -43 -193 -43c-184 0 -316 112 -316 281zM463 305c0 -53 23 -97 63 -127c49 33 85 80 85 138c0 44 -21 82 -73 82c-55 0 -75 -43 -75 -93z" />
    <glyph glyph-name="uni04BD" unicode="&#x4bd;" horiz-adv-x="718" 
d="M18 408c0 23 3 45 8 68h133c-5 -20 -8 -39 -8 -59c0 -47 13 -73 38 -82c29 112 122 192 259 192c152 0 238 -106 238 -249c0 -17 -4 -54 -4 -54h-325c13 -63 65 -92 120 -92c74 0 142 52 142 52l64 -121s-83 -75 -220 -75c-170 0 -268 113 -282 238
c-111 5 -163 69 -163 182zM361 323h151c0 39 -27 74 -68 74c-50 0 -74 -36 -83 -74z" />
    <glyph glyph-name="uni04D9" unicode="&#x4d9;" horiz-adv-x="567" 
d="M30 238c0 20 4 62 4 62h327c-13 66 -65 92 -120 92c-72 0 -142 -49 -142 -49l-60 117c37 25 110 67 227 67c178 0 272 -126 272 -270c0 -151 -102 -269 -268 -269c-154 0 -240 107 -240 250zM209 205c0 -56 27 -87 65 -87c51 0 83 34 83 87h-148z" />
    <glyph glyph-name="uni04A7" unicode="&#x4a7;" horiz-adv-x="864" 
d="M58 0v515h475v-190c25 11 60 18 94 18c118 0 219 -86 219 -245c0 -130 -67 -241 -170 -308l-81 117c37 23 86 83 86 182c0 81 -36 113 -91 113c-19 0 -39 -4 -57 -13v-189h-173v370h-129v-370h-173z" />
    <glyph glyph-name="uni0433.BUL" horiz-adv-x="468" 
d="M28 138c0 163 241 170 241 228c0 18 -21 21 -40 21c-49 0 -102 -20 -133 -42l-59 123c58 40 132 59 201 59c111 0 192 -51 192 -150c0 -167 -241 -180 -241 -228c0 -14 17 -21 45 -21c48 0 105 23 137 52l74 -116c-58 -50 -139 -76 -216 -76c-133 0 -201 66 -201 150z
" />
    <glyph glyph-name="uni0434.BUL" horiz-adv-x="625" 
d="M130 -33c43 -21 93 -33 145 -33c62 0 119 23 119 99v17c0 6 1 19 1 19h-2c-30 -36 -69 -54 -129 -54c-155 0 -232 127 -232 259c0 131 75 253 231 253c49 0 104 -14 140 -50h3s-1 6 -1 12v26h162v-468c0 -188 -150 -257 -291 -257c-69 0 -145 20 -195 46zM206 280
c0 -64 30 -121 99 -121c45 0 93 23 93 113c0 91 -48 111 -100 111c-61 0 -92 -44 -92 -103z" />
    <glyph glyph-name="uni0436.BUL" horiz-adv-x="836" 
d="M7 0l145 266v2l-134 247h178l95 -183h46v383h161v-383h47l95 183h178l-134 -247v-2l145 -266h-187l-92 187h-52v-187h-161v187h-51l-92 -187h-187z" />
    <glyph glyph-name="uni0438.BUL" horiz-adv-x="621" 
d="M53 181v334h173v-302c0 -48 19 -68 55 -68c74 0 109 65 109 142v228h173v-515h-166v45c0 17 2 32 2 32h-2c-28 -55 -92 -89 -161 -89c-102 0 -183 48 -183 193z" />
    <glyph glyph-name="uni0439.BUL" horiz-adv-x="621" 
d="M53 181v334h173v-302c0 -48 19 -68 55 -68c74 0 109 65 109 142v228h173v-515h-166v45c0 17 2 32 2 32h-2c-28 -55 -92 -89 -161 -89c-102 0 -183 48 -183 193zM307 551c-102 0 -190 55 -190 153v11h128v-12c0 -41 32 -59 62 -59c29 0 62 18 62 59v12h127v-11
c0 -98 -88 -153 -189 -153z" />
    <glyph glyph-name="uni043A.BUL" horiz-adv-x="591" 
d="M58 0v715h173v-370h49l102 170h188l-151 -234v-2l172 -279h-197l-109 200h-54v-200h-173z" />
    <glyph glyph-name="uni043B.BUL" horiz-adv-x="567" 
d="M-2 0l178 515h211l175 -515h-183l-79 274c-10 34 -19 89 -19 89h-2s-9 -56 -19 -89l-80 -274h-182z" />
    <glyph glyph-name="uni043F.BUL" horiz-adv-x="626" 
d="M58 0v515h166v-45c0 -17 -2 -32 -2 -32h2c24 40 73 89 164 89c104 0 185 -48 185 -193v-334h-173v302c0 48 -19 68 -57 68c-77 0 -112 -64 -112 -137v-233h-173z" />
    <glyph glyph-name="uni0442.BUL" horiz-adv-x="909" 
d="M58 0v515h166v-45c0 -17 -2 -32 -2 -32h2c24 36 72 89 153 89c65 0 117 -29 144 -87h2c27 43 88 87 165 87c94 0 167 -51 167 -193v-334h-173v305c0 38 -7 65 -40 65c-75 0 -99 -75 -99 -152v-218h-173v305c0 38 -7 65 -40 65c-79 0 -99 -81 -99 -152v-218h-173z" />
    <glyph glyph-name="uni0446.BUL" horiz-adv-x="670" 
d="M53 181v334h173v-302c0 -48 19 -68 55 -68c74 0 109 65 109 142v228h173v-370h86v-265h-153v120h-99v45c0 17 2 32 2 32h-2c-28 -55 -92 -89 -161 -89c-102 0 -183 48 -183 193z" />
    <glyph glyph-name="uni0448.BUL" horiz-adv-x="908" 
d="M850 515v-515h-166v45c0 17 2 32 2 32h-2c-24 -36 -72 -89 -153 -89c-65 0 -117 29 -144 87h-2c-27 -43 -88 -87 -165 -87c-94 0 -167 51 -167 193v334h173v-305c0 -38 7 -65 40 -65c75 0 99 75 99 152v218h173v-305c0 -38 7 -65 40 -65c79 0 99 81 99 152v218h173z" />
    <glyph glyph-name="uni0449.BUL" horiz-adv-x="948" 
d="M850 515v-370h76v-265h-153v120h-89v45c0 17 2 32 2 32h-2c-24 -36 -72 -89 -153 -89c-65 0 -117 29 -144 87h-2c-27 -43 -88 -87 -165 -87c-94 0 -167 51 -167 193v334h173v-305c0 -38 7 -65 40 -65c75 0 99 75 99 152v218h173v-305c0 -38 7 -65 40 -65
c79 0 99 81 99 152v218h173z" />
    <glyph glyph-name="uni044A.BUL" horiz-adv-x="604" 
d="M113 198v172h-94v145h267v-121c0 -18 0 -21 -1 -35h2c25 13 68 26 112 26c107 0 187 -81 187 -195c0 -139 -103 -202 -235 -202c-165 0 -238 77 -238 210zM285 189c0 -40 21 -75 66 -75c30 0 63 14 63 70s-32 69 -67 69c-41 0 -62 -27 -62 -64z" />
    <glyph glyph-name="uni044C.BUL" horiz-adv-x="544" 
d="M53 198v317h173v-121c0 -18 0 -21 -1 -35h2c25 13 68 26 112 26c108 0 187 -81 187 -195c0 -139 -103 -202 -235 -202c-165 0 -238 77 -238 210zM225 189c0 -40 21 -75 66 -75c30 0 63 14 63 70s-32 69 -67 69c-41 0 -62 -27 -62 -64z" />
    <glyph glyph-name="uni044E.BUL" horiz-adv-x="887" 
d="M58 0v715h173v-386h72c30 121 136 198 270 198c161 0 285 -109 285 -271c0 -161 -124 -268 -284 -268c-138 0 -246 79 -273 204h-70v-192h-173zM465 256c0 -77 48 -124 109 -124s109 47 109 124c0 78 -48 127 -109 127s-109 -49 -109 -127z" />
    <glyph glyph-name="uni0432.BUL" horiz-adv-x="621" 
d="M48 250v186c0 178 110 291 276 291c156 0 210 -92 210 -160c0 -58 -31 -104 -94 -144v-2c84 -14 153 -82 153 -187c0 -156 -123 -246 -276 -246c-217 0 -269 172 -269 262zM221 427h2c13 15 32 28 52 39l25 14c41 19 63 41 63 74c0 22 -14 53 -61 53
c-31 0 -81 -18 -81 -101v-79zM218 229c0 -71 44 -102 97 -102c56 0 102 31 102 102c0 70 -46 94 -102 94c-43 0 -97 -24 -97 -94z" />
    <glyph glyph-name="uni0437.BUL" horiz-adv-x="467" 
d="M50 -27c30 -24 73 -37 111 -37c74 0 101 46 101 89c0 47 -23 81 -91 81h-77v135h79c38 0 82 21 82 73c0 47 -36 70 -85 70c-34 0 -77 -16 -99 -37l-74 106c54 48 131 74 206 74c134 0 224 -77 224 -184c0 -89 -55 -136 -105 -159v-2c83 -37 113 -99 113 -169
c0 -119 -93 -223 -258 -223c-66 0 -152 22 -195 53z" />
    <glyph glyph-name="currency" unicode="&#xa4;" horiz-adv-x="645" 
d="M112 0v142h-65v111h65v57h-65v134h65v271h282c158 0 229 -84 229 -212c0 -127 -102 -194 -239 -194h-97v-56h244v-111h-244v-142h-175zM287 444h71c64 0 86 37 86 70c0 34 -23 66 -83 66h-74v-136z" />
    <glyph glyph-name="numero" unicode="&#x2116;" horiz-adv-x="1123" 
d="M72 0v715h177l198 -334c28 -47 60 -122 60 -122h2s-8 77 -8 122v334h175v-715h-176l-199 333c-28 47 -60 122 -60 122h-2s8 -77 8 -122v-333h-175zM741 456c0 91 73 167 171 167c96 0 170 -76 170 -167c0 -93 -74 -166 -170 -166c-98 0 -171 73 -171 166zM863 457
c0 -29 20 -51 49 -51s49 22 49 51c0 27 -20 50 -49 50s-49 -23 -49 -50zM750 132v115h319v-115h-319z" />
    <glyph glyph-name="uni0414.ALT" horiz-adv-x="749" 
d="M7 150h75l200 565h182l199 -565h79v-290h-155v140h-425v-140h-155v290zM265 150h217l-81 257c-14 45 -27 115 -27 115h-2s-13 -70 -27 -115z" />
    <glyph glyph-name="uni041B.ALT" horiz-adv-x="678" 
d="M-5 0l253 715h182l252 -715h-187l-128 407c-14 45 -27 115 -27 115h-2s-13 -70 -27 -115l-126 -407h-190z" />
    <glyph glyph-name="uni0434.ALT" horiz-adv-x="657" 
d="M12 137h68l137 378h221l135 -378h71v-257h-154v120h-324v-120h-154v257zM250 137h151l-51 157c-11 34 -23 89 -23 89h-2s-12 -56 -23 -89z" />
    <glyph glyph-name="uni043B.ALT" horiz-adv-x="567" 
d="M-2 0l178 515h211l175 -515h-183l-79 274c-10 34 -19 89 -19 89h-2s-9 -56 -19 -89l-80 -274h-182z" />
    <glyph glyph-name="uni0409.ALT" horiz-adv-x="950" 
d="M-4 0l250 715h333v-261h122c139 0 233 -96 233 -228s-94 -226 -233 -226h-297v565h-39l-190 -565h-179zM579 150h89c58 0 88 31 88 76s-30 78 -91 78h-86v-154z" />
    <glyph glyph-name="uni0459.ALT" horiz-adv-x="826" 
d="M-1 0l208 515h319v-177h80c144 0 204 -71 204 -172c0 -100 -60 -166 -204 -166h-253v390h-38l-149 -390h-167zM526 113h56c41 0 63 22 63 53c0 33 -22 58 -66 58h-53v-111z" />
    <glyph glyph-name="uni04C5.ALT" horiz-adv-x="796" 
d="M495 0l-128 407c-14 45 -27 115 -27 115h-2s-13 -70 -27 -115l-126 -407h-190l253 715h182l199 -565h167v-91l-89 -199h-117l33 140h-128z" />
    <glyph glyph-name="uni04C6.ALT" horiz-adv-x="653" 
d="M379 0l-79 274c-10 34 -19 89 -19 89h-2s-9 -56 -19 -89l-80 -274h-182l178 515h211l125 -370h145v-86l-79 -179h-111l28 120h-116z" />
    </font>
</defs>
</svg>
